<svg width="12" height="16" viewBox="0 0 12 16" fill="none" xmlns="http://www.w3.org/2000/svg">
<g clip-path="url(#clip0_294_450)">
<path d="M6.16406 8.00085C6.16406 6.54311 7.3458 5.36133 8.80358 5.36133C10.2613 5.36133 11.4431 6.54311 11.4431 8.00085C11.4431 9.45862 10.2613 10.6404 8.80358 10.6404C7.3458 10.6404 6.16406 9.45862 6.16406 8.00085Z" fill="#1ABCFE"/>
<path d="M0.886719 13.2782C0.886719 11.8204 2.06847 10.6387 3.52624 10.6387H6.16575V13.2782C6.16575 14.736 4.98401 15.9177 3.52624 15.9177C2.06847 15.9177 0.886719 14.736 0.886719 13.2782Z" fill="#0ACF83"/>
<path d="M6.16406 0.0820312V5.36105H8.80358C10.2614 5.36105 11.4431 4.17931 11.4431 2.72155C11.4431 1.26378 10.2614 0.0820312 8.80358 0.0820312H6.16406Z" fill="#FF7262"/>
<path d="M0.886719 2.72155C0.886719 4.17931 2.06847 5.36105 3.52624 5.36105H6.16575V0.0820312H3.52624C2.06847 0.0820312 0.886719 1.26378 0.886719 2.72155Z" fill="#F24E1E"/>
<path d="M0.886719 8.00085C0.886719 9.45862 2.06847 10.6404 3.52624 10.6404H6.16575V5.36133H3.52624C2.06847 5.36133 0.886719 6.54311 0.886719 8.00085Z" fill="#A259FF"/>
</g>
<defs>
<clipPath id="clip0_294_450">
<rect width="10.6667" height="16" fill="white" transform="translate(0.832031)"/>
</clipPath>
</defs>
</svg>
