<svg width="148" height="28" viewBox="0 0 148 28" fill="none" xmlns="http://www.w3.org/2000/svg">
<path d="M56.6843 7.87807L53.1134 8.83628C52.6477 7.90397 52.2595 7.25653 51.3798 6.73858C50.7846 6.37601 50.0342 6.06524 49.1803 6.06524C48.3005 6.03934 47.4725 6.24652 46.9291 6.58319C46.2822 6.97166 45.9717 7.5673 45.9717 8.13705C45.9717 8.47372 46.1011 8.78449 46.3339 9.01757C46.6703 9.38013 47.5242 9.7168 48.4558 10.0017L51.6903 10.934C53.3463 11.426 54.3037 11.9181 55.1318 12.695C56.2444 13.7568 56.8655 15.1294 56.8655 16.6574C56.8655 18.2889 55.9339 19.9982 54.459 20.9823C53.0358 21.9405 51.328 22.1736 49.3614 22.1736C46.8773 22.1736 44.7555 21.5261 43.2288 19.6615C42.3232 18.5479 41.8315 17.253 41.5469 16.0358L45.1178 15.0776C45.273 15.984 45.5835 16.8127 46.0493 17.3825C46.7997 18.4184 48.2488 18.8846 49.4908 18.8846C50.4741 18.8846 51.7161 18.5997 52.3889 18.0817C52.9841 17.6415 53.1393 17.0717 53.1393 16.5538C53.1393 16.0617 52.9582 15.5956 52.5701 15.2589C52.156 14.8963 51.6385 14.6373 50.914 14.4302L47.4466 13.4202C46.0493 13.0317 44.7814 12.4878 43.8757 11.685C42.763 10.7527 42.2714 9.35424 42.2714 8.05936C42.2714 6.01344 43.5911 4.25241 45.2989 3.47548C46.6444 2.85394 47.99 2.75035 49.232 2.75035C50.5 2.77624 51.8973 2.98342 53.1393 3.65676C54.7178 4.51138 55.9598 5.98755 56.6843 7.87807Z" fill="white"/>
<path d="M67.2304 7.80038H70.7754V21.7851H67.6703V20.8269C66.5577 21.7074 65.1603 22.1218 63.8924 22.1736C62.3399 22.2253 60.6838 21.6297 59.5711 20.6197C57.9151 19.0917 57.6822 17.2271 57.6822 14.7927V7.80038H61.2531V14.7927C61.2531 16.0617 61.4601 17.253 62.1846 17.9781C62.6763 18.4961 63.4267 18.7551 64.3841 18.7551C65.031 18.7292 65.5744 18.5479 66.0401 18.2112C66.5577 17.8228 66.9199 17.2012 67.0752 16.4243C67.2046 15.8027 67.2304 14.8445 67.2304 13.8863V7.80038Z" fill="white"/>
<path d="M85.1172 9.63911C86.204 11.0117 86.7474 12.8504 86.7474 14.7927C86.7474 16.7092 86.3075 18.4961 85.1172 19.9464C83.9787 21.3707 82.1415 22.1736 80.3043 22.1736C78.9587 22.1736 77.7167 21.8628 76.7075 21.2412V28.0005H73.1625V7.80038H76.2676V8.6809C77.3285 7.87807 78.7 7.41191 80.1231 7.41191C82.0639 7.41191 83.9269 8.16295 85.1172 9.63911ZM82.3226 17.7969C82.8143 17.0717 83.0213 15.984 83.0213 14.7927C83.0213 13.6014 82.7625 12.5137 82.2709 11.7886C81.6757 10.8822 80.77 10.5455 79.6056 10.5455C78.6482 10.5455 77.8202 10.8563 77.2509 11.5296C76.5781 12.3066 76.2676 13.5238 76.2676 14.7927C76.2676 16.0617 76.5781 17.3048 77.2509 18.0558C77.8719 18.7292 78.7258 19.0399 79.735 19.0399C80.7183 19.0399 81.7275 18.7033 82.3226 17.7969Z" fill="white"/>
<path d="M91.19 11.9181L87.9814 10.3901C88.059 10.2865 88.1625 10.1053 88.266 9.97578C89.5339 8.18884 91.4487 7.43781 93.7517 7.43781C96.3134 7.43781 98.3835 8.29243 99.5221 10.2089C100.065 11.1153 100.272 12.1512 100.272 13.0058V21.7851H97.1932V19.4025C96.9345 20.1535 96.0806 20.9305 95.4595 21.293C94.4762 21.8887 93.2601 22.1477 92.1992 22.1477C90.8277 22.1477 89.4045 21.4743 88.6541 20.5938C87.9296 19.5838 87.5673 18.8846 87.5673 17.6674C87.5673 16.1653 88.4989 14.6891 89.8186 13.9122C91.3711 13.0835 92.4579 13.0576 94.4504 12.7468L96.7016 12.4361C96.5722 11.8922 96.1841 11.426 95.6665 11.1412C95.0973 10.8045 94.3986 10.675 93.6741 10.7009C92.7684 10.7009 92.018 10.9081 91.4746 11.5555C91.3711 11.6591 91.2676 11.7886 91.19 11.9181ZM96.7792 15.2589L94.1916 15.7509C92.6908 16.0358 91.1124 16.3207 91.0606 17.4343C91.0089 18.263 91.7593 18.9881 92.8978 18.9364C94.3727 18.8846 96.1582 18.1594 96.5981 16.4761C96.7533 15.9063 96.7792 15.3884 96.7792 15.2589Z" fill="white"/>
<path d="M108.931 5.80626C107.534 6.01344 107.249 6.76448 107.249 7.80038H110.975V10.5196H107.249V21.7851H103.73V10.5196H100.832V7.80038H103.73C103.782 6.73858 104.015 5.28831 105.024 4.20061C106.499 2.69855 108.698 2.56906 110.975 2.80214V5.83216C110.329 5.72857 109.552 5.70267 108.931 5.80626Z" fill="white"/>
<path d="M114.639 11.9181L111.43 10.3901C111.508 10.2865 111.611 10.1053 111.715 9.97578C112.982 8.18884 114.897 7.43781 117.2 7.43781C119.762 7.43781 121.832 8.29243 122.971 10.2089C123.514 11.1153 123.721 12.1512 123.721 13.0058V21.7851H120.642V19.4025C120.383 20.1535 119.529 20.9305 118.908 21.293C117.925 21.8887 116.709 22.1477 115.648 22.1477C114.276 22.1477 112.853 21.4743 112.103 20.5938C111.378 19.5838 111.016 18.8846 111.016 17.6674C111.016 16.1653 111.947 14.6891 113.267 13.9122C114.82 13.0835 115.906 13.0576 117.899 12.7468L120.15 12.4361C120.021 11.8922 119.633 11.426 119.115 11.1412C118.546 10.8045 117.847 10.675 117.123 10.7009C116.217 10.7009 115.467 10.9081 114.923 11.5555C114.82 11.6591 114.716 11.7886 114.639 11.9181ZM120.228 15.2589L117.64 15.7509C116.139 16.0358 114.561 16.3207 114.509 17.4343C114.457 18.263 115.208 18.9881 116.346 18.9364C117.821 18.8846 119.607 18.1594 120.047 16.4761C120.202 15.9063 120.228 15.3884 120.228 15.2589Z" fill="white"/>
<path d="M136.986 11.5037L133.57 12.3325C133.415 11.8404 132.949 11.3225 132.483 11.0894C132.069 10.8563 131.552 10.7268 130.982 10.7268C130.361 10.7268 129.818 10.8304 129.456 11.0376C129.068 11.2966 128.99 11.5296 128.99 11.685C128.99 11.8145 129.042 11.9181 129.068 11.9958C129.275 12.2548 129.844 12.4878 130.543 12.695C131.241 12.9022 132.043 13.1094 132.742 13.2907C133.906 13.6532 134.579 13.8086 135.485 14.5597C136.623 15.4402 137.219 16.6315 137.115 18.0558C137.012 19.3766 136.287 20.5161 135.123 21.2671C134.01 21.9664 132.664 22.1736 131.241 22.1736C129.326 22.1736 127.696 21.6815 126.402 20.3089C125.755 19.5838 124.979 18.0299 124.927 17.3048L128.265 16.4761C128.265 16.8904 128.524 17.6674 128.912 18.0558C129.533 18.7292 130.387 18.8587 131.241 18.8587C131.888 18.8587 132.794 18.7292 133.208 18.3925C133.467 18.1594 133.518 18.004 133.57 17.7451C133.57 17.4861 133.518 17.3048 133.337 17.1235C133.001 16.7868 132.354 16.5797 131.888 16.4502C131.138 16.243 130.413 16.0617 129.637 15.8545C128.369 15.5179 127.593 15.1812 126.868 14.6115C125.911 13.8863 125.419 12.7468 125.419 11.7627C125.419 10.0017 126.506 8.60321 127.981 7.95576C129.068 7.48961 130.077 7.38602 131.034 7.41191C131.992 7.41191 133.053 7.6191 134.01 8.11115C135.381 8.81039 136.442 10.0276 136.986 11.5037Z" fill="white"/>
<path d="M147.49 10.5196H143.453V15.5956C143.453 16.6833 143.479 17.4861 143.789 17.9781C144.1 18.4702 144.669 18.781 145.213 18.8328C145.885 18.8846 146.739 18.8587 147.49 18.7551V21.7851C146.377 22.0959 144.436 22.1477 143.401 21.8628C142.133 21.5002 141.15 20.8787 140.607 19.8428C140.012 18.7292 139.934 17.3825 139.934 15.8545V10.5196H137.036V7.80038H139.934V3.91574H143.453V7.80038H147.49V10.5196Z" fill="white"/>
<path d="M6.39522 12.9289H0V25.8578H24.4033C27.9735 25.8578 30.8678 22.9636 30.8678 19.3934C30.8678 15.8588 28.0311 12.9868 24.5102 12.9298L9.49284 25.7879L12.6624 12.9438L6.39522 12.9289Z" fill="white"/>
<path d="M24.5112 12.9289H30.8678V0H21.3744L18.056 12.9438L24.5125 12.9278L24.5112 12.9289Z" fill="white"/>
<path d="M21.3719 0H6.46446C2.89424 0 0 2.89424 0 6.46446C0 9.98295 2.81097 12.8449 6.30969 12.9271L21.3719 0Z" fill="white"/>
</svg>
