<svg width="38" height="33" viewBox="0 0 38 33" fill="none" xmlns="http://www.w3.org/2000/svg">
<path d="M23.2202 14.2613L20.2617 16.3688L17.3612 18.5405C16.6651 19.0835 16.0386 19.7081 15.3308 20.2511C12.8538 22.1543 10.371 24.075 7.99254 26.0891C6.91935 27.0173 5.93317 28.0098 4.9702 28.9906C3.79612 30.3033 2.5197 31.5195 1.15312 32.6276C0.706444 32.9487 0.248163 32.47 0.0683305 31.6644C-0.0227768 31.2057 -0.0227768 30.7335 0.0683305 30.2749C0.14213 29.7742 0.344038 29.3014 0.654235 28.903C1.23434 28.1908 1.86665 27.5135 2.48156 26.8305C3.09647 26.1475 3.78679 25.5403 4.45391 24.9156C5.80393 23.6632 7.21946 22.4841 8.69446 21.3836C10.4696 20.0701 12.0359 18.3888 13.7472 16.9234C14.6811 16.1178 15.6383 15.3296 16.6013 14.5474C17.5642 13.7651 18.5272 12.9886 19.5018 12.2122C20.691 11.2722 21.9266 10.3674 23.1622 9.43328C24.9954 8.03216 26.9097 6.70693 28.7486 5.31165C29.4448 4.72785 30.1641 4.20827 30.8486 3.62447C31.1967 3.33841 31.5331 3.04067 31.887 2.76045L32.9892 1.94313C33.3198 1.70377 33.6215 1.43522 33.9638 1.21922C34.4292 0.891783 34.9854 0.720202 35.5532 0.728825C36.0024 0.807269 36.3982 1.07208 36.6438 1.45857C36.812 1.64503 36.9708 1.83988 37.1195 2.04237C37.5488 2.76045 37.311 3.67701 36.5916 4.37757C36.0115 4.8271 35.4662 5.37003 34.8803 5.84875C34.5845 6.09394 34.3002 6.32162 33.987 6.56098C33.6737 6.80034 33.4069 7.06305 33.082 7.30241C32.7571 7.54176 32.4439 7.81031 32.119 8.03216C31.7942 8.254 31.4809 8.48752 31.1561 8.72688C30.5121 9.19392 29.8508 9.64928 29.1895 10.1046C28.2149 10.8052 27.2307 11.498 26.2368 12.183L23.2841 14.3372L23.2202 14.2613Z" fill="white"/>
<path d="M10.4495 4.11141C10.443 4.12518 10.443 4.14115 10.4495 4.15492C10.486 4.22801 10.486 4.31385 10.4495 4.38694C10.3284 4.63705 10.2212 4.89364 10.1286 5.15553L10.0192 5.88061C9.9936 6.36366 9.9936 6.84772 10.0192 7.33078C10.0494 8.30128 10.1322 9.26946 10.2672 10.2311C10.4933 12.1381 10.7121 14.045 10.9966 15.9448L12.0031 21.6221L12.5137 24.4572L13.3233 27.314C13.3521 27.3812 13.3521 27.4571 13.3233 27.5243C13.3199 27.5386 13.3199 27.5535 13.3233 27.5678C13.3744 27.7201 13.9798 27.7708 14.6727 27.6911C15.3656 27.6113 15.9418 27.4228 15.9564 27.2633V27.2633C15.9086 27.2008 15.8829 27.1243 15.8834 27.0458L15.9345 26.1032C16.0417 24.2596 16.0173 22.4109 15.8616 20.5708L15.5552 14.9876L15.0447 9.52777L14.9207 8.16462C14.8623 7.71507 14.7894 7.26552 14.7237 6.80872L14.6216 6.13439C14.6053 5.90624 14.5562 5.6816 14.4757 5.46731L14.2569 4.80749C14.1256 4.59722 13.9725 4.37969 13.8339 4.17667C13.8027 4.1151 13.8027 4.04247 13.8339 3.9809C13.8417 3.96744 13.8417 3.95085 13.8339 3.93739C13.2876 3.74248 12.7018 3.68275 12.1271 3.76337C11.5461 3.71997 10.9646 3.84062 10.4495 4.11141Z" fill="white"/>
<path d="M21.773 4.10306V4.10306C21.8111 4.16383 21.8111 4.2401 21.773 4.30087C21.6352 4.51163 21.509 4.72928 21.3949 4.95293L21.221 5.61965C21.1541 6.0664 21.1137 6.51649 21.1 6.96772C21.0231 7.87173 20.9953 8.77903 21.0168 9.68586C21.0168 11.5102 20.979 13.3491 21.0168 15.1807C21.0546 17.0124 21.2134 18.844 21.342 20.7049L21.5537 23.4817C21.7427 24.4195 21.9393 25.3426 22.1889 26.3024C22.2187 26.3703 22.2187 26.447 22.1889 26.5149C22.1889 26.5149 22.1889 26.5149 22.1889 26.5661C22.2342 26.72 22.8619 26.7713 23.5802 26.6907C24.2986 26.6101 24.896 26.4269 24.9187 26.2951V26.2951C24.8743 26.2413 24.8526 26.1732 24.8582 26.1046C24.8582 25.8262 24.9187 25.5404 24.964 25.2474C25.2191 23.5325 25.3832 21.806 25.4556 20.0749L25.7807 14.8437L25.9622 9.58329L26 8.25719C26 7.8176 26 7.37068 25.9546 6.93109V6.26438C25.9606 6.03699 25.9326 5.80996 25.8715 5.59034L25.6975 4.90897C25.5841 4.68918 25.4404 4.46206 25.2968 4.22761C25.2627 4.15806 25.2627 4.07736 25.2968 4.00781C25.3003 3.99336 25.3003 3.97831 25.2968 3.96385C24.7305 3.74598 24.1146 3.67771 23.5122 3.76604C22.9136 3.74961 22.319 3.86483 21.773 4.10306V4.10306Z" fill="white"/>
</svg>
