<svg width="107" height="32" viewBox="0 0 107 32" fill="none" xmlns="http://www.w3.org/2000/svg">
<path fill-rule="evenodd" clip-rule="evenodd" d="M10.1018 10.6671L10.1017 10.4926V9.78077C7.72581 9.78077 5.21591 10.2892 5.21591 13.0903C5.21591 14.5094 5.95085 15.4708 7.21274 15.4708C8.13719 15.4708 8.96458 14.9023 9.48691 13.9778C10.1044 12.8928 10.1032 11.8709 10.1018 10.6671ZM12.6393 18.5816C12.8843 18.711 13.1986 18.6972 13.4159 18.503L13.4251 18.5123C14.0815 17.9299 15.274 16.8899 15.9442 16.3306C16.2123 16.1087 16.1661 15.7528 15.9535 15.4569C15.8891 15.3678 15.8242 15.2804 15.7598 15.1935C15.2232 14.4703 14.7147 13.7851 14.7147 12.4109V7.28936C14.7147 7.1144 14.7157 6.94059 14.7167 6.7681C14.7279 4.80319 14.7382 3.0088 13.2679 1.63629C12.0061 0.425252 9.91678 0 8.31747 0C5.19279 0 1.70297 1.16482 0.968021 5.02906C0.894064 5.44044 1.18989 5.65769 1.45798 5.71777L4.64737 6.05983C4.94319 6.04596 5.16044 5.75475 5.21591 5.45893C5.48862 4.12771 6.60722 3.48521 7.85986 3.48521C8.53471 3.48521 9.30201 3.73481 9.70415 4.34033C10.1148 4.94593 10.1086 5.75254 10.1029 6.47622V6.47625V6.47628C10.1023 6.55902 10.1017 6.64067 10.1017 6.72081V7.14607C9.79399 7.18116 9.47098 7.21421 9.13811 7.24827C7.41069 7.42501 5.4176 7.62893 3.92166 8.28777C1.86475 9.17525 0.417969 10.9918 0.417969 13.6589C0.417969 17.0747 2.57195 18.7804 5.33609 18.7804C7.67497 18.7804 8.95072 18.2303 10.7534 16.3906C10.8485 16.5275 10.9334 16.6532 11.0133 16.7714C11.4382 17.4003 11.7211 17.819 12.6393 18.5816ZM53.1862 10.4926L53.1863 10.6672V10.6672C53.1877 11.8709 53.1889 12.8928 52.5714 13.9778C52.0491 14.9023 51.2171 15.4708 50.2972 15.4708C49.0354 15.4708 48.2958 14.5094 48.2958 13.0903C48.2958 10.2892 50.8057 9.78078 53.1862 9.78078V10.4926ZM56.5004 18.503C56.2831 18.6972 55.9688 18.711 55.7238 18.5816C54.7954 17.8106 54.5132 17.3911 54.0822 16.7504C54.0067 16.6383 53.9267 16.5194 53.8379 16.3907C52.0352 18.2303 50.7548 18.7804 48.4206 18.7804C45.6518 18.7804 43.5025 17.0748 43.5025 13.6589C43.5025 10.9918 44.9446 9.17526 47.0062 8.28778C48.5021 7.62894 50.4952 7.42502 52.2226 7.24828C52.5555 7.21422 52.8785 7.18117 53.1862 7.14607V6.72082C53.1862 6.64128 53.1868 6.56026 53.1874 6.47817C53.193 5.75399 53.1992 4.94648 52.784 4.34034C52.3865 3.73481 51.6192 3.48521 50.9397 3.48521C49.6871 3.48521 48.5731 4.12771 48.3004 5.45893C48.2449 5.75476 48.0277 6.04596 47.7272 6.05983L44.5425 5.71778C44.2744 5.65769 43.9739 5.44044 44.0525 5.02906C44.7828 1.16482 48.2773 0 51.402 0C53.0013 0 55.0906 0.425252 56.3524 1.63629C57.8227 3.00881 57.8124 4.8032 57.8012 6.76811L57.8012 6.76997C57.8002 6.94185 57.7992 7.11504 57.7992 7.28936V12.4109C57.7992 13.7851 58.3077 14.4703 58.8443 15.1935C58.9087 15.2804 58.9736 15.3678 59.038 15.457C59.246 15.7528 59.2922 16.1087 59.0241 16.3306C58.3539 16.8899 57.1613 17.9299 56.505 18.5123L56.5004 18.503ZM19.1059 18.5493H22.3924C22.7437 18.5493 23.0257 18.2766 23.0257 17.9392V8.99964L23.0254 8.7869C23.0222 6.85876 23.018 4.34961 25.2952 4.34961C27.3912 4.34961 27.3554 6.58205 27.3263 8.39979C27.323 8.60639 27.3198 8.80764 27.3198 8.99964L27.3244 17.9392C27.3244 18.2627 27.5832 18.5262 27.916 18.5493H31.1979C31.5492 18.5493 31.8311 18.2766 31.8311 17.9392V8.99964C31.8311 8.92498 31.8309 8.84748 31.8307 8.76763C31.8283 7.82414 31.8251 6.55279 32.1362 5.76866C32.4736 4.91815 33.3056 4.38659 34.1007 4.38659C35.0529 4.38659 35.7878 4.70553 36.0328 5.83799C36.1593 6.3812 36.142 7.63717 36.1305 8.47774L36.1305 8.47839C36.1277 8.68184 36.1252 8.86092 36.1252 8.99964V17.9392C36.1252 18.2627 36.3887 18.5262 36.7169 18.5493H39.9987C40.35 18.5493 40.632 18.2766 40.632 17.9392L40.6366 7.29401C40.6366 7.03445 40.641 6.76963 40.6454 6.50224L40.6454 6.50183C40.6718 4.9075 40.6998 3.22125 39.8092 2.00611C38.8894 0.730356 37.3825 0.161814 36.0051 0.161814C34.0683 0.161814 32.261 1.15561 31.466 3.28649C30.5415 1.15561 29.2565 0.161814 27.1996 0.161814C25.175 0.161814 23.6728 1.15561 22.8731 3.28649H22.813V1.08165C22.7899 0.776579 22.5357 0.531589 22.2168 0.517732H19.1522C18.8009 0.517732 18.5189 0.785827 18.5189 1.12325V17.99C18.542 18.2904 18.7916 18.5262 19.1059 18.5493ZM61.7975 1.08162V3.49445C61.7975 3.855 62.0748 4.09998 62.4215 4.09998H68.0653L61.5802 13.4C61.1873 13.9963 61.1827 14.6665 61.1827 15.0594V17.5046C61.1827 17.8559 61.5756 18.2627 61.95 18.0593C65.6247 16.1087 70.039 16.2982 73.3625 18.0408C73.7692 18.2534 74.1575 17.8421 74.1575 17.4908V14.9161C74.1251 14.5695 74.0096 14.2182 73.5843 13.9778C71.6984 12.9147 69.5029 12.605 67.4228 12.6558L73.0204 4.66389C73.5381 3.94744 73.8293 3.49445 73.8339 3.14778V1.08162C73.8339 0.721079 73.5566 0.471475 73.2099 0.471475H62.4076C62.0748 0.471475 61.7975 0.716456 61.7975 1.08162ZM83.1339 0.161814C88.0104 0.161814 90.6497 4.34961 90.6497 9.67449C90.6497 14.8191 87.733 18.9006 83.1339 18.9006C78.3452 18.9006 75.7382 14.7128 75.7382 9.49422C75.7382 4.2433 78.3775 0.161814 83.1339 0.161814ZM83.1616 3.60542C80.7395 3.60542 80.587 6.90574 80.587 8.96266L80.587 9.03836C80.5866 11.1298 80.5858 15.4246 83.1339 15.4246C85.6808 15.4246 85.8009 11.8747 85.8009 9.71147C85.8009 8.2878 85.7408 6.5868 85.311 5.23709C84.9412 4.06303 84.2062 3.60542 83.1616 3.60542ZM93.7006 18.5493H96.9731C97.3244 18.5493 97.611 18.2766 97.6156 17.9392V8.85635C97.6156 7.71926 97.6757 6.69311 98.138 5.66234C98.5031 4.84882 99.2381 4.31263 100.038 4.31263C102.132 4.31263 102.113 6.6121 102.097 8.41643C102.096 8.56706 102.095 8.71424 102.095 8.85635V18.0177C102.127 18.3043 102.377 18.5262 102.677 18.5493H105.973C106.296 18.5493 106.569 18.3136 106.606 18.0177V7.40032C106.606 5.76866 106.606 3.49911 105.746 2.1494C104.822 0.693379 103.384 0.161814 101.91 0.161814C99.6402 0.161814 98.3506 1.26192 97.4308 3.56844H97.3707V0.989206C97.306 0.725735 97.0702 0.531589 96.7836 0.517732H93.7375C93.4047 0.517732 93.132 0.75809 93.1043 1.06778L93.1089 17.9392C93.1089 18.2627 93.3724 18.5262 93.7006 18.5493ZM61.6926 21.8454C63.6962 21.6078 68.0787 21.0879 68.86 22.0898C69.65 23.1015 67.9838 27.2619 67.2389 29.1217L67.2376 29.125C67.0111 29.6889 67.4965 29.9154 68.0049 29.4901C71.3191 26.7214 72.1696 20.9204 71.4947 20.0838C70.8199 19.2517 65.0328 18.5353 61.506 21.0175C60.9606 21.3965 61.053 21.9234 61.6585 21.8495L61.6926 21.8454ZM43.479 32C51.1797 32 60.1238 29.5733 66.2946 25.025C67.3161 24.2669 66.4425 23.1391 65.3979 23.5828C58.4829 26.518 50.9625 27.9324 44.1261 27.9324C33.9894 27.9324 24.1762 25.1544 16.2398 20.5367C15.5464 20.1299 15.0287 20.8418 15.6065 21.3641C22.9606 28.0063 32.6813 32 43.479 32Z" fill="white"/>
</svg>
