<svg width="76" height="32" viewBox="0 0 76 32" fill="none" xmlns="http://www.w3.org/2000/svg">
<path fill-rule="evenodd" clip-rule="evenodd" d="M10.386 12.1134V14.722L16.6204 14.7192C16.4292 16.1579 15.944 17.2113 15.2067 17.9487C14.2974 18.8579 12.8781 19.8586 10.386 19.8586C6.54391 19.8586 3.53897 16.7622 3.53897 12.9201C3.53897 9.078 6.54391 5.98158 10.386 5.98158C12.4595 5.98158 13.9731 6.79657 15.0902 7.84442L16.9309 6.00375C15.373 4.51515 13.2995 3.37305 10.3888 3.37305C5.12737 3.37305 0.703125 7.65869 0.703125 12.9201C0.703125 18.1815 5.12737 22.4672 10.3888 22.4672C13.2274 22.4672 15.3702 21.5357 17.0473 19.7893C18.7716 18.0651 19.3066 15.6451 19.3066 13.688C19.3066 13.1058 19.2622 12.5681 19.1763 12.1134H10.386ZM62.9752 22.0931V4.07458H60.3417V22.0931H62.9752ZM26.5223 22.47C29.9209 22.47 32.6902 19.8615 32.6902 16.3215C32.6902 12.7566 29.9209 10.1731 26.5223 10.1731C23.1237 10.1731 20.3544 12.7566 20.3544 16.3215C20.3544 19.8615 23.1237 22.47 26.5223 22.47ZM26.5223 12.5959C28.3851 12.5959 29.9902 14.1094 29.9902 16.3215C29.9902 18.5087 28.3851 20.0472 26.5223 20.0472C24.6594 20.0472 23.0544 18.5115 23.0544 16.3215C23.0544 14.1094 24.6594 12.5959 26.5223 12.5959ZM39.8285 22.47C43.227 22.47 45.9963 19.8615 45.9963 16.3215C45.9963 12.7566 43.227 10.1731 39.8285 10.1731C36.4299 10.1731 33.6606 12.7594 33.6606 16.3215C33.6606 19.8615 36.4299 22.47 39.8285 22.47ZM39.8285 12.5959C41.6913 12.5959 43.2963 14.1094 43.2963 16.3215C43.2963 18.5087 41.6913 20.0472 39.8285 20.0472C37.9656 20.0472 36.3606 18.5115 36.3606 16.3215C36.3606 14.1094 37.9656 12.5959 39.8285 12.5959ZM58.7481 10.5473V21.583C58.7481 26.1236 56.0703 27.9782 52.9046 27.9782C49.9246 27.9782 48.131 25.985 47.4546 24.355L49.8054 23.3765C50.224 24.3772 51.2496 25.5581 52.9018 25.5581C54.9282 25.5581 56.1839 24.3079 56.1839 21.9544V21.0701H56.0897C55.4854 21.8158 54.3211 22.4673 52.8519 22.4673C49.7776 22.4673 46.9612 19.7894 46.9612 16.3437C46.9612 12.8731 49.7776 10.1731 52.8519 10.1731C54.3183 10.1731 55.4826 10.8245 56.0897 11.548H56.1839V10.5473H58.7481ZM56.3752 16.3437C56.3752 14.1787 54.931 12.5959 53.0931 12.5959C51.2302 12.5959 49.6695 14.1787 49.6695 16.3437C49.6695 18.4865 51.2302 20.0472 53.0931 20.0472C54.931 20.0472 56.3752 18.4865 56.3752 16.3437ZM73.2378 18.3452L75.3335 19.7423C74.6571 20.743 73.0271 22.4673 70.2107 22.4673C66.7178 22.4673 64.1093 19.7673 64.1093 16.3188C64.1093 12.6624 66.74 10.1703 69.9085 10.1703C73.0992 10.1703 74.6599 12.7095 75.1699 14.0817L75.4499 14.7803L67.2307 18.1844C67.8599 19.418 68.8385 20.0472 70.2107 20.0472C71.5856 20.0472 72.5392 19.3708 73.2378 18.3452ZM66.7871 16.1331L72.2814 13.8516C71.9793 13.0838 71.07 12.5487 70 12.5487C68.6278 12.5487 66.7178 13.7601 66.7871 16.1331Z" fill="white"/>
</svg>
