<svg width="164" height="40" viewBox="0 0 164 40" fill="none" xmlns="http://www.w3.org/2000/svg">
<path d="M0 30.6411C0 36.0407 3.95965 40 9.57522 40C15.1904 40 19.1501 36.0407 19.1501 30.6411C19.1501 25.2422 15.1904 21.2822 9.57522 21.2822C3.95965 21.2822 0 25.2422 0 30.6411Z" fill="url(#paint0_linear_665_22)"/>
<path d="M2.60547 16.6046C2.60547 18.0358 2.76534 19.4088 3.06538 20.7105C4.90201 19.6031 7.11861 18.9773 9.57691 18.9773C16.4764 18.9773 21.4835 23.8825 21.4835 30.6406C21.4835 31.5067 21.4002 32.3416 21.2418 33.1406C30.3219 32.4091 36.5823 25.6464 36.5823 16.6046C36.5823 7.02518 29.5566 -0.000442813 19.5939 -0.000442813C9.63033 -0.000442813 2.60547 7.02518 2.60547 16.6046Z" fill="url(#paint1_linear_665_22)"/>
<path d="M46.582 18.5673C46.582 12.7129 49.9872 10.0345 54.4638 10.0345C57.3337 10.0345 59.7058 11.259 61.045 13.5929C62.3842 11.259 64.7181 10.0345 67.6258 10.0345C72.1025 10.0345 75.5079 12.7129 75.5079 18.5673V29.4336H71.3757V18.5673C71.3757 15.2765 69.6536 13.8606 67.2435 13.8606C64.871 13.8606 63.1492 15.353 63.1492 18.5673V29.4336H59.0173V18.5673C59.0173 15.353 57.2186 13.8606 54.8465 13.8606C52.4361 13.8606 50.7146 15.2765 50.7146 18.5673V29.4336H46.582V18.5673Z" fill="black"/>
<path d="M94.6387 19.9836C94.6387 16.4252 92.2666 13.8615 88.67 13.8615C85.0734 13.8615 82.6627 16.4252 82.6627 19.9836C82.6627 23.542 85.0734 26.1053 88.67 26.1053C92.2666 26.1053 94.6387 23.542 94.6387 19.9836ZM78.4922 20.1748C78.4922 14.1674 82.7012 10.0355 88.7082 10.0355C94.6387 10.0355 98.7713 14.0527 98.7713 20.1365V29.4343H94.9832V25.5315C93.7969 28.4392 91.1189 29.9316 87.9811 29.9316C83.2368 29.9316 78.4922 26.5262 78.4922 20.1748Z" fill="black"/>
<path d="M101.754 19.9836C101.754 14.2445 105.963 10.0355 111.932 10.0355C117.02 10.0355 120.77 13.0962 121.727 17.4964H117.556C116.676 15.3154 114.648 13.8615 111.932 13.8615C108.335 13.8615 105.924 16.4252 105.924 19.9836C105.924 23.542 108.335 26.1053 111.932 26.1053C114.648 26.1053 116.676 24.6517 117.556 22.4708H121.727C120.77 26.8709 117.02 29.9316 111.932 29.9316C105.963 29.9316 101.754 25.7226 101.754 19.9836Z" fill="black"/>
<path d="M124.707 18.3758C124.707 12.7514 128.036 10.0348 132.934 10.0348C137.831 10.0348 141.122 12.7514 141.122 18.4526V18.6055H137.028V18.3758C137.028 15.1236 135.382 13.8609 132.934 13.8609C130.485 13.8609 128.84 15.1236 128.84 18.3758V29.4336H124.707V18.3758Z" fill="black"/>
<path d="M159.219 20.155C159.227 16.6712 157.228 14.3351 154.02 13.9098C151.601 13.5892 149.27 14.6729 148.116 16.6677C147.443 17.8317 147.196 19.1007 147.294 20.4292C147.461 22.6989 148.42 24.5185 150.552 25.481C152.7 26.4513 154.86 26.3475 156.831 24.9808C158.549 23.7892 159.169 22.0066 159.219 20.155ZM163.489 18.6456C163.492 20.3681 163.42 22.0711 162.779 23.6943C161.452 27.0568 158.95 29.0074 155.443 29.7119C153.785 30.0451 152.123 30.046 150.454 29.9307C149.05 29.8338 147.653 29.4994 146.337 28.9623C144.932 28.3881 143.979 27.3808 143.606 25.921C143.358 24.9491 143.224 23.9381 143.141 22.9361C143.059 21.9317 143.082 20.9166 143.096 19.9061C143.122 17.9941 143.815 15.2195 145.083 13.8543C146.146 12.4365 147.659 11.2684 149.757 10.7106C150.946 10.3943 152.653 10.1279 154.424 10.0345C155.816 9.96121 157.295 10.0151 158.269 10.0985C160.762 10.3122 162.306 11.5881 162.946 14.0054C163.032 14.3304 163.12 14.6601 163.154 14.9932C163.401 16.3227 163.489 17.4497 163.489 18.6456Z" fill="black"/>
<defs>
<linearGradient id="paint0_linear_665_22" x1="2.77623" y1="23.8424" x2="16.3741" y2="37.4403" gradientUnits="userSpaceOnUse">
<stop stop-color="#FDBB39"/>
<stop offset="0.11" stop-color="#FFAC5C"/>
<stop offset="0.22" stop-color="#FFA180"/>
<stop offset="0.33" stop-color="#FF9DA5"/>
<stop offset="0.44" stop-color="#FF9DC7"/>
<stop offset="0.56" stop-color="#FFA7E5"/>
<stop offset="0.67" stop-color="#EFB4FB"/>
<stop offset="0.78" stop-color="#D1C1FF"/>
<stop offset="0.89" stop-color="#B2C7FF"/>
<stop offset="1" stop-color="#9DCEFF"/>
</linearGradient>
<linearGradient id="paint1_linear_665_22" x1="8.40366" y1="3.66871" x2="32.5283" y2="27.7934" gradientUnits="userSpaceOnUse">
<stop stop-color="#FDBB39"/>
<stop offset="0.11" stop-color="#FFAC5C"/>
<stop offset="0.22" stop-color="#FFA180"/>
<stop offset="0.33" stop-color="#FF9DA5"/>
<stop offset="0.44" stop-color="#FF9DC7"/>
<stop offset="0.56" stop-color="#FFA7E5"/>
<stop offset="0.67" stop-color="#EFB4FB"/>
<stop offset="0.78" stop-color="#D1C1FF"/>
<stop offset="0.89" stop-color="#B2C7FF"/>
<stop offset="1" stop-color="#9DCEFF"/>
</linearGradient>
</defs>
</svg>
