<svg width="120" height="32" viewBox="0 0 120 32" fill="none" xmlns="http://www.w3.org/2000/svg">
<path d="M42.0368 26.7281V13.2081H42.2777L52.1189 26.7281H55.2157V6.87387H51.7748V20.3597H51.5339L41.6927 6.87387H38.5958V26.7281H42.0368ZM64.9537 27.0346C69.4958 27.0346 72.283 24.1058 72.283 19.2019C72.283 14.332 69.4958 11.3692 64.9537 11.3692C60.446 11.3692 57.6244 14.332 57.6244 19.2019C57.6588 24.1058 60.4116 27.0346 64.9537 27.0346ZM64.9537 24.1739C62.545 24.1739 61.1686 22.369 61.1686 19.2019C61.1686 16.0688 62.545 14.2298 64.9537 14.2298C67.3624 14.2298 68.7388 16.0688 68.7388 19.2019C68.7388 22.369 67.3624 24.1739 64.9537 24.1739ZM75.4143 7.99769V11.7778H73.0056V14.5022H75.4143V22.7096C75.4143 25.6383 76.7907 26.7962 80.3005 26.7962C80.9543 26.7962 81.608 26.7281 82.1242 26.6259V23.9696C81.7113 24.0037 81.436 24.0377 80.9543 24.0377C79.509 24.0377 78.8553 23.3907 78.8553 21.8922V14.5022H82.1242V11.7778H78.8553V7.99769H75.4143ZM84.1888 26.7281H87.6298V11.6757H84.1888V26.7281ZM85.9093 9.18962C87.0448 9.18962 87.9739 8.27013 87.9739 7.14631C87.9739 5.98843 87.0448 5.06894 85.9093 5.06894C84.7737 5.06894 83.8447 5.98843 83.8447 7.14631C83.8447 8.27013 84.7737 9.18962 85.9093 9.18962ZM97.058 27.0346C101.6 27.0346 104.387 24.1058 104.387 19.2019C104.387 14.332 101.6 11.3692 97.058 11.3692C92.5504 11.3692 89.7288 14.332 89.7288 19.2019C89.7288 24.1058 92.4815 27.0346 97.058 27.0346ZM97.058 24.1739C94.6494 24.1739 93.273 22.369 93.273 19.2019C93.273 16.0688 94.6494 14.2298 97.058 14.2298C99.4323 14.2298 100.843 16.0688 100.843 19.2019C100.809 22.369 99.4323 24.1739 97.058 24.1739ZM106.417 26.7281H109.858V17.9759C109.858 15.7623 111.166 14.366 113.196 14.366C115.295 14.366 116.259 15.5239 116.259 17.8056V26.7281H119.7V16.9883C119.7 13.3784 117.842 11.3692 114.469 11.3692C112.198 11.3692 110.684 12.3908 109.962 14.0936H109.721V11.6757H106.383C106.418 11.6757 106.417 26.7281 106.417 26.7281Z" fill="white"/>
<path fill-rule="evenodd" clip-rule="evenodd" d="M5.6027 5.60311C6.6042 6.41105 6.96645 6.34727 8.8416 6.2197L26.5064 5.15662C26.8899 5.15662 26.5703 4.77391 26.4425 4.73138L23.5019 2.62649C22.9479 2.20125 22.1808 1.69097 20.7531 1.81854L3.66363 3.07298C3.04568 3.13676 2.91783 3.45569 3.17353 3.68957L5.6027 5.60311ZM6.66813 9.7066V28.2467C6.66813 29.246 7.15823 29.6075 8.28758 29.5437L27.6997 28.4168C28.829 28.353 28.9569 27.6727 28.9569 26.8647V8.45216C28.9569 7.64422 28.6372 7.19773 27.9554 7.26151L7.66963 8.45216C6.92383 8.51595 6.66813 8.89866 6.66813 9.7066ZM25.8245 10.7059C25.9524 11.2587 25.8245 11.8328 25.2705 11.8965L24.3329 12.0879V25.7804C23.5232 26.2056 22.7774 26.4607 22.1381 26.4607C21.1366 26.4607 20.8809 26.1418 20.1351 25.2063L14.0196 15.6173V24.8874L15.9587 25.3126C15.9587 25.3126 15.9587 26.4395 14.4031 26.4395L10.0988 26.6946C9.97096 26.4395 10.0988 25.8229 10.525 25.6953L11.6543 25.3764V13.1297L10.0988 13.0021C9.97096 12.4493 10.2906 11.6414 11.1642 11.5776L15.7882 11.2587L22.1594 20.954V12.3856L20.54 12.1942C20.4121 11.5138 20.9235 11.0036 21.5415 10.9398L25.8245 10.7059ZM2.23595 1.37205L20.0286 0.0750916C22.2021 -0.116263 22.7774 0.0113072 24.1411 1.0106L29.8092 4.98652C30.7468 5.66689 31.0664 5.85825 31.0664 6.60241V28.4381C31.0664 29.7988 30.5763 30.6068 28.829 30.7343L8.18104 31.9888C6.85991 32.0525 6.24196 31.8612 5.56009 30.9895L1.3623 25.5678C0.616503 24.5685 0.296875 23.8243 0.296875 22.9526V3.54073C0.296875 2.41387 0.80828 1.49962 2.23595 1.37205Z" fill="white"/>
</svg>
