<svg width="991" height="773" viewBox="0 0 991 773" fill="none" xmlns="http://www.w3.org/2000/svg">
<g opacity="0.5">
<mask id="mask0_70_3417" style="mask-type:alpha" maskUnits="userSpaceOnUse" x="0" y="0" width="991" height="991">
<rect width="991" height="991" fill="url(#paint0_radial_70_3417)"/>
</mask>
<g mask="url(#mask0_70_3417)">
<g opacity="0.25">
<rect x="0.5" y="0.5" width="99" height="99" stroke="white"/>
<rect x="99.5" y="0.5" width="99" height="99" stroke="white"/>
<rect x="198.5" y="0.5" width="99" height="99" stroke="white"/>
<rect x="297.5" y="0.5" width="99" height="99" stroke="white"/>
<rect x="396.5" y="0.5" width="99" height="99" stroke="white"/>
<rect x="495.5" y="0.5" width="99" height="99" stroke="white"/>
<rect x="594.5" y="0.5" width="99" height="99" stroke="white"/>
<rect x="693.5" y="0.5" width="99" height="99" stroke="white"/>
<rect x="792.5" y="0.5" width="99" height="99" stroke="white"/>
<rect x="891.5" y="0.5" width="99" height="99" stroke="white"/>
<rect x="0.5" y="99.5" width="99" height="99" stroke="white"/>
<rect x="99.5" y="99.5" width="99" height="99" stroke="white"/>
<rect x="198.5" y="99.5" width="99" height="99" stroke="white"/>
<rect x="297.5" y="99.5" width="99" height="99" stroke="white"/>
<rect x="396.5" y="99.5" width="99" height="99" stroke="white"/>
<rect x="495.5" y="99.5" width="99" height="99" stroke="white"/>
<rect x="594.5" y="99.5" width="99" height="99" stroke="white"/>
<rect x="693.5" y="99.5" width="99" height="99" stroke="white"/>
<rect x="792.5" y="99.5" width="99" height="99" stroke="white"/>
<rect x="891.5" y="99.5" width="99" height="99" stroke="white"/>
<rect x="0.5" y="198.5" width="99" height="99" stroke="white"/>
<rect x="99.5" y="198.5" width="99" height="99" stroke="white"/>
<rect x="198.5" y="198.5" width="99" height="99" stroke="white"/>
<rect x="297.5" y="198.5" width="99" height="99" stroke="white"/>
<rect x="396.5" y="198.5" width="99" height="99" stroke="white"/>
<rect x="495.5" y="198.5" width="99" height="99" stroke="white"/>
<rect x="594.5" y="198.5" width="99" height="99" stroke="white"/>
<rect x="693.5" y="198.5" width="99" height="99" stroke="white"/>
<rect x="792.5" y="198.5" width="99" height="99" stroke="white"/>
<rect x="891.5" y="198.5" width="99" height="99" stroke="white"/>
<rect x="0.5" y="297.5" width="99" height="99" stroke="white"/>
<rect x="99.5" y="297.5" width="99" height="99" stroke="white"/>
<rect x="198.5" y="297.5" width="99" height="99" stroke="white"/>
<rect x="297.5" y="297.5" width="99" height="99" stroke="white"/>
<rect x="396.5" y="297.5" width="99" height="99" stroke="white"/>
<rect x="495.5" y="297.5" width="99" height="99" stroke="white"/>
<rect x="594.5" y="297.5" width="99" height="99" stroke="white"/>
<rect x="693.5" y="297.5" width="99" height="99" stroke="white"/>
<rect x="792.5" y="297.5" width="99" height="99" stroke="white"/>
<rect x="891.5" y="297.5" width="99" height="99" stroke="white"/>
<rect x="0.5" y="396.5" width="99" height="99" stroke="white"/>
<rect x="99.5" y="396.5" width="99" height="99" stroke="white"/>
<rect x="198.5" y="396.5" width="99" height="99" stroke="white"/>
<rect x="297.5" y="396.5" width="99" height="99" stroke="white"/>
<rect x="396.5" y="396.5" width="99" height="99" stroke="white"/>
<rect x="495.5" y="396.5" width="99" height="99" stroke="white"/>
<rect x="594.5" y="396.5" width="99" height="99" stroke="white"/>
<rect x="693.5" y="396.5" width="99" height="99" stroke="white"/>
<rect x="792.5" y="396.5" width="99" height="99" stroke="white"/>
<rect x="891.5" y="396.5" width="99" height="99" stroke="white"/>
<rect x="0.5" y="495.5" width="99" height="99" stroke="white"/>
<rect x="99.5" y="495.5" width="99" height="99" stroke="white"/>
<rect x="198.5" y="495.5" width="99" height="99" stroke="white"/>
<rect x="297.5" y="495.5" width="99" height="99" stroke="white"/>
<rect x="396.5" y="495.5" width="99" height="99" stroke="white"/>
<rect x="495.5" y="495.5" width="99" height="99" stroke="white"/>
<rect x="594.5" y="495.5" width="99" height="99" stroke="white"/>
<rect x="693.5" y="495.5" width="99" height="99" stroke="white"/>
<rect x="792.5" y="495.5" width="99" height="99" stroke="white"/>
<rect x="891.5" y="495.5" width="99" height="99" stroke="white"/>
<rect x="0.5" y="594.5" width="99" height="99" stroke="white"/>
<rect x="99.5" y="594.5" width="99" height="99" stroke="white"/>
<rect x="198.5" y="594.5" width="99" height="99" stroke="white"/>
<rect x="297.5" y="594.5" width="99" height="99" stroke="white"/>
<rect x="396.5" y="594.5" width="99" height="99" stroke="white"/>
<rect x="495.5" y="594.5" width="99" height="99" stroke="white"/>
<rect x="594.5" y="594.5" width="99" height="99" stroke="white"/>
<rect x="693.5" y="594.5" width="99" height="99" stroke="white"/>
<rect x="792.5" y="594.5" width="99" height="99" stroke="white"/>
<rect x="891.5" y="594.5" width="99" height="99" stroke="white"/>
<rect x="0.5" y="693.5" width="99" height="99" stroke="white"/>
<rect x="99.5" y="693.5" width="99" height="99" stroke="white"/>
<rect x="198.5" y="693.5" width="99" height="99" stroke="white"/>
<rect x="297.5" y="693.5" width="99" height="99" stroke="white"/>
<rect x="396.5" y="693.5" width="99" height="99" stroke="white"/>
<rect x="495.5" y="693.5" width="99" height="99" stroke="white"/>
<rect x="594.5" y="693.5" width="99" height="99" stroke="white"/>
<rect x="693.5" y="693.5" width="99" height="99" stroke="white"/>
<rect x="792.5" y="693.5" width="99" height="99" stroke="white"/>
<rect x="891.5" y="693.5" width="99" height="99" stroke="white"/>
</g>
</g>
</g>
<defs>
<radialGradient id="paint0_radial_70_3417" cx="0" cy="0" r="1" gradientUnits="userSpaceOnUse" gradientTransform="translate(495.5 495.5) rotate(90) scale(495.5)">
<stop/>
<stop offset="1" stop-opacity="0"/>
</radialGradient>
</defs>
</svg>
