<svg xmlns="http://www.w3.org/2000/svg" fill="none" viewBox="0 0 137 30">
  <path fill="#fff" d="M40.974 7.076L35 22.848h1.553l1.553-4.302h6.93l1.554 4.302h1.553L42.169 7.076h-1.195zm3.585 10.037h-5.974l2.986-8.006 2.988 8.006z"/>
  <path fill="#fff" d="M57.224 17.47c-.717-.478-1.673-.956-3.107-1.315-1.195-.239-2.031-.597-2.39-.836-.358-.359-.597-.717-.597-1.195 0-.478.24-.956.597-1.314.478-.359 1.076-.598 2.032-.598.836 0 1.553.24 2.15.717.478.478.717.956.717 1.553v.12h1.434v-.12c0-.955-.358-1.792-1.075-2.509-.837-.716-1.793-.955-3.226-.955-1.195 0-2.27.358-2.987.955-.717.598-1.195 1.434-1.195 2.27 0 .956.358 1.673 1.075 2.151.597.478 1.673.837 3.107 1.195 1.075.239 1.911.597 2.39.956.358.358.597.836.597 1.314 0 .598-.24.956-.717 1.434-.478.358-1.195.597-2.15.597a4.125 4.125 0 01-2.151-.597 1.906 1.906 0 01-.956-1.673v-.12h-1.315v.12c0 .956.359 1.792 1.195 2.51.837.716 1.912 1.075 3.346 1.075 1.314 0 2.27-.359 3.106-.956.837-.598 1.195-1.434 1.195-2.39 0-1.075-.358-1.792-1.075-2.39z"/>
  <path fill="#fff" d="M68.336 17.47c-.717-.478-1.673-.956-3.107-1.315-1.195-.239-2.031-.597-2.39-.836-.358-.359-.597-.717-.597-1.195 0-.478.239-.956.597-1.314.478-.359 1.076-.598 2.032-.598.836 0 1.553.24 2.15.717.478.478.717.956.717 1.553v.12h1.434v-.12c0-.955-.358-1.792-1.075-2.509-.837-.716-1.793-.955-3.226-.955-1.195 0-2.27.358-2.987.955-.717.598-1.195 1.434-1.195 2.27 0 .956.358 1.673 1.075 2.151.597.478 1.673.837 3.107 1.195 1.075.239 1.911.597 2.39.956.358.358.597.836.597 1.314 0 .598-.24 1.075-.717 1.434-.478.358-1.195.597-2.151.597a4.125 4.125 0 01-2.15-.597 1.906 1.906 0 01-.957-1.673v-.12H60.57v.12c0 .956.359 1.792 1.195 2.51.836.716 1.912 1.075 3.345 1.075 1.315 0 2.27-.359 3.107-.956.836-.598 1.195-1.434 1.195-2.39 0-1.075-.359-1.792-1.075-2.39z"/>
  <path fill="#fff" d="M76.34 10.898c-1.433 0-2.508.598-3.584 1.673-.956 1.075-1.433 2.51-1.433 4.182v.478c0 1.673.478 2.987 1.433 4.062.956 1.076 2.151 1.673 3.704 1.673.956 0 1.793-.12 2.39-.358.717-.24 1.195-.598 1.673-1.076l.12-.12-.598-1.075-.12.12a4.298 4.298 0 01-1.433.956c-.598.239-1.195.358-2.032.358-1.075 0-1.911-.478-2.628-1.314-.717-.837-.956-1.912-.956-3.226v-.24H81v-1.194c0-1.553-.359-2.748-1.195-3.584-.837-.837-2.031-1.315-3.465-1.315zm-3.345 4.9c.12-1.076.478-1.912 1.076-2.51a2.942 2.942 0 012.27-1.075c.956 0 1.673.358 2.27.956.597.597.836 1.433.836 2.39v.238h-6.452z"/>
  <path fill="#fff" d="M88.17 21.533c-.24 0-.359 0-.598.12h-.716c-.479 0-.718-.12-.957-.478-.24-.24-.358-.837-.358-1.554v-7.408h2.51V10.9h-2.51V7.912h-1.553V10.9h-2.031v1.314h2.031v7.408c0 1.076.24 1.912.716 2.51.479.597 1.195.836 2.032.836.358 0 .597 0 .956-.12.359 0 .596-.12.836-.239h.12l-.478-1.075z"/>
  <path fill="#fff" d="M98.206 14.723a3.268 3.268 0 001.434-1.075c.477-.598.716-1.434.716-2.39 0-1.314-.477-2.39-1.434-3.107-.955-.716-2.15-1.075-3.823-1.075h-4.182v15.772h5.257c1.434 0 2.629-.359 3.586-1.195.955-.717 1.434-1.912 1.434-3.226 0-.956-.359-1.912-1.077-2.629-.597-.478-1.195-.836-1.91-1.075zm-6.332.478h4.42c1.314 0 2.27.358 2.868.956a2.94 2.94 0 011.075 2.27c0 1.075-.358 1.912-1.075 2.509-.717.598-1.793.956-2.988.956h-4.3V15.2zm6.571-1.673c-.717.478-1.673.836-3.107.836h-3.464V8.032h3.345c1.434 0 2.509.239 3.226.836.717.478 1.075 1.315 1.075 2.39 0 .956-.358 1.792-1.075 2.27z"/>
  <path fill="#fff" d="M108.003 10.78c-1.552 0-2.747.597-3.704 1.672-.955 1.075-1.434 2.51-1.434 4.182v.478c0 1.792.479 3.226 1.434 4.301.957 1.076 2.152 1.673 3.824 1.673 1.553 0 2.748-.597 3.705-1.673.955-1.075 1.432-2.509 1.432-4.301v-.478c0-1.673-.477-3.107-1.432-4.182-.957-1.075-2.152-1.673-3.825-1.673zm4.302 5.973v.478c0 1.434-.359 2.629-1.195 3.585-.716.956-1.793 1.434-3.107 1.434-1.314 0-2.389-.478-3.106-1.434a5.869 5.869 0 01-1.194-3.585v-.478c0-1.433.357-2.628 1.194-3.584.717-.956 1.792-1.434 3.106-1.434 1.314 0 2.271.478 3.107 1.434.836.956 1.195 2.15 1.195 3.584z"/>
  <path fill="#fff" d="M119.951 10.78c-1.553 0-2.748.597-3.703 1.672-.956 1.075-1.434 2.51-1.434 4.182v.478c0 1.792.478 3.226 1.434 4.301.955 1.076 2.15 1.673 3.823 1.673 1.553 0 2.748-.597 3.704-1.673.956-1.075 1.433-2.509 1.433-4.301v-.478c0-1.673-.477-3.107-1.433-4.182-.956-1.075-2.27-1.673-3.824-1.673zm4.302 5.973v.478c0 1.434-.359 2.629-1.195 3.585-.717.956-1.792 1.434-3.107 1.434-1.314 0-2.389-.478-3.105-1.434a5.863 5.863 0 01-1.195-3.585v-.478c0-1.433.357-2.628 1.195-3.584.716-.956 1.791-1.434 3.105-1.434 1.315 0 2.271.478 3.107 1.434a5.87 5.87 0 011.195 3.584z"/>
  <path fill="#fff" d="M130.585 16.395l5.138-5.138v-.239h-.956l-5.137 5.018h-1.195V6h-.837v16.847h.837v-5.855h1.314l5.497 5.855h.836l.119-.24-5.616-6.212z"/>
  <path fill="#fff" fill-rule="evenodd" d="M18.499 1.932a5 5 0 00-7.066.265L2.26 12.085a5 5 0 00.265 7.066l9.806 9.096a5 5 0 007.066-.265l9.172-9.888a5 5 0 00-.266-7.066L18.5 1.932zm-1.764 6.182a1.091 1.091 0 11-2.183 0 1.091 1.091 0 012.183 0zm-1.092 4.491a1.091 1.091 0 100-2.182 1.091 1.091 0 000 2.182zm-1.972-2.728a1.091 1.091 0 11-2.183 0 1.091 1.091 0 012.183 0zm-1.091 4.49a1.091 1.091 0 100-2.183 1.091 1.091 0 000 2.183zm-1.973-2.685a1.091 1.091 0 11-2.182 0 1.091 1.091 0 012.182 0zm-1.091 4.49a1.091 1.091 0 100-2.182 1.091 1.091 0 000 2.182zm-1.973-2.686a1.091 1.091 0 11-2.182 0 1.091 1.091 0 012.182 0zm-1.09 4.49a1.091 1.091 0 100-2.182 1.091 1.091 0 000 2.183zm13.387-8.1a1.091 1.091 0 11-2.182 0 1.091 1.091 0 012.182 0zm-1.091 4.49a1.091 1.091 0 100-2.181 1.091 1.091 0 000 2.182zm4.155-2.684a1.091 1.091 0 11-2.183 0 1.091 1.091 0 012.183 0zm-1.091 4.49a1.091 1.091 0 100-2.182 1.091 1.091 0 000 2.182zm4.155-2.686a1.091 1.091 0 11-2.183 0 1.091 1.091 0 012.183 0zm-1.092 4.49a1.091 1.091 0 100-2.182 1.091 1.091 0 000 2.183zm-8.561-2.811a.63.63 0 11-1.26 0 .63.63 0 011.26 0zM12.622 17.6a.63.63 0 100-1.26.63.63 0 000 1.26zm-2.477 1.174a.63.63 0 11-1.259 0 .63.63 0 011.26 0zm-3.693 2.392a.63.63 0 100-1.258.63.63 0 000 1.258zm12.884-4.196a.63.63 0 11-1.259 0 .63.63 0 011.26 0zm2.477 2.392a.63.63 0 100-1.259.63.63 0 000 1.26zm3.693 1.175a.63.63 0 11-1.26 0 .63.63 0 011.26 0zm-9.863-1.26a.336.336 0 100-.672.336.336 0 000 .672zm3.442 1.47a.336.336 0 11-.672 0 .336.336 0 01.672 0zm2.728 2.098a.336.336 0 100-.671.336.336 0 000 .671zm-11.961-.294a.336.336 0 11-.672 0 .336.336 0 01.672 0zm8.897 1.973a.336.336 0 100-.671.336.336 0 000 .671zm-5.792-3.818a.336.336 0 11-.671 0 .336.336 0 01.671 0zm-.377 3.818a.336.336 0 100-.671.336.336 0 000 .671zm3.441-2.141a.336.336 0 11-.671 0 .336.336 0 01.671 0zm-.378 3.777a.336.336 0 100-.671.336.336 0 000 .671zm.63-21.739a.63.63 0 11-1.26 0 .63.63 0 011.26 0zm-3.651 2.435a.63.63 0 100-1.259.63.63 0 000 1.26zm-2.477 1.175a.63.63 0 11-1.259 0 .63.63 0 011.26 0zm-3.693 2.433a.63.63 0 100-1.259.63.63 0 000 1.26zm12.926-4.237a.63.63 0 11-1.259 0 .63.63 0 011.26 0zm2.435 2.433a.63.63 0 100-1.259.63.63 0 000 1.26zm3.651 1.175a.63.63 0 11-1.26 0 .63.63 0 011.26 0z" clip-rule="evenodd"/>
</svg>
