<svg fill="none" xmlns="http://www.w3.org/2000/svg" viewBox="0 0 2557 548">
    <defs/>
    <g clip-path="url(#clip0)">
        <path d="M1.828 1.855V526.11H527.84V1.855H1.829zM124.2 447.563c-20.091-14.614-31.05-43.84-31.05-43.84-16.437-5.48-38.354-21.92-38.354-21.92s14.611-7.307 29.222-10.96c-5.479-27.4 1.827-65.76 1.827-65.76s5.48 34.706 21.917 62.106c20.091-3.653 38.355-5.48 38.355-5.48s-10.959 14.614-16.438 32.88c12.785 12.787 36.529 25.574 45.661 29.227-20.091-1.827-42.008-5.48-51.14-7.307-1.827 9.134-1.827 21.92 0 31.054zm52.966-162.574c-10.958-23.746-18.264-54.8-18.264-54.8s-27.396 16.44-71.23 58.454c25.569-49.32 54.792-78.547 54.792-78.547s-10.958-12.787-51.14-16.44c38.355-12.787 80.363-9.133 80.363-9.133s18.264-16.441 49.313-23.747c0 0-9.132 10.96-14.611 27.4 43.834 5.48 85.842 31.053 85.842 31.053s-69.404-10.96-96.801-1.826c-9.132 23.746-14.611 51.146-18.264 67.586zm100.454 137c0 7.307 3.653 14.614 3.653 14.614s-7.306 1.826-23.744 1.826c-23.744 12.787-52.966 18.267-52.966 18.267s18.264-12.787 27.396-21.92c-14.611-1.827-27.396-9.133-27.396-9.133s25.57-1.827 43.834-5.48c9.132-9.134 25.57-31.054 25.57-31.054s1.826 12.787 3.653 21.92c21.917-10.96 38.355-23.746 38.355-23.746s-18.265 18.266-38.355 34.706zM445.65 116.936c1.827 36.533-5.479 80.373-18.264 115.08 0-21.92-1.827-63.934-16.438-91.334-10.959 7.307-38.355 21.92-76.71 40.187 5.479-5.48 31.049-36.533 38.355-49.32-27.396 0-73.057 3.653-111.412 12.787 25.57-14.614 76.71-31.054 116.891-38.36-18.264-14.614-51.14-32.88-76.71-45.667 20.091 0 100.454 14.613 126.024 36.533 18.264-5.48 42.008-5.48 42.008-5.48-5.48 10.96-12.785 20.094-23.744 25.574z" fill="url(#paint0_linear)"/>
        <path d="M778.063 266.304c23.744-5.48 36.529-23.747 36.529-42.013 0-18.267-18.265-42.014-60.272-42.014h-91.322s1.827 51.147 1.827 93.16c0 42.014-1.827 94.987-1.827 94.987s54.793 1.827 89.495 1.827c34.702 0 71.231-16.44 71.231-52.974 0-38.36-36.529-49.32-45.661-52.973zm-38.355 80.373h-31.049s-1.827-43.84-1.827-73.066c0-29.227 1.827-69.414 1.827-69.414 12.785 0 60.272-7.306 60.272 25.574s-40.181 27.4-40.181 27.4l-9.133 25.573h20.091c9.132 0 40.182 5.48 40.182 31.053-1.827 27.4-23.744 32.88-40.182 32.88zM2136.92 266.304c23.75-5.48 36.53-23.747 36.53-42.013 0-18.267-18.26-42.014-60.27-42.014h-91.32s1.83 51.147 1.83 93.16c0 42.014-1.83 94.987-1.83 94.987s54.79 1.827 89.49 1.827c34.71 0 71.24-16.44 71.24-52.974 0-38.36-38.36-49.32-45.67-52.973zm-38.35 80.373h-31.05s-1.83-43.84-1.83-73.066c0-29.227 1.83-69.414 1.83-69.414 12.79 0 60.27-7.306 60.27 25.574s-40.18 27.4-40.18 27.4l-9.13 27.4h20.09c9.13 0 40.18 5.48 40.18 31.053-1.83 25.573-23.74 31.053-40.18 31.053zM869.382 180.492s3.653 60.28 3.653 82.2-3.653 105.947-3.653 105.947h40.181s-1.826-56.627-1.826-80.373v-56.627s3.653 12.787 20.091 38.36c14.611 25.573 62.098 100.467 62.098 100.467h32.874s-3.65-43.84-3.65-94.987c0-51.147 3.65-93.16 3.65-93.16h-42.006l3.653 116.907-71.231-116.907-43.834-1.827zM1154.31 180.492h-73.06s1.83 51.147 1.83 94.987c0 43.84-1.83 94.987-1.83 94.987h49.31s-3.65-38.36-3.65-76.72c18.26 0 109.59 9.133 109.59-56.627-1.83-14.613-3.66-56.627-82.19-56.627zm-27.4 87.68v-63.933s65.75-7.307 65.75 29.227c-1.83 42.013-65.75 34.706-65.75 34.706zM1413.65 180.492h-73.05s1.82 51.147 1.82 94.987c0 43.84-1.82 94.987-1.82 94.987h49.31s-3.65-38.36-3.65-76.72c18.26 0 109.58 9.133 109.58-56.627 0-14.613-3.65-56.627-82.19-56.627zm-27.39 87.68v-63.933s65.75-7.307 65.75 29.227c0 42.013-65.75 34.706-65.75 34.706zM1605.44 180.492h-34.71s-27.39 73.067-76.71 188.147h42.01l12.79-45.667h67.57l16.44 45.667h49.32l-76.71-188.147zm-45.67 118.734l25.57-62.107 25.57 62.107h-51.14zM2314.09 180.492h-34.71s-27.39 73.067-76.71 188.147h42.01l12.79-45.667h67.58l16.43 45.667h49.32l-76.71-188.147zm-45.66 118.734l25.57-62.107 25.57 62.107h-51.14zM1713.2 180.467s3.65 34.707 3.65 85.854c0 51.146-3.65 102.293-3.65 102.293h47.48s-3.65-51.147-3.65-94.987c0-43.84 3.65-71.24 3.65-71.24s62.1-9.133 62.1 29.227c0 40.187-49.31 34.707-49.31 34.707l54.79 100.466h52.97l-52.97-84.026s40.18-7.307 40.18-51.147c0-42.013-51.14-52.973-76.71-52.973-25.57 1.826-78.53 1.826-78.53 1.826zM1915.92 180.467s3.65 29.227 3.65 87.68c0 58.454-3.65 100.467-3.65 100.467h49.32s-3.66-45.667-3.66-102.293c0-56.627 3.66-87.68 3.66-87.68l-49.32 1.826zM2542.39 182.307S2516.82 175 2489.43 175c-27.4 0-73.06 10.96-73.06 54.8 0 34.707 36.53 51.147 51.14 56.627 12.79 5.48 47.49 16.44 49.31 36.533 0 16.44-16.43 21.92-34.7 20.093-16.44 0-43.83-10.96-62.1-21.92v42.014s32.88 9.133 60.28 9.133c27.39 0 78.53-9.133 78.53-58.453 0-34.707-31.05-49.32-60.27-62.107-25.57-10.96-40.18-18.267-40.18-32.88 0-14.613 18.26-14.613 27.39-14.613 9.14 0 25.57 0 58.45 18.266-1.83-14.613-1.83-40.186-1.83-40.186z" fill="#000"/>
    </g>
    <defs>
        <linearGradient id="paint0_linear" x1="264.834" y1="1.855" x2="264.834" y2="526.109" gradientUnits="userSpaceOnUse">
            <stop stop-color="#82DCB4"/>
            <stop offset=".403" stop-color="#146444"/>
            <stop offset=".757" stop-color="#187F52"/>
            <stop offset="1" stop-color="#1FAA67"/>
        </linearGradient>
        <clipPath id="clip0">
            <path fill="#fff" d="M0 0h2557v548H0z"/>
        </clipPath>
    </defs>
</svg>
