<svg xmlns="http://www.w3.org/2000/svg" fill="none" viewBox="0 0 168 43"><path fill="#fff" fill-rule="evenodd" d="M113.18 9.105c-6.278 0-10.645 5.506-10.645 12.81 0 3.376 1.504 5.872 4.553 5.872 3.008 0 4.99-2.568 6.459-5.285h.072c-.25 1.082-.414 2.197-.553 3.313l-.082.706-.046.41-.012.083-.018.14-.006.041-.017.153h3.744c0-.27.035-.825.121-1.66.053-.498.123-1.094.215-1.791a92.52 92.52 0 0 1 .242-1.698c.15-.986.336-2.11.561-3.367L121.033.66c-.01 0-3.789.098-4.195 2.219l-.307 1.666-.855 4.853-.117-.027c-.469-.11-1.129-.266-2.379-.266Zm-.368 2.973a9.76 9.76 0 0 1 1.602.137c.311.053.559.111.711.158l-.221 1.357c-.99 6.13-3.89 10.717-6.605 10.717-1.322 0-1.836-1.285-1.836-3.156 0-5.139 2.642-9.213 6.349-9.213Z" clip-rule="evenodd"/><path fill="#fff" d="m58.522.668-3.393 18.789-.125.752c-.035.225-.07.453-.098.686l-.033.34-.017.298-.008.31c0 .825.129 1.468.37 1.936.196.38.467.643.805.8l-.517 3.146-.14.335c-1.434-.033-2.532-.636-3.25-1.693-.651-.953-.991-2.273-.991-3.875 0-.98.078-1.933.22-2.857 0 0 2.735-15.576 2.965-16.785C54.75.566 58.522.668 58.522.668Z"/><path fill="#fff" fill-rule="evenodd" d="M138.264 13.258c0 4.404-5.213 6.277-11.159 7.01v.22c0 2.57 1.028 3.89 3.084 3.89 1.946 0 3.524-1.026 4.588-1.982l1.725 2.534c-.578.511-1.334 1.1-2.303 1.59-1.183.597-2.683 1.052-4.56 1.052-4.295 0-6.387-2.935-6.387-6.789 0-6.681 4.439-11.892 9.91-11.892 3.047 0 5.102 1.54 5.102 4.367Zm-3.78.441c0-1.139-.625-1.69-1.947-1.69-2.127 0-4.367 2.056-5.137 5.69 4.147-.588 7.084-1.799 7.084-4Z" clip-rule="evenodd"/><path fill="#fff" d="M145.051 27.332h-3.492s1.048-7.094 2.447-13.377c1.484-6.576 8.842-4.916 9.295-4.26.002.06-.822 3.15-.821 3.121l-.183-.076c-1.119-.465-4.168-1.732-5.115 2.998l-.942 5.143-1.189 6.451ZM159.914 27.793c4.219 0 6.422-2.092 6.422-5.03 0-2.23-1.195-3.47-2.961-5.302l-.197-.201c-.178-.19-.348-.366-.51-.532-1.16-1.203-1.84-1.906-1.84-2.808 0-.537.184-.96.514-1.26.39-.355.988-.539 1.726-.539.536 0 1.01.08 1.424.2.75.216 1.305.568 1.66.827l1.762-2.568c-1.064-.846-2.607-1.469-4.771-1.469-3.707 0-5.983 1.946-5.983 4.881 0 1.027.276 1.863.742 2.645.453.756 1.086 1.46 1.827 2.236.234.246.457.475.667.69 1.278 1.308 2.086 2.134 2.086 3.2 0 .467-.13.874-.384 1.198-.409.518-1.133.822-2.149.822a5.732 5.732 0 0 1-1.461-.183 5.698 5.698 0 0 1-.734-.248c-.68-.286-1.234-.672-1.695-1.038l-1.762 2.643c.881.734 2.68 1.836 5.617 1.836ZM85.352 27.352h-3.819l3.229-17.764h3.672c-.147 1.102-.588 3.377-.956 4.846h.075c1.21-2.166 3.228-5.323 6.9-5.323 3.047 0 4.367 2.46 3.633 6.46L95.92 27.35h-3.78l2.018-11.523c.404-2.275-.035-3.305-1.394-3.305-2.35 0-5.467 3.38-7.12 13.104l-.292 1.725Z"/><path fill="#fff" fill-rule="evenodd" d="M47.824 13.479c0 4.404-5.213 6.277-11.158 7.01v.22c0 1.457.33 2.514.992 3.154.506.489 1.203.737 2.092.737 1.945 0 3.523-1.028 4.588-1.983l1.724 2.533c-1.285 1.14-3.45 2.643-6.863 2.643-4.295 0-6.386-2.936-6.386-6.79 0-6.68 4.44-11.892 9.91-11.892 3.045 0 5.101 1.541 5.101 4.367Zm-5.726-1.248c-2.13 0-4.367 2.054-5.137 5.689 4.146-.588 7.082-1.799 7.082-4 0-1.139-.623-1.69-1.945-1.69ZM72.033 9.486c-6.586 0-10.746 5.79-10.746 12.844 0 3.4 1.629 5.57 4.414 5.57 3.04 0 4.776-2.459 6.188-5.209h.07c-.361 1.555-.578 3.184-.723 4.776h3.692c0-.725.92-8.01 1.836-12.455l.035-.213.027-.149.028-.154c.415-2.277.918-5.037-4.82-5.01Zm-.652 3.002c1.918.172 1.846 1.557 1.846 1.557-.833 5.934-3.692 10.564-6.188 10.564-1.266 0-1.88-.941-1.88-2.894 0-5.067 2.605-9.227 6.222-9.227Z" clip-rule="evenodd"/><path fill="#fff" d="M19.29 16.164c-.061-2.98-1.46-5.6-2.86-6.799-.157-.133-.178.086-.227.535-.156 1.489-.58 5.506-6.908 7.776-.777.326-1.555.6-2.297.861l-.03.012c-1.357.478-2.597.916-3.511 1.549-.574.398-1.02.873-1.283 1.486a3.36 3.36 0 0 0-.26 1.14c-.101 1.682 1.479 4.172 5.162 4.739 5.463.84 12.371-3.535 12.213-11.299ZM7.852 7.87c-2.7.116-6 1.845-6.973 7.151-.176.829-.293 1.75-.34 2.774l.354-.299.347-.27c.219-.163.442-.32.666-.468.684-.455 1.39-.842 2.098-1.18 1.117-.533 2.232-.947 3.25-1.324 2.365-.879 4.209-1.564 4.334-3.1.066-.209.098-.433.086-.681-.067-1.575-1.791-2.608-3.611-2.608l-.211.004ZM123.912 42.66c-2.445 0-3.785-1.847-3.785-3.83 0-2.014 1.406-3.807 3.873-3.807.977 0 1.75.2 2.381.674l-.586.932-.168-.115-.059-.037a2.636 2.636 0 0 0-.63-.291 3.29 3.29 0 0 0-.958-.123c-1.74 0-2.535 1.24-2.535 2.724 0 .791.211 1.535.66 2.065.227.267.514.48.866.615.207.078.433.13.685.152.086.008.176.012.268.012.642 0 1.183-.143 1.527-.365v-1.727h-1.461v-.996h2.68v3.389l-.045.029c-.27.18-1.055.7-2.713.7Z"/><path fill="#fff" fill-rule="evenodd" d="m135.293 42.53-1.406-2.093c-.699-1.03-.83-1.107-1.252-1.107h-.1v3.2h-1.25v-7.374h2.248c1.649 0 2.6.73 2.6 2.05 0 1.216-.852 1.835-1.871 1.958v.021c.039.028.08.061.125.104.064.06.136.14.222.244.125.154.278.364.473.649l1.615 2.347h-1.404Zm-1.859-6.39h-.899v2.26h.963c.492 0 .846-.109 1.072-.316.211-.193.313-.47.313-.824 0-.174-.026-.328-.078-.463a.865.865 0 0 0-.323-.406c-.236-.166-.584-.25-1.048-.25ZM143.881 42.66c-2.381 0-3.742-1.803-3.742-3.806 0-2.016 1.328-3.83 3.707-3.83 2.39 0 3.732 1.792 3.732 3.796 0 .502-.082.992-.242 1.446a3.602 3.602 0 0 1-1.098 1.6c-.209.171-.441.32-.695.44a3.834 3.834 0 0 1-1.662.354Zm0-6.619c-1.606 0-2.424 1.274-2.424 2.78 0 1.505.795 2.822 2.389 2.822 1.617 0 2.414-1.295 2.414-2.79 0-1.505-.776-2.812-2.379-2.812Z" clip-rule="evenodd"/><path fill="#fff" d="M154.83 42.662c-2.082 0-3.012-1.107-3.012-2.945v-4.56h1.252v4.439c0 1.373.53 2.025 1.793 2.025.658 0 1.116-.228 1.393-.627.226-.324.334-.76.334-1.277v-4.56h1.162v4.46c0 1.916-.953 3.045-2.922 3.045Z"/><path fill="#fff" fill-rule="evenodd" d="M164.557 39.75h-.762v2.78h-1.252v-7.374h2.158c.848 0 1.584.219 2.076.664.409.367.649.89.649 1.573 0 1.539-1.084 2.357-2.869 2.357Zm.047-3.61h-.809v2.626h.773c1.12 0 1.594-.453 1.594-1.34 0-.428-.127-.766-.418-.989-.25-.19-.623-.296-1.14-.296Z" clip-rule="evenodd"/></svg>