<svg width="102" height="34" viewBox="0 0 102 34" fill="none" xmlns="http://www.w3.org/2000/svg">
<path fill-rule="evenodd" clip-rule="evenodd" d="M87.9682 12.4129C87.4782 11.5369 86.836 10.8675 86.0429 10.4084C85.2486 9.9494 84.3936 9.7205 83.4755 9.7205C82.5562 9.7205 81.7012 9.94445 80.908 10.3936C80.1149 10.8415 79.4728 11.4998 78.9828 12.3659C78.4916 13.232 78.2466 14.2602 78.2466 15.4505C78.2466 16.6396 78.4916 17.6839 78.9828 18.5809C79.4728 19.478 80.1199 20.1622 80.9229 20.6312C81.7272 21.1013 82.5772 21.3352 83.4755 21.3352C84.3936 21.3352 85.2486 21.1063 86.0429 20.6472C86.836 20.1882 87.4782 19.5151 87.9682 18.6279C88.4582 17.7408 88.7044 16.7014 88.7044 15.5124C88.7044 14.3221 88.4582 13.2889 87.9682 12.4129M75.6632 10.8463C76.3833 9.51124 77.3645 8.47313 78.6068 7.73198C79.849 6.99082 81.2212 6.61963 82.7233 6.61963C84.0807 6.61963 85.2648 6.88689 86.2781 7.41894C87.2903 7.95098 88.0982 8.61418 88.7045 9.40731V6.90174H92.3051V24.1537H88.7045V21.5862C88.0982 22.4004 87.2742 23.0797 86.2311 23.6216C85.1868 24.1648 83.9965 24.4358 82.6615 24.4358C81.1791 24.4358 79.823 24.0547 78.5907 23.2925C77.3595 22.5315 76.3833 21.4662 75.6632 20.099C74.9431 18.7317 74.583 17.1826 74.583 15.4504C74.583 13.7169 74.9431 12.1826 75.6632 10.8463" fill="black"/>
<mask id="mask0_5054_1690" style="mask-type:alpha" maskUnits="userSpaceOnUse" x="0" y="-1" width="93" height="31">
<path fill-rule="evenodd" clip-rule="evenodd" d="M0 29.9998H92.3051V-0.000244141H0V29.9998Z" fill="white"/>
</mask>
<g mask="url(#mask0_5054_1690)">
<path fill-rule="evenodd" clip-rule="evenodd" d="M28.5225 24.1089H32.0922V6.85696H28.5225V24.1089ZM28.711 3.91339C28.273 3.47538 28.0527 2.93344 28.0527 2.28508C28.0527 1.6392 28.273 1.09602 28.711 0.658009C29.149 0.218761 29.6922 -0.000244141 30.3393 -0.000244141C30.9654 -0.000244141 31.4974 0.218761 31.9354 0.658009C32.3734 1.09602 32.5937 1.6392 32.5937 2.28508C32.5937 2.93344 32.3734 3.47538 31.9354 3.91339C31.4974 4.35264 30.9654 4.57041 30.3393 4.57041C29.6922 4.57041 29.149 4.35264 28.711 3.91339V3.91339Z" fill="black"/>
<path fill-rule="evenodd" clip-rule="evenodd" d="M46.5964 20.6331C47.3994 20.1951 48.0527 19.5368 48.5539 18.6608C49.0537 17.7835 49.3049 16.7195 49.3049 15.4673C49.3049 14.2151 49.0649 13.156 48.5848 12.2886C48.1047 11.4237 47.4675 10.7704 46.6744 10.3324C45.8812 9.89441 45.025 9.67541 44.1069 9.67541C43.1888 9.67541 42.3388 9.89441 41.5556 10.3324C40.7724 10.7704 40.1512 11.4237 39.6922 12.2886C39.2331 13.156 39.0042 14.2151 39.0042 15.4673C39.0042 17.3257 39.4781 18.7598 40.4284 19.7719C41.3774 20.7853 42.5727 21.2901 44.0129 21.2901C44.9322 21.2901 45.7922 21.0711 46.5964 20.6331M39.5978 23.2785C38.2837 22.5386 37.2506 21.4943 36.4983 20.1481C35.7472 18.8019 35.3711 17.2416 35.3711 15.4673C35.3711 13.714 35.7571 12.1587 36.5305 10.8014C37.3025 9.44528 38.3567 8.40223 39.6918 7.67097C41.0281 6.94095 42.5203 6.57471 44.1697 6.57471C45.8178 6.57471 47.3112 6.94095 48.6463 7.67097C49.9826 8.40223 51.0368 9.44528 51.8089 10.8014C52.5809 12.1587 52.9682 13.714 52.9682 15.4673C52.9682 17.2206 52.571 18.7759 51.7779 20.132C50.9848 21.4893 49.9046 22.5386 48.5374 23.2785C47.1702 24.0196 45.6619 24.3908 44.0125 24.3908C42.3854 24.3908 40.913 24.0196 39.5978 23.2785" fill="black"/>
<path fill-rule="evenodd" clip-rule="evenodd" d="M70.7499 9.92555C70.1437 8.81815 69.3035 7.9842 68.2295 7.42122C67.1568 6.85824 65.161 6.61696 63.8061 6.61572C62.45 6.61696 60.4555 6.85824 59.3815 7.42122C58.3075 7.9842 57.4686 8.81815 56.8611 9.92555C56.2572 11.0317 55.9541 12.368 55.9541 13.932V24.1089H59.4916V14.4653C59.4916 12.9211 59.8789 11.7357 60.651 10.9117C61.4206 10.0889 62.4735 9.67685 63.8061 9.67437C65.1375 9.67685 66.1904 10.0889 66.96 10.9117C67.7334 11.7357 68.1194 12.9211 68.1194 14.4653V24.1089H71.6569V13.932C71.6569 12.368 71.3538 11.0317 70.7499 9.92555" fill="black"/>
<path fill-rule="evenodd" clip-rule="evenodd" d="M23.8267 24.1082V3.81995V0.938232H18.4395V3.81995H20.2571V24.1082C20.2571 27.3611 22.8802 29.9991 26.1331 29.9991V26.4146C24.8599 26.4146 23.8267 25.3827 23.8267 24.1082" fill="black"/>
<path fill-rule="evenodd" clip-rule="evenodd" d="M5.291 10.7546C6.16702 9.97257 7.22122 9.58034 8.45358 9.58034C9.80968 9.58034 10.9468 9.97752 11.8661 10.7706C12.7842 11.5638 13.2544 12.618 13.2754 13.9332H3.72579C3.89283 12.5969 4.41498 11.5378 5.291 10.7546V10.7546ZM12.391 19.4777C11.5756 20.7472 10.316 21.3844 8.60974 21.3844C7.27468 21.3844 6.14624 20.9674 5.22815 20.1322C4.31006 19.297 3.79905 18.1909 3.69388 16.8125H16.8763C16.9592 16.2916 17.0012 15.7076 17.0012 15.0592C17.0012 13.3901 16.6461 11.914 15.9371 10.6296C15.2269 9.34531 14.2358 8.34926 12.9626 7.63904C11.6882 6.93006 10.2381 6.57495 8.60974 6.57495C6.91957 6.57495 5.42118 6.93996 4.11704 7.67121C2.81291 8.40247 1.80079 9.44058 1.08067 10.7855C0.360548 12.133 0.000488281 13.6932 0.000488281 15.4676C0.000488281 17.2419 0.370446 18.8009 1.1116 20.1483C1.85275 21.4945 2.87478 22.5376 4.18015 23.2787C5.48428 24.0199 6.96164 24.3911 8.60974 24.3911C10.634 24.3911 12.3304 23.8838 13.6976 22.8717C14.5563 22.2357 15.2294 21.4735 15.754 20.6111L12.391 19.4777Z" fill="black"/>
</g>
</svg>
