<svg width="140" height="30" viewBox="0 0 140 30" fill="none" xmlns="http://www.w3.org/2000/svg">
<g clip-path="url(#clip0)">
<path d="M24.9 0.599976C24.9 2.29998 24.9 4.09998 24.9 5.79998C18.9 5.79998 12.9 5.79998 7 5.79998C6.9 5.79998 6.2 5.89998 5.8 6.39998C5.1 6.99998 5.2 7.79998 5.2 7.89998C5.2 9.49998 5.2 11.1 5.2 12.7C11.8 12.7 18.3 12.7 24.9 12.7C24.9 14.5 24.9 16.3 24.9 18C18.3 18 11.7 18 5.1 18C5.1 19.6 5.1 21.3 5.1 22.9C5.1 23 5.1 23.6 5.6 24.1C6.1 24.6 6.7 24.7 6.9 24.7C12.9 24.7 18.8 24.7 24.8 24.7C24.8 26.4 24.8 28.2 24.8 29.9C18.7 29.9 12.7 29.9 6.6 29.9C6.1 29.8 3.6 29.5 1.8 27.4C0.100002 25.4 2.1e-06 23.1 2.1e-06 22.5C0 17.7 0 12.8 0 7.99998C0 7.49998 0 4.89998 2 2.79998C3.8 0.999976 5.9 0.699976 6.5 0.699976C12.6 0.599976 18.8 0.599976 24.9 0.599976Z" fill="white"/>
<path d="M92.5 0.599976C92.5 2.29998 92.5 4.09998 92.5 5.79998C86.5 5.79998 81.9 5.79998 75.9 5.79998C75.8 5.79998 75.1 5.89998 74.7 6.39998C74.1 6.99998 74.2 7.79998 74.2 7.89998C74.2 9.49998 74.2 11.1 74.2 12.7C80.8 12.7 85.9 12.7 92.5 12.7C92.5 14.5 92.5 16.3 92.5 18C85.9 18 80.7 18 74.1 18C74.1 19.6 74.1 28.2 74.1 29.9C72.4 29.9 70.8 29.9 69 29.9C69 25.1 69 12.9 69 8.09998C69 6.99998 69.3 4.69998 71 2.89998C72.3 1.49998 73.9 0.699976 75.5 0.699976C81.6 0.599976 86.4 0.599976 92.5 0.599976Z" fill="white"/>
<path d="M64.5 29.6C62.5 29.6 60.8 29.6 58.8 29.6C58.8 22.6 58.8 15.1 58.8 8.10002C58.8 7.90002 58.7 7.20002 58.1 6.60002C57.4 5.90002 56.5 6.00002 56.4 6.00002C54.5 6.00002 51.7 6.00002 49.8 6.00002C49.8 13.7 49.8 21.8 49.8 29.6C47.7 29.6 46.6 29.6 44.5 29.6C44.5 21.9 44.5 13.7 44.5 6.00002C42.6 6.00002 39.6 6.00002 37.7 6.00002C37.5 6.00002 36.8 6.10002 36.2 6.60002C35.6 7.20002 35.5 7.90002 35.5 8.10002C35.5 15.1 35.5 22.5 35.5 29.5C33.5 29.5 32 29.5 30 29.5C30 22.4 30 14.8 30 7.70002C30.1 7.10002 30.4 4.20002 33 2.00002C35.4 2.43187e-05 38 -0.0999756 38.7 -0.0999756C44.4 2.33129e-05 50 2.33129e-05 55.7 2.33129e-05C56.3 2.33129e-05 59.3 2.3365e-05 61.8 2.40002C64 4.50002 64.3 7.00002 64.4 7.70002C64.4 14.9 64.4 22.5 64.5 29.6Z" fill="white"/>
<path d="M102.7 0.599976H97.5V29.8H102.7V0.599976Z" fill="white"/>
<path d="M131.7 0.599976H107.1V5.79998H131.7V0.599976Z" fill="white"/>
<path d="M121.9 5H116.7V29.8H121.9V5Z" fill="white"/>
<path d="M137.1 5.8C135.5 5.8 134.2 4.5 134.2 2.9C134.2 1.3 135.5 0 137.1 0C138.7 0 140 1.3 140 2.9C140 4.5 138.7 5.8 137.1 5.8ZM137.1 0.4C135.7 0.4 134.6 1.5 134.6 2.9C134.6 4.3 135.7 5.4 137.1 5.4C138.5 5.4 139.6 4.3 139.6 2.9C139.6 1.5 138.5 0.4 137.1 0.4Z" fill="white"/>
<path d="M136.254 1.56952C136.451 1.53058 136.732 1.50891 137 1.50891C137.416 1.50891 137.684 1.58255 137.871 1.74692C138.024 1.87676 138.108 2.07584 138.108 2.30081C138.108 2.68593 137.858 2.94121 137.541 3.04515V3.05801C137.773 3.13605 137.912 3.34376 137.983 3.64661C138.082 4.05339 138.153 4.33457 138.216 4.44714H137.813C137.764 4.36487 137.697 4.114 137.612 3.75037C137.523 3.34799 137.362 3.19648 137.009 3.18362H136.643V4.44714H136.254V1.56952ZM136.643 2.89804H137.041C137.456 2.89804 137.72 2.6773 137.72 2.34415C137.72 1.96767 137.438 1.80312 137.027 1.79889C136.839 1.79889 136.706 1.81616 136.643 1.83342V2.89804Z" fill="white"/>
</g>
<defs>
<clipPath id="clip0">
<rect width="140" height="29.9" fill="white"/>
</clipPath>
</defs>
</svg>
