<svg fill="none" xmlns="http://www.w3.org/2000/svg" viewBox="0 0 969 173">
    <defs/>
    <path d="M481.583 148.088C199.967 148.088 0 165.385 0 165.385v7.608h498.19l5.533-24.913h-22.132l-.008.008zm36.671 0l-4.15 24.913H968.7v-7.616s-188.203-15.914-450.446-17.297z" fill="#FD3"/>
    <path d="M123.16 0L96.871 124.544h94.789l3.458-23.523h-65.034l6.224-28.371h58.81l4.849-24.913H141.15l5.533-23.523h65.741L215.882 0H123.16zm317.595 29.747c-37.362 0-51.894 20.065-58.118 48.436-6.232 28.371 8.299 49.127 38.054 49.127 35.287 0 51.893-20.064 58.118-48.436 5.54-28.363-4.15-49.127-38.054-49.127zm212.424 0c-37.362 0-51.202 20.065-57.434 48.436-6.225 28.371 7.615 49.127 36.671 49.127 29.754 0 47.052-14.531 55.359-35.979h-27.68c-3.458 8.999-9.682 15.223-22.831 15.223-16.606 0-17.997-14.531-15.223-28.371 2.767-14.532 10.375-28.364 26.988-28.364 13.141 0 16.607 8.991 15.915 19.373h26.981c2.082-23.53-8.999-39.445-38.746-39.445zm-97.563 2.082c-8.299 0-22.139 2.075-28.371 8.992l1.383-6.917h-26.981c-.691 6.225-27.679 139.068-27.679 139.068h26.296l11.066-54.66c5.54 8.307 20.072 9.69 26.297 9.69 26.289 0 38.745-25.598 43.594-49.128 4.834-24.214 0-47.052-25.605-47.052v.007zm200.659 0c-47.744-1.39-44.977 29.748-44.977 29.748h24.913s0-11.758 17.298-11.758c0 0 15.914-.7 13.84 10.374 0 0-.001 9.69-11.074 8.999 0 0-52.585-5.54-56.742 33.212 0 0-2.075 26.981 28.371 26.981 0 0 20.064-.692 29.754-10.374 0 0 2.767 6.224 11.074 6.224h15.223l4.841-17.997-2.075-1.376s-2.075.001-.691-4.841l9.682-47.744c3.458-21.455-39.437-21.455-39.437-21.455v.007zm-531.402 2.075l-13.148 58.81c-.692 2.767-2.075 8.999-1.384 14.532.692 13.148 16.607 19.373 25.605 19.373 12.457 0 20.756-3.459 26.981-8.3v6.225h26.995c.685-5.533 1.376-10.382 2.068-15.915l15.914-74.725h-26.98l-11.081 51.894c-3.451 13.14-13.141 15.915-19.365 15.915-11.765 0-12.457-4.849-10.382-13.84l11.765-54.66h-26.988v.691zm101.713 0c-1.384 6.916-17.99 90.64-17.99 90.64h28.371l9.691-47.053c1.383-6.224.691-11.765 4.833-17.298 2.774-4.15 10.382-5.533 15.231-6.224h13.141l5.54-20.065c-12.456 0-20.756 0-31.138 6.916v-6.916h-27.679zm493.348 0c-1.383 6.916-17.99 90.64-17.99 90.64h28.364l8.999-47.053c1.383-6.224 1.383-11.765 5.533-17.298 2.766-4.15 10.381-5.533 15.223-6.224h11.765l6.224-20.065c-12.456 0-20.756 0-31.137 6.916v-6.916h-26.981zM437.297 49.12c16.606 0 17.298 15.223 14.531 29.755-2.766 14.53-8.306 27.679-26.296 27.679-16.606 0-17.99-14.531-15.223-28.371 2.766-15.223 9.69-29.063 26.988-29.063zm105.862 3.465c12.457 0 15.915 11.758 13.149 25.598-2.767 13.84-10.382 25.605-24.214 25.605-14.532 0-15.915-13.149-13.84-25.605 2.766-12.457 10.374-25.598 24.913-25.598h-.008zm217.266 31.83s-4.15 24.906-24.214 24.906c0 0-11.074.691-11.074-8.3 0 0 0-11.765 16.607-13.84-.692 0 12.456-.691 18.681-2.766z" fill="#00991D"/>
</svg>
