<svg xmlns="http://www.w3.org/2000/svg" fill="none" viewBox="0 0 92 43"><path fill="#fff" d="m52.02 15.132-.1.102-.097-.104C46.67 9.507 40.325 7.624 35.915 7.034c-3.222-.43-5.474-.173-5.495-.17-5.626.4-11.81.16-18.389-.72-5.68-.76-10.023-1.79-11.534-2.172 6.556 5.147 29.137 9.56 29.37 9.604 13.45 2.279 17.708 7.426 17.75 7.478 1.147 1.18 2.307 1.862 3.441 2.014 2.164.288 3.534-1.472 3.55-1.49C64.57 10.9 66.584 9.658 66.895 9.517 69.152 7.445 86.668 1.859 91.958.204c-22.142 2.862-25.211 4.132-25.24 4.145-5.23 1.185-14.604 10.687-14.698 10.783ZM23.448 29.912v12.215h3.067V29.912h-3.067Zm-9.104 2.821h2.638v9.395h3.04v-9.395h2.652V29.92h-8.327v2.813h-.003Zm-7.192 9.395h3.088v-4.51l2.575-.006-.003-2.813h-2.569l-.003-2.058h3.308v-2.826l-6.396.002v12.21ZM36.136 42.204c-3.62 0-5.914-2.187-5.914-5.987 0-3.62 2.08-6.399 6.29-6.399 1.111 0 2.169.178 3.28.519l-.252.877a8.781 8.781 0 0 0-3.19-.61c-3.656 0-5.107 2.653-5.107 5.43 0 3.459 1.972 5.358 5.073 5.358a8.459 8.459 0 0 0 2.706-.414v-4.91h.969v5.483c-1.22.438-2.656.653-3.855.653ZM49.328 42.06l-4.66-5.826h-.233v5.825h-.97V29.962a45.28 45.28 0 0 1 2.58-.053c2.114 0 3.835.734 3.835 2.905 0 2.294-1.972 3.441-4.104 3.441.358.393.788.86 1.11 1.237l3.746 4.57h-1.304v-.003Zm-3.604-11.38c-.503 0-.877.018-1.291.052v4.715c.214.018.61.036 1.218.036 2.06 0 3.226-1.04 3.226-2.472.002-1.758-1.144-2.331-3.153-2.331ZM57.358 42.204c-3.567 0-5.288-2.455-5.288-6.077 0-4.085 2.528-6.309 5.574-6.309 3.567 0 5.287 2.454 5.287 6.076 0 4.089-2.527 6.31-5.573 6.31Zm.145-11.58c-2.347 0-4.393 1.918-4.393 5.27 0 3.227 1.452 5.484 4.392 5.484 2.347 0 4.393-1.899 4.393-5.27-.003-3.207-1.454-5.484-4.393-5.484ZM69.994 42.204c-3.727 0-4.374-2.114-4.374-4.086v-8.156h.969v8.03c0 1.828.629 3.423 3.494 3.423 2.401 0 3.62-1.003 3.62-3.8v-7.653h.95v7.546c0 3.03-1.54 4.696-4.66 4.696ZM80.91 37.13c-.736 0-1.38-.07-1.38-.07v5h-.969V29.961s1.506-.053 2.688-.053c2.616 0 4.051 1.399 4.051 3.334.003 2.365-1.754 3.887-4.39 3.887Zm.108-6.414c-.807 0-1.488.037-1.488.037V36.2s.7.126 1.525.126c2.187 0 3.227-1.166 3.227-2.886-.003-1.795-1.077-2.725-3.264-2.725Z"/></svg>