<svg fill="none" xmlns="http://www.w3.org/2000/svg" viewBox="0 0 140 27">
    <g clip-path="url(#a)" fill="#000">
        <path d="M63.008.975 79.43 7.602l.195.097-1.754 4.386h1.267l.097 1.364.341-.487c.877-1.218 2.583-1.12 3.46-.536.585.439.828 1.072.974 1.754l.098.975v5.604h-2.095v-5.263l-.098-.828c-.097-.488-.34-.829-.877-.926-.585-.098-1.218.146-1.413.633a3.27 3.27 0 0 0-.293 1.365v4.678c0 .438 0 .438-.438.438h-1.657v-6.968h-.097a3.385 3.385 0 0 0-.244.633l-1.608 3.947a1.237 1.237 0 0 1-.39.488c-.877.536-1.9.682-2.875.487-.974-.195-1.462-1.12-1.364-2.242h4.629c.244 0 .341-.048.341-.34 0-.829-.097-1.657-.292-2.437-.439-1.364-1.365-2.193-2.778-2.34-1.364-.145-2.485.39-3.216 1.56-.39.634-.682 1.365-.73 2.096-.147 1.12-.098 2.192.389 3.264a3.637 3.637 0 0 0 2.875 2.047c.828.146 1.608 0 2.437-.195l-2.437 5.945-14.521-5.847c.195-.05.34-.05.39-.147.097-.146.048-.292.048-.438v-4.776c0-.39.147-.828.293-1.17.195-.389.536-.584.974-.633.682-.097 1.17.342 1.218 1.17v5.652c0 .244.05.342.293.342h1.803v-5.312c0-.438.146-.877.341-1.218.195-.292.487-.487.877-.536.634-.098 1.072.195 1.218.926l.05.633v5.166c0 .292.096.34.34.34h1.51c.196 0 .244-.097.244-.243l-.048-5.848c0-.438-.147-.925-.244-1.315-.39-1.218-1.364-1.56-2.485-1.413-.78.048-1.365.487-1.803 1.023l-.195.244c-.926-1.755-3.362-1.755-4.386.097l-.048-.974c0-.244-.098-.293-.293-.293h-1.705l.926-2.241L60.718 0l2.29.975ZM.002 8.966h2.826c.293 0 .439.098.536.39L5.557 17.3l.195.341.097-.292 2.29-8.09c.05-.194.196-.292.39-.292h2.827V20.32c0 .293-.098.439-.39.39-.536-.049-.975 0-1.56 0v-9.697H9.31l-.78 2.534-2.046 6.822c-.098.195-.195.292-.39.292h-.975c-.194 0-.292-.097-.39-.292L2.78 13.644l-.682-2.436-.146-.146v9.648H.002V8.966Zm38.837 13.206.974.39c.78.292 1.56.39 2.388.195.731-.195 1.218-.585 1.365-1.365.146-.633.194-1.364.194-2.046l-.146-.05-.195.245c-.536.925-1.656 1.364-2.728 1.072-.975-.195-1.657-.878-1.998-1.755-.634-1.803-.634-3.654.195-5.457.584-1.267 1.9-1.755 3.264-1.413.536.146.975.487 1.267.925l.342.536.097-1.364h1.852l-.05.926-.048 7.163a8.12 8.12 0 0 1-.244 1.9c-.34 1.365-1.364 2.193-2.777 2.388-1.267.146-2.437 0-3.655-.39-.195-.097-.292-.146-.243-.39.097-.487.097-.974.146-1.51Zm4.922-5.75-.342-1.706c-.146-.487-.438-.877-.877-1.023-.828-.341-1.608.097-1.9 1.023-.244.926-.244 1.852-.098 2.827.098.438.244.877.488 1.267.195.438.633.584 1.12.487.634-.098 1.072-.488 1.267-1.072l.342-1.803Zm11.987 3.703-1.9-.73v.73c0 .098-.098.244-.196.244-1.17.487-2.436.633-3.654.34-1.023-.243-1.9-.925-2.29-1.9-.78-1.802-.683-3.605.292-5.31 1.023-1.755 3.118-1.901 4.483-1.17.975.536 1.364 1.413 1.608 2.485l.195.877 1.364-3.314h.049l.049 7.748Zm-6.432-3.118-.05.194v.39c.147.78.39 1.413 1.219 1.706.78.244 1.56.195 2.339-.049a.21.21 0 0 0 .195-.195l.682-1.705.098-.293-4.483-.048Zm2.972-1.316a2.975 2.975 0 0 0-.292-1.608c-.439-.829-1.511-.975-2.096-.293-.487.537-.584 1.17-.584 1.9h2.972Zm44.05-6.676h6.141v1.705h-3.996v3.168h3.46c.243 0 .341.097.292.292v1.365h-3.752v3.46h4.142v1.705l-.341.049H96.68c-.292 0-.341-.098-.341-.39V9.015Zm-72.654 4.434.293-.438c.828-1.17 2.387-1.218 3.362-.682.78.39.974 1.17 1.12 1.949l.05.926v5.555h-2.096v-5.117l-.098-1.023c-.146-.585-.438-.877-.877-.926-.633-.098-1.17.146-1.364.633a3.27 3.27 0 0 0-.292 1.365v5.068h-2.096v-8.625h1.852l.146 1.315Zm103.354 7.31h-1.9l-.195-.195v-4.922l-.098-1.023c-.146-.585-.389-.877-.877-.975-.584-.097-1.169.146-1.364.585a3.27 3.27 0 0 0-.293 1.364v5.117h-1.949c-.048 0-.146-.098-.146-.195v-7.358l-.049-1.072h1.901l.097 1.316.341-.488c.878-1.218 2.486-1.17 3.46-.584.731.438.975 1.218 1.023 1.997l.049 1.17v5.263Zm-90.1 0h-1.705l-.146-.195-.098-.975-.487.488c-.926.828-2.242 1.023-3.362.438-.975-.585-1.365-1.657-1.121-2.875a2.326 2.326 0 0 1 1.462-1.754c.974-.39 1.949-.487 2.923-.487h.488c.243-.975-.39-1.9-1.413-1.95-.829-.048-1.56.195-2.242.634l-.243.195-.147-1.51a.21.21 0 0 1 .195-.196c1.365-.584 2.68-.73 4.093-.34 1.024.292 1.657 1.12 1.706 2.387l.049 3.265.097 2.68c-.049-.049-.049.049-.049.195Zm-2.046-4.191c-.731-.049-1.462 0-2.096.244a1.448 1.448 0 0 0-.78 1.997c.196.488.634.683 1.17.732.634 0 1.17-.195 1.462-.78.292-.731.292-1.462.244-2.193Zm-17.055-1.12c.195-1.365-.634-2.145-1.998-1.95l-.975.244-.974.487-.098-1.51c0-.05.098-.195.195-.195 1.267-.585 2.68-.731 4.045-.342 1.023.244 1.559 1.024 1.705 2.047l.098 1.072v3.85l.097 1.656h-1.705l-.195-.243-.098-.877-.292.34c-.78.927-2.095 1.219-3.216.732-1.072-.439-1.706-1.608-1.51-2.778.194-1.364.925-2.047 2.484-2.339.682-.146 1.365-.146 2.096-.195h.34Zm.048 1.12c-.633-.146-1.754.049-2.339.341-.536.244-.682.682-.73 1.267 0 .487.194.926.584 1.218a1.434 1.434 0 0 0 1.998-.487c.049-.049.049-.098.098-.195.438-.73.39-1.413.39-2.144Zm100.236 2.193.097 1.364c0 .098-.097.244-.195.293-1.218.584-2.582.633-3.849.243-1.365-.438-2.096-1.462-2.437-2.826-.292-1.316-.195-2.583.341-3.8.829-1.804 2.729-2.584 4.532-1.804.975.439 1.511 1.316 1.706 2.34.195.681.195 1.412.195 2.095.048.243-.098.292-.293.292h-4.337c-.389 0-.438 0-.341.39l.244.974c.292.731.975.975 1.705.975 1.17.097 1.462 0 2.632-.536Zm-1.462-3.07c0-.585-.049-1.072-.244-1.56-.195-.438-.584-.73-1.072-.73-.584-.05-1.023.194-1.267.633-.195.439-.243.926-.39 1.364-.097.244.049.342.244.342h2.047l.682-.05Zm-9.6 3.021.585-2.339 1.072-4.044c.049-.195.146-.293.341-.244h1.706l-.098.438-2.436 7.943c-.098.195-.195.293-.439.293h-1.9c-.195 0-.244 0-.341-.195l-2.534-8.43.243-.05h1.56c.243 0 .341.098.39.293.536 2.047 1.023 4.045 1.608 6.043l.097.292h.146Zm26.411.487v1.365l-.195.195c-.828.292-1.705.34-2.485-.05-.779-.34-1.072-1.071-1.072-1.85l-.048-4.727v-.439h-1.365v-1.56h1.365v-1.412c0-.244.097-.39.341-.488l1.705-.536v2.437h1.121c.633 0 .633 0 .633.633v.877h-1.705v4.483c0 1.072.536 1.414 1.51 1.121l.195-.049Zm-46.78-5.604h-1.364v-1.51h1.365V10.33l2.095-.634v2.437h1.705v1.559h-1.705l-.049.341v4.288c.049.926.536 1.267 1.365 1.024l.34-.098v1.364a.21.21 0 0 1-.194.195c-.829.293-1.706.341-2.485-.048-.926-.439-1.121-1.267-1.121-2.144v-4.483l.049-.537Zm47.755 5.214.828.293a4.106 4.106 0 0 0 1.706.195c.39-.049.78-.146.926-.585.146-.39 0-.73-.439-1.023l-1.364-.877-1.024-.731c-.974-.829-.974-2.144-.194-3.119a2.938 2.938 0 0 1 2.387-1.023c.682 0 1.365.195 2.047.292.097 0 .195.146.195.195l-.098 1.364a22.762 22.762 0 0 0-1.803-.243c-.195-.049-.487 0-.682.097-.585.195-.78.829-.341 1.316l.731.585c.633.438 1.316.828 1.9 1.315 1.219.878.878 2.68-.097 3.411-.731.536-1.608.829-2.534.731-.682-.048-1.364-.195-1.998-.292-.195-.049-.244-.146-.244-.341l.098-1.56Z"/>
        <path d="M73.631 15.642h-2.875c0-.682.146-1.364.585-1.851.585-.585 1.608-.488 1.998.243.243.439.39 1.072.292 1.608Z"/>
    </g>
    <defs>
        <clipPath id="a">
            <path fill="#fff" d="M0 0h140v27H0z"/>
        </clipPath>
    </defs>
</svg>
