<svg xmlns="http://www.w3.org/2000/svg" fill="none" viewBox="0 0 109 25"><g fill="#020D1C" clip-path="url(#a)"><path d="M32.404 15.352v.089c0 .486.181.619 1.085.708v.221c-.633-.088-.949-.088-1.266-.088-.316 0-.632 0-1.265.088v-.222c.904-.088.994-.176 1.084-.796l.317-6.371v-.133c0-.531-.226-.62-1.084-.709v-.264c.451.044.632.088.948.088.407 0 .678 0 1.085-.088l2.35 6.725 2.486-6.725c.588.044.814.088 1.13.088.225 0 .497 0 .904-.088v.266c-.859.088-1.084.22-1.084.708v.088l.135 6.371c0 .62.181.753 1.084.797v.266c-.723-.088-1.084-.088-1.49-.088-.408 0-.769.044-1.492.088v-.266c.813-.044 1.084-.22 1.084-.708v-.089l-.09-6.725-2.711 7.522h-.181l-2.667-7.522-.362 6.77v-.001ZM46.008 14.38c-.136 1.327-.95 2.08-2.17 2.08-1.672 0-2.53-1.062-2.53-3.053 0-1.947.948-3.185 2.44-3.185s2.26 1.016 2.26 2.92H42.12c0 1.991.587 2.92 1.763 2.92.949 0 1.49-.575 1.672-1.681h.452Zm-.813-1.68c-.091-1.417-.542-2.17-1.492-2.17-.86 0-1.447.798-1.582 2.17h3.074ZM47.002 10.483a6.672 6.672 0 0 0 1.536-.309l.09.709.046.486c.225-.708.813-1.195 1.491-1.195.633 0 1.084.399 1.084.93 0 .354-.225.619-.496.619-.27 0-.497-.177-.497-.399 0-.088 0-.088.045-.22v-.089c0-.177-.18-.31-.407-.31-.678 0-1.175.885-1.175 2.213v2.566c0 .487.18.62.95.62v.22c-.634-.088-.95-.088-1.357-.088-.361 0-.677 0-1.355.088v-.132c.813-.044.949-.134.949-.62v-4.114c0-.797 0-.797-.904-.797v-.177ZM55.996 12.078h-.225a3.362 3.362 0 0 0-.317-.885c-.27-.399-.723-.664-1.175-.664-.994 0-1.582 1.062-1.582 2.876 0 1.814.497 2.655 1.537 2.655.813 0 1.22-.53 1.401-1.681h.497c-.136 1.327-.859 2.035-1.943 2.035-1.446 0-2.395-1.195-2.395-3.053 0-1.902.949-3.186 2.44-3.186.497 0 .86.133 1.22.487l.317-.62h.225v2.036ZM61.918 14.38c-.135 1.327-.949 2.08-2.168 2.08-1.673 0-2.532-1.062-2.532-3.053 0-1.947.95-3.185 2.44-3.185 1.492 0 2.261 1.016 2.261 2.92h-3.887c0 1.991.587 2.92 1.762 2.92.95 0 1.491-.576 1.672-1.681h.452Zm-.768-1.68c-.09-1.418-.587-2.17-1.491-2.17-.86 0-1.446.797-1.582 2.17h3.073ZM68.651 16.192c-.859.09-1.084.134-1.536.31a4.366 4.366 0 0 1-.136-1.106c-.36.752-.904 1.106-1.672 1.106-1.356 0-2.26-1.239-2.26-3.053 0-1.814.95-3.097 2.26-3.097.723 0 1.176.31 1.582 1.106V9.025c0-.62-.09-.664-.949-.664v-.177c.632-.088 1.22-.177 1.717-.31v7.3c0 .488.045.664.226.798.136.088.181.088.723.088l.046.133Zm-4.745-2.831c0 1.725.542 2.743 1.537 2.743.994 0 1.491-.93 1.491-2.61 0-1.86-.542-2.876-1.536-2.876-.995.043-1.492.973-1.492 2.743ZM74.21 14.38c-.135 1.327-.95 2.08-2.17 2.08-1.672 0-2.53-1.062-2.53-3.053 0-1.947.95-3.185 2.44-3.185 1.492 0 2.26 1.016 2.26 2.92h-3.886c0 1.991.542 2.92 1.762 2.92.949 0 1.492-.575 1.672-1.681h.452Zm-.813-1.68c-.09-1.417-.543-2.17-1.492-2.17-.859 0-1.446.798-1.582 2.17h3.074ZM75.385 14.422h.226c.09.442.18.619.316.885.272.486.814.796 1.402.796.813 0 1.4-.486 1.4-1.195 0-.441-.225-.663-.722-.929-.136-.088-.136-.088-1.266-.53-.95-.399-1.22-.753-1.22-1.505 0-.973.769-1.637 1.853-1.637.497 0 .813.089 1.265.354l.18-.487h.227v1.903h-.225c-.092-1.018-.543-1.504-1.357-1.504-.723 0-1.266.486-1.266 1.105 0 .399.227.665.724.93.226.089.27.133 1.22.486.949.399 1.31.797 1.31 1.505 0 1.062-.858 1.77-2.033 1.77a2.743 2.743 0 0 1-1.537-.487l-.27.487h-.227v-1.947ZM80.13 12.654v.532h3.255v-.532h-3.254ZM87.092 7.92c.814 0 1.356.133 1.763.487.451.354.723.929.723 1.548 0 .885-.498 1.505-1.356 1.903 1.175.265 1.808.974 1.808 2.08 0 .752-.362 1.504-.95 1.902-.497.354-1.039.487-1.988.487H83.93v-.221c.949-.09 1.084-.178 1.084-.842V8.982c0-.62-.135-.752-1.084-.797v-.22l3.163-.045Zm-.361 3.85c.813 0 1.13-.09 1.446-.443.316-.31.497-.752.497-1.328 0-.53-.136-1.016-.362-1.283-.226-.31-.632-.442-1.265-.442h-1.22v3.495h.904v.001Zm-.95 3.54c0 .618.136.708.86.708h.496c1.175 0 1.898-.797 1.898-2.036 0-.62-.18-1.106-.497-1.46-.316-.31-.723-.443-1.4-.443h-1.311v3.23h-.045ZM95.904 14.38c-.135 1.327-.95 2.08-2.17 2.08-1.672 0-2.53-1.062-2.53-3.053 0-1.947.949-3.185 2.44-3.185 1.492 0 2.26 1.016 2.26 2.92h-3.932c0 1.991.543 2.92 1.763 2.92.949 0 1.49-.575 1.672-1.681h.497Zm-.858-1.68c-.091-1.417-.543-2.17-1.492-2.17-.859 0-1.447.798-1.582 2.17h3.074ZM96.854 10.528c.633-.088 1.084-.221 1.536-.354.046.354.091.487.091 1.106.452-.663.95-.973 1.672-.973.633 0 1.221.31 1.582.796.226.31.271.753.271 1.328v3.053c0 .487.136.62.949.62v.22c-.632-.088-.949-.088-1.355-.088-.362 0-.678 0-1.357.088v-.176c.814-.044.95-.134.95-.62v-3.053c0-.619-.09-.929-.226-1.195-.226-.309-.543-.486-.995-.486-.497 0-.949.221-1.175.574-.226.267-.27.575-.27 1.151v3.009c0 .487.18.62.948.62v.22c-.633-.088-.949-.088-1.356-.088-.406 0-.678 0-1.355.088v-.22c.813-.044.949-.134.949-.62v-4.114c0-.487 0-.531-.09-.62-.09-.089-.227-.089-.814-.089l.045-.177ZM107.384 10.664h-1.672c-.813 0-.949.176-1.446 1.238h-.226l.271-1.548h4.112l-3.569 5.708h1.762c.633 0 .858-.09 1.175-.576.181-.22.271-.487.361-.84h.226l-.316 1.724h-4.293l3.615-5.706ZM21.197 3.54C18.847 1.24 15.728 0 12.429 0A12.482 12.482 0 0 0 3.66 3.583C1.265 5.886 0 8.894 0 12.168c0 3.23 1.31 6.284 3.661 8.585a12.482 12.482 0 0 0 8.768 3.583c3.28.004 6.43-1.284 8.768-3.583 2.35-2.301 3.66-5.355 3.66-8.584 0-3.275-1.31-6.283-3.661-8.628V3.54ZM3.707 20.442C.722 17.345-.679 12.61.812 8.318c.226-.708.497-1.415.95-2.079C3.66 2.92 7.501.354 11.343.133c5.288-.399 10.169 2.478 12.202 7.124.498 1.15.723 2.035.86 3.45-.272-1.77-.95-3.052-1.537-4.158-.995-1.77-2.621-3.363-4.429-4.425C15.23.088 10.258-.088 6.914 1.77 4.837 2.832 3.164 4.425 2.08 6.372.95 8.407.362 10.797.588 13.23c.226 2.743 1.582 5.575 3.706 7.654l-.587-.442ZM.812 12.61c.272 2.346.95 3.85 1.492 4.823.09.221-.09.399-.317-.088-.452-1.063-1.129-2.3-1.175-4.735Zm15.321 10.62c-4.518 1.37-9.355.133-12.383-3.275-.588-.62-.904-1.062-1.4-1.902-.182-.221.044-.355.134-.221 2.396 3.893 6.915 6.016 11.616 5.441a11.777 11.777 0 0 0 8.09-5.176c-.09-.045-.136-.089-.181-.089A11.28 11.28 0 0 1 20.384 20a11.563 11.563 0 0 1-8 3.23c-3.028 0-5.876-1.15-8-3.23-.633-.62-1.22-1.328-1.673-2.124.046.088.091.22.091.265l-.407-.487-.225-.575c.09.133.135.221.225.221a11.074 11.074 0 0 1-1.265-5.133c0-2.964 1.175-5.751 3.3-7.831 2.123-2.08 4.925-3.23 7.909-3.274l.045-.133c.045-.088.045-.31.225-.266.18 0 .227.09.272.31l.045.134a11.266 11.266 0 0 1 7.593 3.229 10.898 10.898 0 0 1 3.3 7.832c0 1.947-.498 3.85-1.493 5.486l.09.09.046-.046.09.09c.86-1.328 1.356-3.009 1.446-4.736.181-2.389-.406-4.866-1.626-6.724-.498-.709-1.221-1.682-1.808-2.345 2.757 2.477 3.977 5.751 3.932 9.203-.407 4.425-3.932 8.76-8.361 10.043Z"/><path d="m11.703 11.505.633.354.225-10.84-.858 10.486ZM14.054 11.592s7.91 5.885 8.181 6.062h.045l-7.728-6.371-.498.31v-.001ZM13.06 12.167l8.995 5.531-8.633-5.751-.362.22ZM22.145 17.876l-9.402-5.487v1.992l-.09-.045 9.356 3.672s.045 0 .045.045c0-.089.046-.133.091-.177ZM9.398 13.54l2.803-1.371-.543-.31-2.26 1.681ZM10.71 10.884l.497.31L12.29 1.06h-.044l-1.673 9.956.135-.133Z"/><path d="m2.755 17.698 9.627-3.362V12.3L2.529 17.52l8.587-6.061-.542-.354.09-.089-7.999 6.195a.284.284 0 0 1-.317.044c.091.221.226.398.362.62v-.045l.045-.133ZM12.835 11.813l1.536-.885.045.221-1.627-10.088h-.09l.135 10.752ZM22.461 17.743l-.09-.088-.045.044-.09-.088c.225.176 0 .265-.09.22-.047.09-.092.09-.092.178.046.044.091.088.181.088.271.045.362-.176.226-.354Z"/><path d="M22.551 18.052c.09-.088.09-.176-.09-.354.136.222.09.354-.225.354.09.089.225.134.316 0h-.001Z"/></g><defs><clipPath id="a"><path fill="#fff" d="M0 0h108.423v25H0z"/></clipPath></defs></svg>