<?xml version="1.0" encoding="utf-8"?>
<!-- Generator: Adobe Illustrator 26.2.1, SVG Export Plug-In . SVG Version: 6.00 Build 0)  -->
<svg version="1.1" id="nyxoah" xmlns="http://www.w3.org/2000/svg" xmlns:xlink="http://www.w3.org/1999/xlink" x="0px" y="0px"
	 viewBox="0 0 91 31" style="enable-background:new 0 0 91 31;" xml:space="preserve">
<style type="text/css">
	.st0{fill:#FFFFFF;}
	.st1{fill:#3E8DAE;}
	.st2{fill:#73C6C8;}
</style>
<g>
	<g id="Group_487_00000024694650991515337880000008336597142696181925_" transform="translate(206.954)">
		<path id="Path_366_00000161619801460328053080000018204495130140428469_" class="st1" d="M-125.5,0.5c-2.6,0-5.1,1.1-6.8,3.1
			c0.9-0.6,2-1,3.2-1c1.6-0.1,3.2,0.6,4.2,1.9c0.8,0,1.2,0,1.2,0l-0.7,0.7c0.5,0.8,0.6,1.6,0.6,2.6c0,0.2,0,0.5,0,0.7
			c0.3,0.1,5.1,2.5-0.4,10c4.9-0.7,8.4-5.2,7.8-10.1C-117.1,3.8-121,0.5-125.5,0.5z"/>
		<path id="Path_367_00000170965055681059033900000006956398026295623558_" class="st1" d="M-129.8,7.1c0,0.8-0.6,1.4-1.4,1.4
			s-1.4-0.6-1.4-1.4c0-0.8,0.6-1.4,1.4-1.4l0,0C-130.5,5.6-129.8,6.3-129.8,7.1z"/>
		<path id="Path_368_00000124140136903615226320000001576493510402177721_" class="st1" d="M-126.4,7.1c0,0.8-0.6,1.4-1.4,1.4
			s-1.4-0.6-1.4-1.4c0-0.8,0.6-1.4,1.4-1.4l0,0C-127,5.6-126.4,6.3-126.4,7.1C-126.4,7-126.4,7-126.4,7.1z"/>
	</g>
	<path id="Path_370_00000058567810735170687770000003667161645608138372_" class="st1" d="M11.8,18.4V7.2c0-0.4,0.1-0.5,0.5-0.5h1.6
		c0.4,0,0.5,0.1,0.5,0.5v16.8c0,0.4-0.1,0.5-0.5,0.5h-1.4c-0.3,0-0.4-0.1-0.6-0.5L3.1,11.7v12.2c0,0.4-0.1,0.6-0.5,0.6H1.1
		c-0.4,0-0.6,0-0.6-0.5V7.2c0-0.5,0.2-0.5,0.6-0.5H3c0.4,0,0.5,0,0.8,0.5L11.8,18.4z"/>
	<path id="Path_371_00000155839629672077946330000007293234098130005385_" class="st1" d="M22.7,26.2c-0.6,1.6-1.7,4.4-4.7,4.4
		c-1.6,0-2.2-0.8-2.2-1.6c0-0.7,0.6-1.3,1.3-1.4c0,0,0,0,0.1,0c0.4,0,1.1,0.3,1.5,0.3c1,0,1.5-0.8,2.3-3L16,12.2
		c-0.1-0.1-0.1-0.3-0.1-0.5c0-0.4,0.3-0.4,0.5-0.4h2.3c0.5,0,0.5,0.1,0.6,0.6l3,8.7l2.8-8.7c0.1-0.5,0.2-0.6,0.7-0.6h1.5
		c0.2,0,0.5,0,0.5,0.4c0,0.2-0.1,0.3-0.1,0.5L22.7,26.2z"/>
	<path id="Path_372_00000046318878303004965390000018297212464071227543_" class="st1" d="M34.5,20.2L31.9,24
		c-0.2,0.4-0.3,0.4-0.7,0.4h-1.6c-0.1,0-0.4,0-0.4-0.3c0-0.2,0.1-0.3,0.2-0.4l3.7-5.7l-3.4-5.8c-0.1-0.1-0.2-0.3-0.2-0.5
		c0-0.3,0.3-0.3,0.5-0.3h2.2c0.4,0,0.5,0,0.7,0.4l2.1,3.5l2.3-3.5c0.3-0.4,0.3-0.4,0.7-0.4h1.4c0.1,0,0.5,0,0.5,0.3
		c0,0.2-0.1,0.3-0.2,0.5l-3.4,5.2l3.7,6.3c0.1,0.1,0.2,0.3,0.2,0.5c0,0.3-0.3,0.3-0.4,0.3h-2.3c-0.5,0-0.5,0-0.8-0.4L34.5,20.2z"/>
	<path id="Path_373_00000001647728153677133280000017672118056083911340_" class="st2" d="M46.7,24.8c-3.7,0-6-3-6-6.8
		c0-3.9,2.4-6.8,6-6.8c4.1,0,5.9,3.6,6,6.7C52.8,21.5,50.6,24.8,46.7,24.8z M46.6,12.9c-1.7,0-2.6,2.1-2.6,4.6
		c0,2.8,1.2,5.1,2.9,5.1c1.6,0,2.8-2.2,2.6-5.1C49.3,14.6,48.1,12.9,46.6,12.9L46.6,12.9z"/>
	<path id="Path_374_00000017512344694857587050000013064460335690335660_" class="st2" d="M63.8,21.8c0,1.1-0.1,1.7-1.1,2.2
		c-1.3,0.7-3.2,0.7-3.7,0.7c-0.8,0-4.9,0-4.9-3.5c0-1,0.4-1.9,1.1-2.6c1.1-1.1,2.8-1.5,5.6-2.3v-1.3c0-0.9,0-2.3-1.5-2.3
		c-1.2,0-1.6,0.9-1.8,1.4c-0.2,0.6-0.5,1.2-1.4,1.2c-0.7,0-1.3-0.5-1.4-1.2c0,0,0-0.1,0-0.1c0-1.5,2-3,5-3c4,0,4,2.5,4,4.4
		L63.8,21.8L63.8,21.8z M60.9,17.8c-2,0.6-3.6,1.1-3.6,3c0,1.3,0.7,2.2,2.1,2.2c1.5,0,1.6-1.1,1.6-1.7L60.9,17.8z"/>
	<path id="Path_375_00000162311033829826689850000005148620825633442234_" class="st2" d="M73.6,16c0-0.7,0-1.3-0.3-1.8
		c-0.4-0.6-1-0.9-1.6-0.9c-0.8,0-1.6,0.4-2.2,1v9.6c0,0.4-0.1,0.6-0.5,0.6h-2.1c-0.4,0-0.5-0.1-0.5-0.6V5.7c0-0.3,0.1-0.5,0.5-0.5
		H69c0.4,0,0.5,0,0.5,0.5v6.8c1-0.9,2.3-1.5,3.6-1.4c1.2-0.1,2.3,0.5,3,1.5c0.5,0.8,0.8,1.8,0.7,2.8v8.5c0,0.5-0.1,0.6-0.5,0.6h-2
		c-0.5,0-0.6,0-0.6-0.6V16z"/>
</g>
</svg>
