<svg width="174" height="49" viewBox="0 0 174 49" fill="none" xmlns="http://www.w3.org/2000/svg">
<g clip-path="url(#clip0_5376_52035)">
<path fill-rule="evenodd" clip-rule="evenodd" d="M35.4358 4.37494L17.3616 -0.334229L4.26318 13.0274L9.2398 31.1036L27.3141 35.8127L40.4125 22.4511L35.4358 4.37494ZM5.68963 13.4022L17.7538 1.08927L34.4023 5.42669L38.986 22.0809L26.9218 34.3938L10.2733 30.0563L5.68963 13.4022Z" fill="#007E9F"/>
<path d="M30.6137 18.8869L13.3052 13.7339L0.208496 26.2151L4.4225 43.8493L21.731 49L34.8277 36.5189L30.6137 18.8869Z" fill="#1D5A80"/>
<path fill-rule="evenodd" clip-rule="evenodd" d="M41.2317 12.6941L41.0283 12.6946L26.1414 14.6414L20.3096 28.7538L29.553 40.8771L44.6282 38.8987L50.4601 24.7978L41.2317 12.6941ZM27.0383 15.813L40.6508 14.0245L48.995 24.9754L43.7246 37.7159L30.1122 39.5022L21.7679 28.5513L27.0383 15.813Z" fill="#84D9EC"/>
<path d="M67.1014 28.3428H69.3953L69.4268 29.8011L68.7514 29.817C67.6259 29.817 66.5004 29.7921 65.3748 29.817C64.6275 29.8418 63.8869 29.9933 63.1395 30.0227C61.8489 30.0976 60.5671 29.7664 59.4725 29.0753C57.3047 27.6667 56.141 25.6543 56.3863 23.0382C56.4989 21.7929 56.9793 20.6098 57.7658 19.6405C58.5523 18.6713 59.6091 17.96 60.8007 17.5981C62.2681 17.1164 63.8605 17.1925 65.2758 17.8118C66.6911 18.4311 67.8309 19.5506 68.4791 20.958C69.5348 23.2327 69.2557 25.4146 67.7902 27.4451C67.6349 27.6983 67.4323 27.9267 67.1014 28.3428ZM67.6011 23.6465C67.5741 21.2362 65.5324 18.7309 62.6983 18.7535C61.4248 18.7671 60.2078 19.2835 59.3102 20.191C58.4126 21.0985 57.9065 22.3243 57.9013 23.6035C57.9013 26.4728 60.015 28.553 62.7186 28.5553C65.3186 28.5575 67.4503 26.656 67.6011 23.6465Z" fill="#2B6487"/>
<path d="M109.383 17.0396L118.237 26.6311L118.415 26.5926C118.534 23.5628 118.448 17.3606 118.448 17.3606H120.011L119.813 30.2488C116.823 27.0833 113.867 23.9472 110.912 20.8178L110.741 20.6279V29.7966H109.248V17.1526L109.383 17.0396Z" fill="#2E6689"/>
<path d="M83.1673 17.3967H84.707C84.707 17.3967 84.707 17.9959 84.707 18.2876C84.707 20.7115 84.707 23.1354 84.707 25.5592C84.707 27.4246 84.0317 28.9147 82.2106 29.5998C81.2111 29.9729 80.1846 30.1719 79.0433 29.8779C77.7332 29.541 76.727 28.9735 76.1507 27.7638C75.9082 27.2934 75.7656 26.7775 75.732 26.2489C75.6892 23.4587 75.705 20.6685 75.705 17.8829C75.705 17.7495 75.705 17.4307 75.705 17.4307H77.1884L77.2042 18.4052C77.229 20.9127 77.238 23.4203 77.2717 25.9278C77.2852 26.8526 77.6364 27.6327 78.4873 28.0849C79.6646 28.7089 81.3394 28.6592 82.3434 27.7796C82.9647 27.2324 83.1515 26.484 83.1493 25.6746C83.1493 23.2507 83.1493 20.826 83.1493 18.4006C83.1673 18.0931 83.1673 17.3967 83.1673 17.3967Z" fill="#30678A"/>
<path d="M96.7211 16.7502C98.4994 20.9559 100.354 25.4645 102.171 29.756H100.656C100.026 28.2908 99.3593 26.7442 98.6525 25.0982H94.7176C94.0716 26.6289 93.4255 28.1619 92.7502 29.7583H91.2104L96.5635 17.0962L96.7211 16.7502ZM95.411 23.4951H98.0245C97.554 22.4075 97.124 21.4126 96.6513 20.316L95.411 23.4951Z" fill="#2C6588"/>
<path d="M165.917 27.8949C166.335 27.5535 166.678 27.2935 166.991 27.038C167.23 27.2989 167.491 27.5386 167.772 27.7548C168.755 28.4738 169.829 28.7293 171.002 28.3087C172.438 27.7932 172.578 25.7876 171.569 25.0776C170.878 24.5847 170.054 24.2772 169.282 23.9041C168.886 23.712 168.449 23.5899 168.071 23.3683C167.428 23.0095 166.929 22.4373 166.66 21.7497C166.39 21.0621 166.367 20.3018 166.594 19.599C166.801 18.9413 167.211 18.3671 167.766 17.9603C168.32 17.5535 168.989 17.3354 169.676 17.3379C170.303 17.3174 170.927 17.424 171.512 17.6512C172.097 17.8785 172.63 18.2218 173.08 18.6607C172.855 18.9976 172.555 19.4498 172.305 19.8138C171.904 19.453 171.435 19.1763 170.925 18.9998C170.317 18.8325 169.675 18.8325 169.066 18.9998C168.274 19.2418 167.94 20.0241 168.017 20.9014C168.094 21.7787 168.728 22.0975 169.415 22.3937C170.302 22.7804 171.229 23.106 172.058 23.5966C173.253 24.3066 173.805 25.4055 173.705 26.839C173.611 28.2432 172.846 29.1431 171.659 29.6677C169.894 30.45 168.283 29.8937 166.824 28.8265C166.48 28.5596 166.175 28.2461 165.917 27.8949Z" fill="#2C6588"/>
<path d="M158.945 27.8768C159.199 28.2363 159.483 28.6637 159.728 29.0073C157.39 30.6218 154.236 30.2871 152.057 28.1029C149.695 25.7288 149.565 22.3439 151.505 19.7889C152.434 18.547 153.788 17.6952 155.306 17.3982C156.824 17.1013 158.397 17.3803 159.722 18.1813L158.988 19.3389C155.938 18.0614 154.144 18.9839 152.998 20.3813C151.422 22.2942 151.249 24.2387 152.579 26.3325C153.228 27.3615 154.254 28.0925 155.436 28.3675C156.669 28.6863 158.049 28.3448 158.945 27.8768Z" fill="#2C6588"/>
<path d="M130.05 18.8371H125.974V17.3696H130.748C132.324 17.3696 134.226 17.3696 135.959 17.3696V18.7715H131.743V29.74H130.05V18.8371Z" fill="#2B6488"/>
<path d="M141.673 17.3696H143.343C143.343 17.3696 143.343 17.5641 143.343 18.0683C143.343 21.9257 143.343 25.7854 143.343 29.731H141.718C141.704 29.4755 141.679 29.229 141.679 28.9848C141.679 25.4621 141.679 21.9393 141.679 18.4165C141.682 18.0751 141.673 17.3696 141.673 17.3696Z" fill="#2B6487"/>
</g>
<defs>
<clipPath id="clip0_5376_52035">
<rect width="173.508" height="49" fill="white" transform="translate(0.208496)"/>
</clipPath>
</defs>
</svg>
