<svg fill="none" xmlns="http://www.w3.org/2000/svg" viewBox="0 0 1468 325">
    <defs/>
    <g clip-path="url(#clip0)">
        <path d="M0 204.437V36.695h76.546c28.311 2.097 50.331 24.113 51.38 51.371 1.048 28.307-22.02 53.468-51.38 55.565H34.603v60.806H0zM34.603 63.953v55.565H65.01c4.195 0 7.34-1.048 11.535-2.097 11.534-5.242 17.825-17.823 16.777-29.355-1.049-9.435-7.34-16.774-15.729-20.968-4.194-2.096-8.388-3.145-11.534-3.145H34.603zM639.629 204.437V36.695h89.129c19.922 1.049 36.7 15.726 40.894 33.549 3.146 14.677-3.146 30.403-14.68 40.887 2.097 1.048 24.117 17.822 23.068 44.032-1.048 23.065-18.874 42.984-42.991 48.226h-60.817c-1.049-9.436-2.097-18.871-2.097-28.307h56.623c9.437-2.096 15.728-11.532 15.728-20.967 0-9.436-7.34-17.823-16.777-19.92H675.28v70.242h-35.651zm34.603-140.484v42.984h38.797c13.631 0 24.117-10.484 23.069-23.064-1.049-11.532-11.535-20.968-24.118-19.92h-37.748zM127.925 204.437c18.874-55.564 37.748-111.129 55.574-167.742h40.894c18.875 55.565 38.798 111.129 57.672 167.742h-36.7l-12.583-34.597h-56.623c-4.194 11.533-8.388 24.113-12.583 35.646-11.534-1.049-24.117-1.049-35.651-1.049zm55.574-63.951h41.943c-6.291-20.968-11.534-40.887-17.826-61.855h-6.291c-5.243 20.968-11.534 41.935-17.826 61.855zM460.322 204.437c18.875-55.564 37.749-111.129 55.575-167.742h40.894c18.874 55.565 38.797 111.129 57.671 167.742h-36.7l-12.583-34.597h-56.622c-4.195 11.533-8.389 24.113-12.583 35.646-11.535-1.049-24.117-1.049-35.652-1.049zm55.575-63.951h41.942c-6.291-20.968-11.534-40.887-17.825-61.855h-6.292c-5.243 20.968-11.534 41.935-17.825 61.855zM307.231 204.437V36.695h76.546c25.166 0 49.283 19.92 51.38 51.371 1.049 16.774-9.437 30.404-14.68 36.694 2.097 1.048 6.292 2.097 9.437 6.29 6.292 7.339 5.243 14.678 5.243 16.774v42.984c0 1.049 0 4.194 1.049 7.339 2.097 3.145 4.194 5.242 5.243 6.29h-29.36c-1.048 0-5.243-2.097-8.389-6.29-4.194-5.242-3.145-10.484-3.145-11.532v-30.404c0-1.048 0-6.29-4.195-10.483-4.194-4.194-10.486-4.194-11.533-4.194h-42.992v60.806c-11.535 2.097-23.069 2.097-34.604 2.097zm34.603-140.484v48.226h31.457c3.146 0 6.292 0 8.389-1.048 11.534-4.194 18.874-12.58 18.874-24.113 0-10.484-8.388-18.871-18.874-22.016-2.097-1.049-5.243-1.049-7.34-1.049h-32.506zM931.13 204.423c-41.943 0-84.933-1.048-126.876-1.048V35.633c41.943 0 83.886 1.048 124.78 1.048 0 9.436 0 17.823 1.049 27.258h-91.226v35.645h76.546v34.597c-25.166 0-51.38 0-76.546 1.048v40.887h92.274l-.001 28.307z" fill="#283E4F"/>
        <path d="M1015.02 9.422c-30.411 97.5-60.82 193.951-92.277 291.451h36.7c30.409-97.5 59.767-193.951 90.177-291.451h-34.6zM1092.61 9.422c-30.41 97.5-60.82 193.951-92.27 291.451h36.7c30.41-97.5 59.77-193.951 90.17-291.451h-34.6z" fill="#F2BF66"/>
        <path d="M1139.8 36.695h34.6v110.081c0 16.774 12.58 30.403 28.31 32.5h5.24c16.78-1.048 29.36-15.726 29.36-32.5V36.696h34.61V156.21c0 10.484-4.2 22.017-10.49 29.355-13.63 16.774-34.6 26.21-56.62 26.21-22.02 0-41.94-10.484-55.58-26.21-7.34-8.387-10.48-18.871-10.48-29.355l1.05-119.516zM1334.83 204.423h-34.6V36.681h56.62c9.44 37.742 18.88 76.532 29.36 114.274 9.44-38.79 18.88-76.532 28.31-115.322h54.53v167.742h-34.6c0-41.936 0-83.871 1.04-126.855-11.53 41.935-23.06 83.871-35.65 126.855h-26.21c-12.58-41.936-24.12-83.871-36.7-125.807-2.1 42.984-2.1 84.919-2.1 126.855zM306.753 303.411c0 12.235-5.519 18.347-16.558 18.347-4.777 0-8.545-1.034-11.31-3.122-2.754-2.069-4.137-4.874-4.137-8.375h6.99c0 4.156 2.795 6.224 8.386 6.224 3.153 0 5.591-.859 7.311-2.59 1.72-1.73 2.58-5.129 2.58-10.197v-1.894c-3.01 3.624-6.63 5.446-10.859 5.446-4.971 0-8.816-1.771-11.54-5.303-2.725-3.542-4.087-8.303-4.087-14.303 0-6.214 1.526-11.128 4.568-14.742 3.051-3.624 6.875-5.437 11.489-5.437 4.112 0 7.588 1.269 10.429 3.809v-2.948h6.738v35.085zm-6.738-7.996v-18.06c-2.913-3.071-6.246-4.617-9.999-4.617-2.893 0-5.202 1.249-6.932 3.747-1.737 2.498-2.602 6.214-2.602 11.159 0 4.679.819 8.232 2.458 10.658 1.634 2.427 3.897 3.645 6.79 3.645 3.772 0 7.203-2.18 10.285-6.532zM354.937 307.25c-5.591 0-10.081-1.75-13.475-5.251-3.395-3.502-5.09-8.385-5.09-14.641 0-6.215 1.643-11.078 4.925-14.6 3.287-3.521 7.583-5.293 12.887-5.293 5.422 0 9.754 1.74 12.99 5.201 3.241 3.461 4.859 8.365 4.859 14.692v1.607h-28.637c.288 4.402 1.501 7.659 3.636 9.788 2.14 2.129 4.777 3.194 7.905 3.194 2.366 0 4.495-.603 6.4-1.812 1.894-1.208 2.892-2.918 2.99-5.15h6.989c-.528 3.921-2.299 6.941-5.32 9.072-3.026 2.129-6.712 3.193-11.059 3.193zm9.964-23.589c-.548-3.644-1.782-6.387-3.691-8.2-1.911-1.812-4.256-2.723-7.026-2.723-2.698 0-5.017.901-6.953 2.703-1.935 1.801-3.163 4.546-3.691 8.22h21.361zM417.028 267.465c5.422 0 9.754 1.74 12.99 5.201 3.24 3.461 4.858 8.365 4.858 14.692 0 6.306-1.618 11.2-4.858 14.671-3.236 3.481-7.568 5.221-12.99 5.221-5.401 0-9.718-1.74-12.958-5.221-3.236-3.471-4.854-8.365-4.854-14.671 0-6.327 1.618-11.231 4.854-14.692 3.24-3.461 7.557-5.201 12.958-5.201zm0 34.482c3.225 0 5.842-1.228 7.848-3.675 2.007-2.447 3.011-6.092 3.011-10.914 0-4.853-1.004-8.498-3.011-10.945-2.006-2.447-4.623-3.675-7.848-3.675-3.225 0-5.842 1.228-7.849 3.675-2.007 2.447-3.01 6.092-3.01 10.945 0 4.822 1.003 8.467 3.01 10.914 2.007 2.447 4.624 3.675 7.849 3.675zM495.276 303.411c0 12.235-5.52 18.347-16.558 18.347-4.778 0-8.545-1.034-11.31-3.122-2.755-2.069-4.137-4.874-4.137-8.375h6.989c0 4.156 2.795 6.224 8.386 6.224 3.153 0 5.591-.859 7.311-2.59 1.721-1.73 2.581-5.129 2.581-10.197v-1.894c-3.011 3.624-6.631 5.446-10.859 5.446-4.972 0-8.817-1.771-11.541-5.303-2.724-3.542-4.086-8.303-4.086-14.303 0-6.214 1.525-11.128 4.567-14.742 3.052-3.624 6.876-5.437 11.49-5.437 4.111 0 7.587 1.269 10.429 3.809v-2.948h6.738v35.085zm-6.738-7.996v-18.06c-2.913-3.071-6.247-4.617-10-4.617-2.893 0-5.202 1.249-6.932 3.747-1.736 2.498-2.601 6.214-2.601 11.159 0 4.679.82 8.232 2.458 10.658 1.633 2.427 3.896 3.645 6.789 3.645 3.773 0 7.204-2.18 10.286-6.532zM547.044 274.488c-.958-.286-2.33-.43-4.122-.43-3.441 0-6.389 1.813-8.852 5.416v26.876h-6.774v-38.024h6.774v5.302c2.841-4.105 6.139-6.163 9.892-6.163.957 0 1.981.103 3.082.287v6.736zM597.844 302.439c-3.44 3.204-7.874 4.811-13.296 4.811-3.774 0-6.882-1.023-9.318-3.071-2.437-2.038-3.656-4.668-3.656-7.903 0-8.888 7.659-13.331 22.973-13.331h3.297c0-2.723-.143-4.7-.43-5.927-.286-1.229-1.085-2.253-2.401-3.062-1.316-.809-3.405-1.218-6.272-1.218-6.02 0-9.128 2.149-9.318 6.45h-6.738c.502-7.812 5.974-11.723 16.415-11.723 4.874 0 8.673.973 11.397 2.908 2.723 1.934 4.085 5.733 4.085 11.395v24.582h-6.738v-3.911zm0-6.082v-8.426h-4.623c-9.795 0-14.694 2.662-14.694 7.997 0 1.924.716 3.418 2.15 4.453 1.433 1.044 3.369 1.566 5.806 1.566 2.223 0 4.372-.511 6.452-1.515 2.078-1.003 3.717-2.355 4.909-4.075zM643.376 272.881c3.011-3.603 6.63-5.416 10.86-5.416 4.972 0 8.817 1.772 11.541 5.293 2.723 3.522 4.085 8.282 4.085 14.282 0 6.226-1.52 11.16-4.572 14.774-3.041 3.624-6.887 5.436-11.52 5.436-4.112 0-7.572-1.279-10.394-3.839v17.558h-6.773v-52.643h6.773v4.555zm0 24.439c2.893 3.081 6.211 4.627 9.964 4.627 2.913 0 5.232-1.249 6.953-3.747 1.721-2.498 2.58-6.225 2.58-11.16 0-4.689-.813-8.241-2.436-10.668-1.624-2.426-3.897-3.634-6.81-3.634-3.753 0-7.168 2.17-10.251 6.521v18.061zM706.219 273.139c3.369-3.798 7.158-5.703 11.361-5.703 8.577 0 12.866 4.679 12.866 14.016v24.869h-6.773v-24.582c0-3.102-.558-5.334-1.664-6.706-1.116-1.352-2.933-2.038-5.468-2.038-3.441 0-6.882 2.028-10.322 6.093v27.233h-6.774v-52.532h6.774v19.35zM769.062 261.098h-6.779v-7.309h6.779v7.309zm0 45.223h-6.779v-38.024h6.779v38.024zM816.463 307.25c-5.408 0-9.729-1.74-12.965-5.221-3.236-3.471-4.853-8.365-4.853-14.671 0-6.327 1.617-11.231 4.853-14.692 3.236-3.461 7.557-5.201 12.965-5.201 4.157 0 7.618 1.055 10.403 3.153 2.786 2.11 4.424 5.14 4.936 9.112h-6.963c-.092-2.273-.943-4.003-2.561-5.2-1.607-1.198-3.552-1.792-5.815-1.792-3.236 0-5.848 1.228-7.855 3.675-2.007 2.447-3.01 6.092-3.01 10.945 0 4.822 1.003 8.467 3.01 10.914 2.007 2.447 4.619 3.675 7.855 3.675 2.263 0 4.208-.603 5.815-1.802 1.618-1.188 2.469-2.907 2.561-5.16h6.963c-.512 3.972-2.15 7.003-4.936 9.113-2.785 2.098-6.246 3.152-10.403 3.152z" fill="#283E4F"/>
        <path d="M1075.82 261.098h-6.78v-7.309h6.78v7.309zm0 45.223h-6.78v-38.024h6.78v38.024zM1114.58 273.168c3.37-3.798 7.16-5.703 11.37-5.703 8.56 0 12.85 4.679 12.85 14.016v24.869h-6.77v-24.582c0-3.102-.56-5.334-1.66-6.707-1.12-1.351-2.94-2.037-5.47-2.037-3.44 0-6.88 2.028-10.32 6.093v27.233h-6.79v-38.024h6.79v4.842zM1184.24 307.25c-10.41 0-15.84-4.095-16.32-12.265h6.77c.06 4.638 3.21 6.962 9.47 6.962 2.79 0 4.92-.584 6.4-1.74 1.47-1.157 2.2-2.611 2.2-4.361 0-1.721-.71-2.928-2.15-3.635-1.44-.707-4.39-1.618-8.87-2.734-4.49-1.126-7.75-2.385-9.81-3.767-2.08-1.383-3.11-3.819-3.11-7.31 0-3.154 1.28-5.765 3.85-7.833 2.57-2.067 6-3.102 10.3-3.102 9.98 0 15.05 3.553 15.27 10.647h-6.73c-.25-3.582-2.92-5.374-8.07-5.374-2.27 0-4.14.43-5.64 1.29-1.49.859-2.25 2.119-2.25 3.757 0 1.485.58 2.559 1.72 3.215 1.16.655 4.03 1.535 8.63 2.652 4.6 1.105 8.01 2.406 10.25 3.88 2.23 1.485 3.35 4.044 3.35 7.678 0 3.461-1.38 6.327-4.14 8.611-2.77 2.283-6.47 3.429-11.12 3.429zM1236.15 261.098h-6.78v-7.309h6.78v7.309zm0 45.223h-6.78v-38.024h6.78v38.024zM1298.95 303.411c0 12.235-5.51 18.347-16.55 18.347-4.78 0-8.55-1.034-11.31-3.122-2.76-2.069-4.14-4.874-4.14-8.375h6.99c0 4.156 2.79 6.224 8.38 6.224 3.16 0 5.59-.859 7.31-2.59 1.72-1.73 2.58-5.129 2.58-10.197v-1.894c-3.01 3.624-6.62 5.446-10.86 5.446-4.96 0-8.81-1.771-11.53-5.303-2.73-3.542-4.09-8.303-4.09-14.303 0-6.214 1.52-11.128 4.57-14.742 3.05-3.624 6.88-5.437 11.48-5.437 4.11 0 7.6 1.269 10.43 3.809v-2.948h6.74v35.085zm-6.74-7.996v-18.06c-2.91-3.071-6.24-4.617-10-4.617-2.88 0-5.2 1.249-6.93 3.747-1.73 2.498-2.6 6.214-2.6 11.159 0 4.679.82 8.232 2.46 10.658 1.64 2.427 3.9 3.645 6.79 3.645 3.78 0 7.2-2.18 10.28-6.532zM1337.74 273.139c3.36-3.798 7.16-5.703 11.36-5.703 8.58 0 12.87 4.679 12.87 14.016v24.869h-6.79v-24.582c0-3.102-.55-5.334-1.65-6.706-1.11-1.352-2.94-2.038-5.46-2.038-3.45 0-6.89 2.028-10.33 6.093v27.233h-6.78v-52.532h6.78v19.35zM1408.57 306.419c-1.48.287-3.1.431-4.84.431-2.78 0-4.8-.492-6.09-1.484-1.29-.994-2.09-2.264-2.4-3.82-.31-1.556-.46-3.665-.46-6.337v-21.582h-4.71v-5.303h4.71v-9.461h6.73v9.461h6.17v5.303h-6.17v21.93c0 2.61.33 4.259.99 4.965.65.707 1.56 1.055 2.71 1.055 1.17 0 2.29-.093 3.36-.287v5.129z" fill="#F2BF66"/>
    </g>
    <defs>
        <clipPath id="clip0">
            <path fill="#fff" d="M0 0h1468v325H0z"/>
        </clipPath>
    </defs>
</svg>
