<svg xmlns="http://www.w3.org/2000/svg" fill="none" viewBox="0 0 83 43"><path fill="#fff" d="M28.545.214c.023.017.045.046.062.046.485 0 .965.073 1.439.174.942.215 1.811.576 2.505 1.276.508.507.83 1.123 1.01 1.81.102.379.18.763.175 1.158 0 .186.045.372.04.558-.023 1.123-.356 2.144-1.05 3.036-.525.683-1.196 1.207-1.924 1.659-.83.513-1.72.886-2.635 1.219-.05.016-.096.05-.17.09 2.365 3.25 4.724 6.483 7.1 9.75-.08.011-.142.028-.198.028-1.056 0-2.105 0-3.16.006-.153 0-.232-.05-.316-.175-.705-1.01-1.416-2.02-2.127-3.024-.728-1.027-1.456-2.06-2.184-3.087-.683-.959-1.366-1.913-2.054-2.872a.665.665 0 0 1-.141-.44c.011-.496.006-.993.006-1.523.186-.034.36-.074.541-.108 1.14-.208 2.246-.519 3.267-1.083.773-.429 1.428-.999 1.811-1.817.192-.406.316-.835.31-1.292-.005-.237.012-.474-.005-.705-.068-.909-.446-1.625-1.292-2.049a3.859 3.859 0 0 0-1.224-.35c-.356-.045-.711-.039-1.067-.039-1.76-.006-3.515 0-5.275 0h-.333v18.558c-.915-.005-1.8.006-2.709-.011V.209c.068 0 .13-.006.198-.006h9.197c.073 0 .135.006.203.011ZM51.224.214V2.41H40.35v6.952c.005.005.01.017.022.017a.043.043 0 0 0 .023.01c.017.007.04.007.056.007H50.637a.05.05 0 0 1 .028.005c.006 0 .017.006.04.023v2.093a.904.904 0 0 1-.017.017.042.042 0 0 1-.023.011c-.017 0-.04.006-.056.006H40.424a.05.05 0 0 0-.028.006c-.006 0-.017.005-.04.022v7.24H51.41c.056.22.073 1.506.028 2.115-.006.006-.011.017-.017.023a.042.042 0 0 1-.023.011c-.056.006-.112.006-.169.006H37.631V.209c.084-.006.17-.012.254-.012h13.09l.249.017ZM82.478 21.024c-.83 0-1.654-.005-2.483 0-.18 0-.271-.056-.339-.22-.276-.671-.558-1.337-.846-2.008l-.711-1.67c-.27-.644-.542-1.287-.813-1.93l-.31-.723H71.69c.254-.744.497-1.455.75-2.189h3.516c-1.27-3.086-2.534-6.128-3.814-9.225-.074.175-.136.304-.187.428-.507 1.242-1.015 2.478-1.529 3.719l-1.456 3.538-1.574 3.792c-.321.784-.637 1.568-.959 2.352-.423 1.022-.852 2.043-1.275 3.07l-.356.88c-.05.124-.107.198-.265.192-.83-.011-1.653-.006-2.483-.006-.033 0-.067-.01-.13-.022.074-.186.142-.356.215-.525.446-1.055.897-2.105 1.349-3.16.53-1.241 1.055-2.482 1.585-3.73.485-1.145.976-2.296 1.467-3.441.564-1.326 1.123-2.658 1.687-3.984.486-1.151.977-2.296 1.467-3.442.356-.83.706-1.664 1.055-2.494C71.48.22 72.209.22 72.936.215c.27 0 .542.005.813.011.028.068.05.141.079.209l.761 1.772c.294.694.587 1.388.886 2.082.249.58.503 1.162.75 1.743.294.683.576 1.377.87 2.06.254.592.513 1.18.767 1.766.293.683.576 1.377.863 2.06.254.592.52 1.173.768 1.765.344.813.682 1.631 1.032 2.444.31.728.632 1.45.943 2.178l1.015 2.38c-.005.108-.005.227-.005.34ZM10.66.214c.174.09.372.074.558.096.559.062 1.1.187 1.625.378a4.72 4.72 0 0 1 1.337.745c.486.39.841.875 1.095 1.433.203.452.305.937.39 1.422.016.085.005.17.01.254.012.158.034.316.046.474.005.13.005.265 0 .395-.006.13-.04.26-.04.39-.017.524-.147 1.026-.31 1.523a5.22 5.22 0 0 1-.824 1.518c-.288.372-.62.7-.982.998-.575.469-1.213.836-1.89 1.146-.745.344-1.524.598-2.32.79-.62.152-1.246.276-1.9.418-.046-.159-.097-.3-.13-.44-.13-.525-.254-1.045-.378-1.57a.566.566 0 0 1-.023-.135c-.006-.13.023-.175.147-.186.547-.062 1.077-.197 1.602-.344.824-.231 1.63-.525 2.353-1.004.497-.328.937-.723 1.258-1.225.277-.429.452-.897.508-1.405.023-.231.062-.468.05-.694-.033-.559-.134-1.106-.467-1.585a2.247 2.247 0 0 0-1.067-.836 4.227 4.227 0 0 0-1.585-.293c-1.936.006-3.877 0-5.812 0h-.26c-.022.023-.034.028-.04.034a.043.043 0 0 0-.01.022c-.006.017-.006.04-.006.057 0 6.11-.006 12.227-.006 18.338a.043.043 0 0 1-.011.023c-.209.05-2.014.067-2.63.022-.005-.067-.016-.14-.016-.209V.226c.118-.012.22-.023.321-.023h8.56c.13 0 .254 0 .384.045.14.045.316.04.462-.034ZM72.247 32.236c-.135-.214-.27-.406-.389-.61-.654-1.122-1.28-2.262-1.75-3.48-.22-.576-.4-1.169-.473-1.778-.062-.559.09-1.078.361-1.558.395-.7.993-1.15 1.789-1.275 1.28-.197 2.375.356 2.911 1.591.249.582.215 1.168.08 1.76-.243 1.056-.683 2.038-1.18 2.991-.395.757-.835 1.484-1.253 2.224-.022.04-.05.073-.096.135ZM54.124 12.295h7.228c-.05.141-.09.265-.13.384-.186.541-.383 1.083-.558 1.63-.04.124-.09.175-.215.164h-6.308c-.05-.215-.062-1.783-.017-2.178ZM42.584 37.015c.451-.683 1.174-.75 1.772-.564.423.13.643.468.71.897.035.231.046.462.052.7.005.75 0 1.506 0 2.256v.294h-.615v-2.686c0-.248-.04-.48-.181-.694a.625.625 0 0 0-.384-.265.976.976 0 0 0-1.077.423.653.653 0 0 0-.108.395c.006.863 0 1.732 0 2.596v.23h-.598c-.005-.061-.017-.129-.017-.202v-2.511c0-.237-.05-.457-.18-.666a.648.648 0 0 0-.356-.26.941.941 0 0 0-1.213.886v2.754h-.598v-4.125h.463c.045.13.084.26.135.412.305-.367.683-.519 1.134-.508.474.006.835.175 1.061.638ZM31.243 29.11c.265.174.44.389.581.637.333.564.666 1.128 1.016 1.727h-.643c-.119 0-.158-.09-.203-.17l-.525-.93c-.13-.226-.254-.458-.395-.678-.18-.288-.44-.451-.796-.434-.118.005-.242 0-.383 0v2.189h-.61v-5.338c.452 0 .892-.011 1.332.006.27.011.541.04.801.101.536.136.897.542.965 1.112.04.333.017.643-.113.953a1.265 1.265 0 0 1-.767.734c-.068.034-.147.056-.26.09Zm-1.332-.396h.508c.141 0 .282 0 .424-.011.4-.034.795-.22.897-.705.028-.136.022-.282.022-.418-.017-.434-.27-.75-.694-.84-.378-.08-.762-.057-1.157-.057v2.031ZM24.907 35.26h.954c.575 1.772 1.145 3.538 1.72 5.32-.22.057-.428.017-.654.029-.163-.508-.327-1.01-.496-1.535h-1.919c-.203 0-.203 0-.27.198l-.39 1.196c-.011.045-.034.084-.056.13h-.593c.023-.237 1.298-4.25 1.704-5.338Zm.463.434-.88 2.799h1.76c-.293-.937-.587-1.857-.88-2.799ZM37.975 25.684h.592c0 .22.006.423.006.626v1.264c.124-.062.22-.119.321-.158.536-.198 1.067-.209 1.563.107.378.243.559.626.65 1.05a3.166 3.166 0 0 1-.102 1.743c-.254.705-.756 1.106-1.507 1.213-.525.08-1.021-.005-1.523-.17v-5.675Zm.598 3.865v1.185c0 .18.011.186.175.225.034.012.073.017.107.029.71.13 1.377-.136 1.597-.915a2.58 2.58 0 0 0-.023-1.546c-.282-.812-1.207-.886-1.72-.451a.373.373 0 0 0-.142.316c.011.39.006.773.006 1.157ZM1.508 29.375v2.082H.904v-5.321c.068-.006.141-.017.215-.017.451 0 .903-.011 1.354.006.243.01.49.033.717.107.502.152.823.485.936 1.021.09.446.057.88-.135 1.287-.226.462-.632.71-1.134.778-.305.045-.615.04-.926.057-.135.005-.265 0-.423 0Zm.011-.581c.04.01.057.022.074.022.27 0 .547.006.818-.005.147-.006.299-.023.446-.063a.83.83 0 0 0 .632-.767c.01-.141.01-.282.005-.423-.022-.418-.276-.734-.683-.818-.423-.09-.852-.074-1.292-.051v2.105ZM1.518 35.802v1.811h1.953c.005.203.039.373-.034.559h-1.88c-.056.214-.061 1.54-.016 1.867h2.251c.08.181.017.362.045.53-.237.057-2.15.074-2.906.03-.05-.204-.073-4.69-.028-5.31.215-.051 2.116-.063 2.793-.023.045.17.017.339.023.536h-2.2ZM18.67 29.601h-2.634c.034.339.068.655.254.937a.862.862 0 0 0 .48.366c.473.153.936.113 1.376-.124.04-.022.08-.04.152-.079l.266.435c-.13.146-.3.209-.463.265a2.627 2.627 0 0 1-1.546.045 1.32 1.32 0 0 1-.942-.886 3.363 3.363 0 0 1-.017-2.195c.242-.722.869-1.122 1.62-1.117.54.006 1.01.198 1.286.705.146.266.208.565.214.864 0 .248-.028.496-.045.784Zm-.569-.52c0-.157.017-.31-.006-.456-.045-.282-.112-.564-.389-.711-.372-.192-.762-.209-1.123.022-.406.26-.519.672-.519 1.14.688.006 1.354.006 2.037.006ZM36.943 29.37c-.023.343-.045.704-.158 1.06-.17.547-.649 1.072-1.405 1.1-.327.012-.643.006-.954-.118-.502-.203-.744-.61-.857-1.106a3.786 3.786 0 0 1 0-1.778c.197-.806.688-1.275 1.625-1.292.158 0 .316.023.474.046.575.095.925.45 1.111.987.119.355.153.716.164 1.1Zm-.632.061c-.011 0-.028 0-.04-.005 0-.198.012-.395-.005-.593-.006-.107-.05-.22-.08-.327-.197-.694-.778-.835-1.382-.677-.36.09-.536.39-.614.739-.085.372-.085.745-.057 1.117.017.22.045.452.124.655.17.468.497.694 1.084.66.445-.023.778-.305.88-.773.05-.248.062-.525.09-.796ZM11.044 29.538c-.023.158-.045.469-.119.762-.146.604-.598 1.196-1.444 1.23a2.53 2.53 0 0 1-.717-.045c-.615-.141-.948-.576-1.089-1.162a3.76 3.76 0 0 1 .011-1.857c.198-.733.627-1.196 1.592-1.236.248-.01.485.029.716.108.406.14.672.412.841.806.118.288.214.898.209 1.394Zm-.632-.084c-.017-.35-.023-.695-.147-1.027-.113-.31-.31-.53-.638-.61-.118-.028-.242-.022-.36-.028-.531-.04-.886.339-.982.813a4.368 4.368 0 0 0-.051 1.117c.011.22.056.446.13.654.118.339.355.564.727.627.48.084 1.084-.057 1.23-.762.046-.265.063-.525.09-.784ZM30.781 36.462c.09-.005.152-.017.22-.017h.4v4.153c-.084.006-.168.011-.247.011h-.232c-.045-.135-.084-.26-.135-.4l-.17.152c-.44.378-1.19.457-1.72.203-.345-.163-.536-.462-.615-.83a2.422 2.422 0 0 1-.057-.53c-.006-.874 0-1.749 0-2.623 0-.034.006-.074.011-.124h.644v2.68c0 .084 0 .17.005.254.023.338.17.682.683.761.231.034.463.012.688-.096a.858.858 0 0 0 .514-.722c.011-.118.011-.242.011-.367V36.74c-.017-.085-.005-.18 0-.277ZM49.524 40.169v.406c-.39.164-.694.034-.982-.418-.208.22-.451.39-.745.475-.417.118-.818.112-1.19-.119-.694-.434-.683-1.416-.023-1.873.277-.192.587-.294.914-.339.305-.045.616-.056.926-.084a1.837 1.837 0 0 0-.011-.785c-.08-.293-.282-.446-.56-.485-.41-.056-.806.005-1.094.355-.028.034-.05.08-.09.141l-.44-.35c.096-.248.282-.378.48-.485a1.897 1.897 0 0 1 1.681-.084c.434.18.626.547.632 1.004.011.61 0 1.224 0 1.834v.226c.023.372.124.496.502.58Zm-1.066-1.433c-.412-.012-.79-.023-1.163.112-.169.063-.321.147-.445.283-.254.27-.22.868.316 1.01.445.118.857-.017 1.179-.361.056-.057.107-.142.107-.22.017-.266.006-.537.006-.824ZM45.41 29.323c.023.435-.022.824-.163 1.196-.232.61-.666.948-1.32 1.01-.3.029-.593.017-.88-.067-.447-.136-.74-.446-.892-.864-.21-.564-.22-1.15-.147-1.743.034-.271.101-.53.22-.773.22-.44.57-.7 1.055-.796a2.16 2.16 0 0 1 1.106.062c.327.107.57.31.74.61.174.316.264.654.281 1.015.006.124 0 .26 0 .35Zm-.598.096c-.028-.243-.034-.485-.079-.722-.073-.395-.248-.734-.666-.863-.163-.051-.35-.046-.524-.046-.339.006-.598.158-.745.463a1.764 1.764 0 0 0-.147.451 3.494 3.494 0 0 0-.006 1.281c.108.565.316.914.858 1.005.452.079 1.022-.068 1.18-.683.078-.288.123-.581.13-.886ZM38.753 38.475c.023.406-.028.79-.158 1.168a1.48 1.48 0 0 1-1.4 1.021c-.225 0-.456.012-.67-.039-.576-.124-.932-.508-1.084-1.06a3.636 3.636 0 0 1 0-2.026c.209-.706.666-1.123 1.473-1.157.22-.011.45.011.665.056.491.096.813.406.993.863.158.378.21.773.181 1.174Zm-.593.147c-.033-.3-.039-.542-.084-.779-.062-.338-.192-.66-.525-.818a1.19 1.19 0 0 0-1.027-.017c-.355.158-.462.491-.53.84a3.649 3.649 0 0 0 0 1.287c.079.474.327.92.869.993.615.08 1.05-.191 1.168-.7.062-.281.09-.57.13-.806ZM5.112 37.42c-.141-.113-.271-.22-.418-.339.226-.367.553-.553.948-.649.305-.073.61-.062.92-.005.57.107.93.53.937 1.06.005.61.005 1.22.005 1.834 0 .068-.005.13 0 .198.045.485.102.547.502.666 0 .034.006.067.006.107v.27c-.339.187-.677.052-.993-.405-.192.186-.395.36-.655.445-.389.124-.773.141-1.145-.028a1.047 1.047 0 0 1-.638-.897c-.045-.435.124-.79.486-1.044.287-.203.62-.299.964-.344.294-.04.593-.057.903-.085 0-.22.017-.446-.005-.666a.669.669 0 0 0-.61-.603c-.434-.051-.824.033-1.111.395-.023.028-.045.045-.096.09Zm1.822 1.326c-.27 0-.502-.023-.733.005-.305.04-.604.113-.841.345a.601.601 0 0 0-.164.62.614.614 0 0 0 .497.446c.463.09.84-.073 1.151-.406a.328.328 0 0 0 .085-.198c.01-.265.005-.53.005-.812ZM58.789 38.48c.011.407-.034.78-.158 1.152-.214.643-.756 1.032-1.416 1.032-.226 0-.457.006-.672-.04-.519-.112-.857-.445-1.026-.941-.192-.553-.215-1.118-.13-1.688.028-.191.067-.389.13-.57.208-.62.66-.959 1.303-1.038.27-.034.541-.022.812.051.48.124.802.423.982.88.153.373.192.773.175 1.163Zm-.62.097c.005-.367-.029-.717-.159-1.055-.13-.339-.36-.53-.716-.587-.057-.006-.107-.034-.164-.029-.367.006-.705.063-.914.418-.107.18-.164.372-.197.576-.068.4-.045.795 0 1.196.067.581.378.959.92 1.032.49.068.953-.107 1.117-.654.09-.3.124-.604.112-.897ZM12.002 42.133c.04-.197.062-.344.096-.496.135 0 .265-.012.39 0 .564.045.874-.418.942-.819.017-.101-.017-.22-.057-.327-.367-1.06-.733-2.116-1.106-3.17-.079-.22-.152-.441-.226-.661a1.632 1.632 0 0 1-.039-.203h.615c.22.547.39 1.134.581 1.715.192.581.378 1.162.57 1.755.361-1.174.717-2.325 1.072-3.476h.615c-.011.074-.005.136-.028.192-.316.965-.638 1.93-.96 2.895-.18.541-.35 1.083-.54 1.619-.12.327-.3.626-.61.824-.412.26-.841.254-1.315.152ZM59.845 36.456h.44c.04.119.085.237.136.384.096-.068.175-.119.254-.175.395-.293.852-.355 1.315-.27.598.112.925.535.976 1.145.017.242.011.49.011.733v2.319h-.598c-.006-.067-.017-.135-.017-.209 0-.79.006-1.58-.006-2.37a2.52 2.52 0 0 0-.067-.58.642.642 0 0 0-.508-.48c-.502-.113-.926.034-1.23.474-.096.13-.119.288-.119.457.006.807 0 1.62 0 2.426v.288h-.575c-.051-.198-.062-3.786-.012-4.142ZM11.488 36.794l-.4.44c-.045-.023-.09-.04-.124-.068-.271-.203-.576-.265-.903-.236-.028 0-.057 0-.085.005-.265.04-.508.237-.553.457-.05.243.062.48.339.62.299.148.62.26.925.396.232.101.452.225.615.429.339.423.277 1.145-.231 1.529a1.475 1.475 0 0 1-.858.299c-.508.022-.993-.04-1.422-.328-.084-.056-.152-.124-.248-.197.135-.158.248-.288.378-.434.079.056.158.118.243.169.389.242.8.35 1.258.22a.623.623 0 0 0 .474-.643.496.496 0 0 0-.288-.424c-.214-.112-.446-.191-.666-.293-.231-.107-.462-.203-.677-.333-.541-.322-.677-1.202-.017-1.72.373-.289.807-.345 1.253-.294.316.04.62.14.875.35.022.028.062.033.112.056ZM19.371 31.005c.13-.158.248-.293.378-.446.243.226.514.373.83.43.282.05.553.033.823-.091.373-.175.463-.779.051-.982-.276-.136-.564-.248-.84-.372-.232-.102-.469-.192-.655-.373a1.046 1.046 0 0 1-.045-1.467c.372-.406.846-.496 1.36-.451.26.022.513.09.739.237.084.056.163.118.27.203-.135.147-.248.276-.355.39-.209-.091-.39-.181-.581-.249a1.013 1.013 0 0 0-.818.073c-.4.22-.35.74-.057.909.108.056.21.124.316.175.136.062.283.101.418.163.197.085.4.164.587.271.784.435.654 1.433.073 1.828-.265.18-.547.26-.863.282a2.214 2.214 0 0 1-1.456-.372c-.056-.034-.102-.085-.175-.158ZM22.982 31.012c.13-.153.243-.288.367-.43.113.08.209.153.31.21.379.22.785.299 1.214.163a.617.617 0 0 0 .378-.276c.13-.231.146-.576-.18-.756-.272-.147-.56-.254-.841-.378-.243-.102-.48-.209-.678-.384-.366-.322-.423-.97-.079-1.405.21-.26.48-.4.807-.474a1.896 1.896 0 0 1 1.326.198c.096.05.175.13.282.214-.135.147-.248.265-.355.39-.198-.085-.378-.181-.57-.249a1.042 1.042 0 0 0-.74.028.537.537 0 0 0-.366.457.5.5 0 0 0 .26.525c.22.124.457.203.688.305.203.09.418.17.61.282.665.384.716 1.309.084 1.8a1.58 1.58 0 0 1-.801.299 2.56 2.56 0 0 1-1.072-.119 1.612 1.612 0 0 1-.644-.4ZM32.766 36.953h-.598v-.4c.192-.04.39-.085.587-.13.067-.356.13-.706.192-1.056h.423v1.06h1.123v.514h-1.106c-.006.09-.012.153-.012.215v2.28c0 .056 0 .112.006.169.028.299.22.49.514.485.23-.006.456-.05.722-.085.04.113.09.26.152.43-.084.044-.152.09-.231.112-.316.085-.638.135-.97.079-.531-.09-.785-.44-.796-.965-.017-.649-.006-1.298-.012-1.941.006-.237.006-.48.006-.767ZM52.34 36.44v.496h-1.107c-.005.09-.016.152-.016.214v2.455c.022.288.214.485.502.502a1.3 1.3 0 0 0 .71-.141c.057.17.114.322.176.496-.48.21-.954.283-1.434.108-.378-.136-.524-.457-.564-.835-.011-.09-.005-.187-.005-.282V36.947h-.61v-.389c.192-.045.384-.085.593-.13.067-.344.13-.7.203-1.055h.423v1.067h1.128ZM14.79 27.693c-.13.152-.248.293-.384.446a1.296 1.296 0 0 1-.158-.113c-.4-.305-.936-.31-1.331-.011-.232.175-.333.429-.39.694-.101.49-.079.982.029 1.473.197.885 1.218 1.038 1.743.552l.085-.062c.062.068.118.141.175.21.056.061.107.123.169.197-.034.113-.113.169-.203.22a1.645 1.645 0 0 1-.74.231c-.27.017-.535.011-.8-.05a1.29 1.29 0 0 1-.937-.813c-.09-.22-.17-.463-.192-.7-.045-.553-.05-1.1.147-1.636.293-.802 1.055-1.202 1.879-1.067.445.08.682.18.908.43ZM54.288 27.687c-.141.158-.265.293-.39.429-.169-.09-.332-.198-.507-.26-.463-.164-1.1-.011-1.304.643a3.057 3.057 0 0 0-.022 1.744c.231.869 1.157.925 1.659.564.045-.034.09-.062.152-.107.124.135.243.265.367.395-.203.254-.468.35-.74.406a2.344 2.344 0 0 1-.97 0c-.559-.118-.914-.48-1.066-1.004a3.475 3.475 0 0 1 .04-2.156c.287-.863 1.173-1.196 1.878-1.072.333.057.632.158.903.418ZM46.59 27.805h-.604v-.378c.192-.045.39-.084.587-.13.068-.36.124-.71.192-1.055h.406v1.067h1.112c.09.169.05.327.045.502h-1.123c-.011.079-.034.14-.034.203v2.313c.057.406.119.694.711.65.175-.012.344-.057.548-.091l.157.423c-.157.141-.344.164-.524.192-.271.045-.536.05-.807-.023a.881.881 0 0 1-.654-.818c-.006-.096-.006-.186-.006-.282v-2.257c-.006-.101-.006-.192-.006-.316ZM5.08 27.31h.418c.05.135.101.276.158.423.524-.463.993-.598 1.484-.418v.604c-.102-.017-.192-.034-.283-.045-.378-.034-.722.034-1.015.293a.486.486 0 0 0-.17.395c.006.864.006 1.727.006 2.59v.3H5.08V27.31ZM54.19 36.445v4.147h-.625v-4.119c.191-.062.394-.017.626-.028ZM49.553 27.309h.558c.063.214.085 3.334.029 4.136-.09.05-.198.016-.294.022-.09.006-.186 0-.293 0V27.31ZM20.906 38.605H17.79v-.525c.034-.017.079-.045.119-.045h2.996v.57ZM50.264 26.108c0 .248-.186.44-.44.446a.437.437 0 0 1-.457-.451.466.466 0 0 1 .457-.435c.254.006.44.192.44.44ZM54.276 35.266a.429.429 0 0 1-.446.429c-.248-.011-.417-.198-.412-.463a.429.429 0 0 1 .446-.429c.248.006.417.198.412.463Z"/></svg>