<svg width="205" height="48" viewBox="0 0 205 48" fill="none" xmlns="http://www.w3.org/2000/svg">
<g clip-path="url(#clip0_884_24)">
<path d="M42.1814 29.2681L39.998 27.0762L42.1814 24.8868C43.9093 23.1542 43.9093 20.337 42.1814 18.6044L34.5116 10.9134V7.28479C34.5116 6.03954 33.6006 4.978 32.3944 4.81724C31.6971 4.72538 30.9922 4.93718 30.4654 5.4016C30.1983 5.63636 29.9896 5.92215 29.8471 6.23857L25.2055 1.60203C23.5259 -0.0744742 20.8108 -0.0744734 19.1337 1.60458L2.15524 18.6044C0.427361 20.337 0.427361 23.1542 2.15524 24.8868L4.34116 27.0787L2.15524 29.2656C0.424816 31.0008 0.424816 33.8128 2.15524 35.548L8.33641 41.7463C9.12273 42.5347 10.1584 43.0451 11.2654 43.1114C12.5505 43.188 13.7694 42.721 14.6728 41.8177L20.8158 35.6731C21.5716 34.9152 22.7981 34.9177 23.5514 35.6756L29.6665 41.8177C30.5672 42.721 31.7887 43.188 33.0738 43.1114C34.1833 43.0451 35.219 42.5347 36.0028 41.7463L42.1839 35.548C43.9093 33.8179 43.9093 31.0008 42.1814 29.2681ZM4.04089 22.9959C3.35381 22.307 3.35381 21.1893 4.04089 20.5003L20.798 3.69702C21.5538 2.93914 22.7778 2.93914 23.5336 3.69702L40.2907 20.5003C40.9778 21.1893 40.9778 22.307 40.2907 22.9959L38.1099 25.1828L25.2335 12.2582C23.5565 10.574 20.8362 10.5714 19.1541 12.2531L6.22682 25.1904L4.04089 22.9959ZM36.2242 27.0737L34.0841 29.2197C33.7685 29.5361 33.3538 29.7504 32.911 29.776C32.3995 29.8092 31.9108 29.6228 31.552 29.263L25.2055 22.9067C23.5259 21.225 20.8082 21.225 19.1286 22.9067L12.7821 29.263C12.4487 29.5974 12.0085 29.7785 11.5377 29.7785C11.0669 29.7785 10.6266 29.5947 10.2933 29.263L8.11502 27.0787L20.8209 14.3455C21.5767 13.5876 22.8032 13.5876 23.559 14.3481L36.2242 27.0737ZM40.2933 33.6572L34.0841 39.8834C33.7685 40.1999 33.3538 40.4116 32.911 40.4397C32.3995 40.4729 31.9108 40.2866 31.552 39.9268L25.2055 33.5755C23.5259 31.8964 20.8082 31.8964 19.1312 33.5755L12.7847 39.9268C12.4259 40.2866 11.9398 40.4729 11.4257 40.4397C10.9803 40.4116 10.5656 40.1999 10.2526 39.8834L4.04344 33.6572C3.35635 32.9682 3.35635 31.8505 4.04344 31.1615L6.22937 28.9721L8.33641 31.085C9.12273 31.8735 10.1584 32.3839 11.2654 32.4502C12.5505 32.5267 13.7694 32.0598 14.6728 31.1564L20.8158 25.0068C21.5716 24.2489 22.7981 24.2514 23.5539 25.0093L29.6639 31.159C30.5647 32.0624 31.7862 32.5293 33.0712 32.4527C34.1808 32.3864 35.2164 31.8761 36.0002 31.0875L38.1124 28.9696L40.2933 31.1615C40.9778 31.8505 40.9778 32.9707 40.2933 33.6572Z" fill="#C20000"/>
<path d="M159.239 12.5949C159.119 12.5949 159.022 12.4978 159.022 12.3779V9.79811C159.022 9.67817 159.119 9.5812 159.239 9.5812H166.751C167.265 9.5812 167.598 10.0048 167.616 10.4182C167.616 10.4182 167.631 10.8468 167.619 11.2909C167.473 16.3995 164.351 19.9745 159.328 19.9745C154.228 19.9745 150.522 15.8815 150.522 10.7677C150.522 5.65405 154.307 1.45386 159.406 1.45386C163.409 1.45386 165.519 3.9801 165.638 4.08217C165.725 4.16382 165.73 4.30161 165.647 4.38838L163.74 6.41447C163.659 6.50124 163.522 6.50634 163.435 6.42468C163.33 6.31751 161.88 4.61804 159.406 4.61804C156.08 4.61804 153.788 7.43007 153.788 10.7652C153.788 14.1004 156.098 16.8333 159.353 16.8333C161.946 16.8333 163.799 15.4528 164.247 13.1894C164.262 13.1153 164.27 13.0694 164.27 13.0311C164.27 12.7913 164.076 12.5974 163.837 12.5974H159.239V12.5949Z" fill="#0E2638"/>
<path d="M173.829 19.8368C171.398 19.8368 169.574 18.0532 169.574 14.8609V7.40977C169.574 7.28983 169.671 7.19287 169.791 7.19287H172.564C172.684 7.19287 172.78 7.28983 172.78 7.40977V14.0826C172.78 16.0296 173.643 16.9661 175.226 16.9661C176.738 16.9661 177.778 15.9582 177.778 14.0826V7.40977C177.778 7.28983 177.875 7.19287 177.995 7.19287H180.768C180.888 7.19287 180.984 7.28983 180.984 7.40977V19.4157C180.984 19.5357 180.888 19.6327 180.768 19.6327H179.685H179.03H178.224C178.104 19.6327 178.007 19.5357 178.007 19.4157C178.007 19.4157 178.007 18.1374 178.007 17.2008C178.007 17.0809 177.911 16.9839 177.791 16.9839C177.671 16.9839 177.6 17.058 177.567 17.1754C177.267 18.2113 176.328 19.8368 173.829 19.8368Z" fill="#0E2638"/>
<path d="M81.1923 6.87891C77.5939 6.87891 74.6777 9.80321 74.6777 13.4114C74.6777 17.0196 77.5939 19.9439 81.1923 19.9439C84.7905 19.9439 87.7068 17.0196 87.7068 13.4114C87.7068 9.80577 84.7905 6.87891 81.1923 6.87891ZM81.1923 16.8997C79.3193 16.8997 77.8001 15.338 77.8001 13.4114C77.8001 11.4849 79.3193 9.92315 81.1923 9.92315C83.0651 9.92315 84.5843 11.4849 84.5843 13.4114C84.5843 15.338 83.0651 16.8997 81.1923 16.8997Z" fill="#0E2638"/>
<path d="M72.1199 9.9716C71.3386 9.9716 70.5574 10.3595 70.1146 11.2679C69.8067 11.9033 69.7023 12.7913 69.7023 13.9778L69.7074 19.4131C69.7074 19.533 69.6107 19.63 69.4911 19.63H66.7173C66.5978 19.63 66.501 19.533 66.501 19.4131V7.40709C66.501 7.28715 66.5978 7.19019 66.7173 7.19019H68.4553H69.262C69.3817 7.19019 69.4784 7.28715 69.4784 7.40709C69.4784 7.40709 69.4784 8.68552 69.4784 9.62201C69.4784 9.74195 69.575 9.83892 69.6947 9.83892C69.8143 9.83892 69.8856 9.75471 69.9186 9.63987C70.1349 8.88455 70.4785 7.97103 71.1859 7.38668C71.5702 7.06771 72.0562 6.9248 72.5397 6.9248C72.9468 6.9248 73.3871 7.02432 73.8324 7.31012C73.891 7.34839 73.9292 7.41475 73.9292 7.4913V10.2115C73.9292 10.3314 73.8324 10.4284 73.7128 10.4284C73.667 10.4284 73.6288 10.4131 73.5906 10.3901C73.2191 10.1783 72.7407 9.9716 72.1199 9.9716Z" fill="#0E2638"/>
<path d="M124.944 9.9716C124.164 9.9716 123.382 10.3595 122.939 11.2679C122.632 11.9033 122.527 12.7913 122.527 13.9778L122.532 19.4131C122.532 19.533 122.436 19.63 122.316 19.63H119.543C119.423 19.63 119.326 19.533 119.326 19.4131V7.40709C119.326 7.28715 119.423 7.19019 119.543 7.19019H121.28H122.087C122.207 7.19019 122.303 7.28715 122.303 7.40709C122.303 7.40709 122.303 8.68552 122.303 9.62201C122.303 9.74195 122.4 9.83892 122.52 9.83892C122.639 9.83892 122.71 9.75471 122.744 9.63987C122.96 8.88455 123.303 7.97103 124.011 7.38668C124.395 7.06771 124.881 6.9248 125.365 6.9248C125.772 6.9248 126.212 7.02432 126.657 7.31012C126.716 7.34839 126.754 7.41475 126.754 7.4913V10.2115C126.754 10.3314 126.657 10.4284 126.538 10.4284C126.492 10.4284 126.454 10.4131 126.416 10.3901C126.041 10.1783 125.564 9.9716 124.944 9.9716Z" fill="#0E2638"/>
<path d="M189.366 9.9716C188.585 9.9716 187.803 10.3595 187.361 11.2679C187.053 11.9033 186.949 12.7913 186.949 13.9778L186.953 19.4131C186.953 19.533 186.856 19.63 186.738 19.63H183.964C183.844 19.63 183.747 19.533 183.747 19.4131V7.40709C183.747 7.28715 183.844 7.19019 183.964 7.19019H185.701H186.508C186.627 7.19019 186.724 7.28715 186.724 7.40709C186.724 7.40709 186.724 8.68552 186.724 9.62201C186.724 9.74195 186.821 9.83892 186.941 9.83892C187.06 9.83892 187.132 9.75471 187.164 9.63987C187.381 8.88455 187.724 7.97103 188.432 7.38668C188.816 7.06771 189.303 6.9248 189.786 6.9248C190.193 6.9248 190.634 7.02432 191.078 7.31012C191.137 7.34839 191.175 7.41475 191.175 7.4913V10.2115C191.175 10.3314 191.078 10.4284 190.96 10.4284C190.914 10.4284 190.875 10.4131 190.837 10.3901C190.465 10.1783 189.987 9.9716 189.366 9.9716Z" fill="#0E2638"/>
<path d="M197.15 19.8368C194.72 19.8368 192.895 18.0532 192.895 14.8609V7.40977C192.895 7.28983 192.991 7.19287 193.111 7.19287H195.885C196.005 7.19287 196.101 7.28983 196.101 7.40977V14.0826C196.101 16.0296 196.963 16.9661 198.546 16.9661C200.058 16.9661 201.099 15.9582 201.099 14.0826V7.40977C201.099 7.28983 201.195 7.19287 201.315 7.19287H204.089C204.209 7.19287 204.305 7.28983 204.305 7.40977V19.4157C204.305 19.5357 204.209 19.6327 204.089 19.6327H203.005H202.351H201.544C201.424 19.6327 201.328 19.5357 201.328 19.4157C201.328 19.4157 201.328 18.1374 201.328 17.2008C201.328 17.0809 201.231 16.9839 201.111 16.9839C200.993 16.9839 200.921 17.058 200.887 17.1754C200.588 18.2113 199.648 19.8368 197.15 19.8368Z" fill="#0E2638"/>
<path d="M148.623 7.19019H145.719C145.625 7.19019 145.546 7.24887 145.515 7.33308C145.515 7.33308 144.355 10.6504 143.762 12.337C143.454 13.2174 142.933 14.6949 142.65 15.7947C142.627 15.8814 142.549 15.9605 142.438 15.9605C142.343 15.9605 142.255 15.8993 142.23 15.7972C141.935 14.6974 141.39 13.2174 141.065 12.3268C140.327 10.3008 139.245 7.33308 139.245 7.33308C139.215 7.25143 139.135 7.19019 139.042 7.19019H136.135C136.016 7.19019 135.919 7.28715 135.919 7.40708C135.919 7.4377 135.924 7.46577 135.935 7.49129L140.744 19.63L138.861 24.3507C138.85 24.3763 138.845 24.4017 138.845 24.4324C138.845 24.5523 138.942 24.6493 139.062 24.6493H141.876C141.968 24.6493 142.047 24.5931 142.077 24.5115L148.821 7.48619C148.831 7.46067 148.836 7.43515 148.836 7.40708C148.841 7.28715 148.742 7.19019 148.623 7.19019Z" fill="#0E2638"/>
<path d="M58.198 1.73706H56.0172H54.7805H52.6607C52.1823 1.73706 51.793 2.12749 51.793 2.60722V19.4157C51.793 19.5356 51.8896 19.6325 52.0092 19.6325H54.7805C54.9001 19.6325 54.9968 19.5356 54.9968 19.4157V15.2384C54.9968 14.9985 55.1901 14.8047 55.4294 14.8047H56.1114H58.1955C61.9032 14.8047 64.8195 11.8803 64.8195 8.27211C64.822 4.66393 61.9057 1.73706 58.198 1.73706ZM57.9181 11.8701H56.0808H55.4319C55.1927 11.8701 54.9993 11.6762 54.9993 11.4337V5.10793C54.9993 4.86807 55.1927 4.67414 55.4319 4.67414H57.9181C60.0099 4.67414 61.6157 6.2843 61.6157 8.27211C61.6157 10.2599 60.0099 11.8701 57.9181 11.8701Z" fill="#0E2638"/>
<path d="M131.679 10.1654C131.679 10.0455 131.776 9.94851 131.895 9.94851H134.463C134.582 9.94851 134.679 9.85154 134.679 9.73161V7.40951C134.679 7.28959 134.582 7.19261 134.463 7.19261H131.598C131.478 7.19261 131.381 7.09564 131.381 6.97572V4.08457C131.381 3.96465 131.284 3.86768 131.165 3.86768H128.689C128.569 3.86768 128.473 3.96465 128.473 4.08457V15.8584C128.473 18.8949 129.943 19.9437 131.865 19.9437C133.087 19.9437 133.814 19.5686 134.115 19.4257C134.208 19.3798 134.256 19.3057 134.256 19.1986L134.252 17.3154C134.252 17.1675 134.115 17.0475 133.936 17.1138C133.547 17.2593 133.216 17.3562 132.819 17.3562C132.247 17.3562 131.682 17.0857 131.682 16.0242V10.1654H131.679Z" fill="#0E2638"/>
<path d="M89.6758 24.4324C89.6758 24.5522 89.7724 24.649 89.8919 24.649L89.6758 24.4324Z" fill="#B3B3B3"/>
<path d="M92.667 24.649C92.7865 24.649 92.8831 24.5522 92.8831 24.4324L92.667 24.649Z" fill="#B3B3B3"/>
<path d="M97.1186 19.8902C100.317 19.8902 102.936 17.0909 102.936 13.4113C102.936 9.73164 100.317 6.93237 97.1186 6.93237C94.4262 6.93237 93.3294 8.74921 93.0724 9.27233C93.0215 9.3744 92.9375 9.40246 92.8714 9.40246C92.7518 9.40246 92.6551 9.3055 92.6551 9.18557V7.407C92.6551 7.28706 92.5585 7.19009 92.4388 7.19009H89.8941C89.7745 7.19009 89.6777 7.28706 89.6777 7.407V24.4297C89.6777 24.5497 89.7745 24.6466 89.8941 24.6466H92.6678C92.7875 24.6466 92.8842 24.5497 92.8842 24.4297V23.5953C92.8842 19.4793 92.6525 17.8462 92.6525 17.6268C92.6525 17.5069 92.7493 17.4099 92.8689 17.4099C92.9884 17.4099 93.0495 17.5017 93.0673 17.5349C93.5916 18.5837 94.8716 19.8902 97.1186 19.8902ZM96.3322 16.8996C94.4593 16.8996 92.9401 15.3379 92.9401 13.4113C92.9401 11.4847 94.4593 9.92302 96.3322 9.92302C98.2052 9.92302 99.7244 11.4847 99.7244 13.4113C99.7269 15.3379 98.2077 16.8996 96.3322 16.8996Z" fill="#0E2638"/>
<path d="M110.962 6.88159C107.364 6.88159 104.718 9.8059 104.718 13.4141C104.718 17.0222 107.463 19.9466 111.204 19.9466C113.23 19.9466 114.777 19.2372 115.81 18.4079C115.902 18.3339 115.922 18.2038 115.853 18.1093L114.703 16.5145C114.635 16.4175 114.497 16.3946 114.401 16.466C113.889 16.7977 113.144 17.3897 111.446 17.3897C110.016 17.3897 108.744 16.5528 108.14 15.2309C108.082 15.1034 108 14.9221 108 14.8405C108 14.7206 108.097 14.6236 108.216 14.6236C108.216 14.6236 115.668 14.6236 116.186 14.6236C116.533 14.6236 117.042 14.3838 117.072 13.7739C117.265 9.92583 115.131 6.88159 110.962 6.88159ZM113.709 12.4061H108.117C107.998 12.4061 107.901 12.3092 107.901 12.1893C107.901 12.1356 107.952 11.952 108 11.8039C108.456 10.3903 109.598 9.56093 111.125 9.56093C112.415 9.56093 113.38 10.2065 113.881 11.1966C114.024 11.4799 114.144 11.8448 114.144 11.9723C114.144 12.2096 113.947 12.4061 113.709 12.4061Z" fill="#0E2638"/>
<path d="M72.0236 32.1516C72.0236 32.2639 72.1152 32.3124 72.1865 32.3124C72.2603 32.3124 72.3137 32.2716 72.3391 32.1874C72.5784 31.4423 73.2247 29.8984 75.1359 29.8984C75.5354 29.8984 76.0468 29.9954 76.4846 30.2761C76.5431 30.3119 76.5787 30.3782 76.5787 30.4522V32.0088C76.5787 32.1262 76.4846 32.2231 76.3649 32.2231C76.3216 32.2231 76.281 32.2078 76.2454 32.1874C75.8789 31.9807 75.403 31.751 74.6702 31.751C73.8685 31.751 73.0389 32.2461 72.5682 33.2106C72.2653 33.8333 72.1102 34.7494 72.1102 35.8441V42.1596C72.1102 42.277 72.0185 42.3739 71.9014 42.3739H70.5018C70.3848 42.3739 70.2881 42.2795 70.2881 42.1596V30.3756C70.2881 30.2582 70.3823 30.1613 70.5018 30.1613H71.8099C71.9269 30.1613 72.0236 30.2557 72.0236 30.3756V32.1516Z" fill="#0E2638"/>
<path d="M95.947 42.5755C93.4099 42.5755 91.5293 40.8403 91.5293 37.426V30.3756C91.5293 30.2582 91.6235 30.1611 91.743 30.1611H93.1427C93.2597 30.1611 93.3564 30.2556 93.3564 30.3756V37.3775C93.3564 39.3602 94.4227 40.9245 96.6824 40.9245C98.8709 40.9245 100.113 39.2199 100.113 37.3775V30.3756C100.113 30.2582 100.207 30.1611 100.326 30.1611H101.726C101.843 30.1611 101.94 30.2556 101.94 30.3756V42.1596C101.94 42.277 101.846 42.3739 101.726 42.3739L100.418 42.3764C100.301 42.3764 100.204 42.282 100.204 42.1621C100.204 42.1621 100.204 41.3073 100.204 40.3861C100.204 40.2738 100.113 40.2253 100.041 40.2253C99.9677 40.2253 99.9219 40.2789 99.8786 40.3529C99.1203 41.6543 98.0107 42.5755 95.947 42.5755Z" fill="#0E2638"/>
<path d="M83.1742 29.8577C79.6421 29.8577 76.7793 32.7284 76.7793 36.2703C76.7793 39.812 79.6421 42.6827 83.1742 42.6827C86.7063 42.6827 89.5691 39.812 89.5691 36.2703C89.5691 32.7284 86.7063 29.8577 83.1742 29.8577ZM83.1742 40.8532C80.6702 40.8532 78.6395 38.8015 78.6395 36.2703C78.6395 33.7389 80.6702 31.6873 83.1717 31.6873C85.6757 31.6873 87.7064 33.7389 87.7064 36.2703C87.7064 38.8015 85.6783 40.8532 83.1742 40.8532Z" fill="#0E2638"/>
<path d="M68.2061 33.9991C68.2061 33.5219 67.8626 33.1265 67.3588 33.1265H59.9841C59.867 33.1265 59.7703 33.2208 59.7703 33.3408V34.7417C59.7703 34.8591 59.8645 34.956 59.9841 34.956H65.7734C66.0075 34.956 66.1984 35.1474 66.1984 35.3821C66.1984 37.7961 63.9921 40.8761 60.096 40.8761C56.1262 40.8761 53.3118 37.6558 53.3118 33.675C53.3118 29.6944 56.1797 26.3617 60.1495 26.3617C62.7782 26.3617 64.4247 27.834 65.0354 28.421C65.1219 28.5026 65.2542 28.4975 65.3357 28.4133L66.2747 27.4156C66.3561 27.3288 66.351 27.1936 66.2671 27.1145C66.15 27.015 64.0786 24.5347 60.1495 24.5347C55.144 24.5347 51.4287 28.6583 51.4287 33.6776C51.4287 38.6969 55.0651 42.7133 60.0707 42.7133C65.6156 42.7083 68.2061 38.406 68.2061 33.9991Z" fill="#0E2638"/>
<path d="M106.279 30.3756C106.279 30.2583 106.184 30.1613 106.064 30.1613H104.756C104.64 30.1613 104.543 30.2558 104.543 30.3756V47.0871C104.543 47.2044 104.637 47.3015 104.756 47.3015H106.156C106.274 47.3015 106.37 47.2071 106.37 47.0871V46.268C106.37 43.262 106.279 40.8914 106.279 40.3862C106.279 40.2739 106.37 40.2255 106.441 40.2255C106.49 40.2255 106.541 40.2408 106.596 40.3351C107.281 41.4503 108.788 42.6827 111.294 42.6827C114.434 42.6827 117.295 39.8835 117.295 36.2703C117.295 32.6569 114.419 29.8577 111.24 29.8577C108.864 29.8577 107.332 31.08 106.591 32.292C106.559 32.3456 106.513 32.3915 106.439 32.3915C106.367 32.3915 106.276 32.343 106.276 32.2307V30.3756H106.279ZM110.902 40.8532C108.398 40.8532 106.37 38.8015 106.37 36.2703C106.37 33.7389 108.401 31.6873 110.902 31.6873C113.404 31.6873 115.437 33.7389 115.437 36.2703C115.434 38.8015 113.406 40.8532 110.902 40.8532Z" fill="#0E2638"/>
</g>
<defs>
<clipPath id="clip0_884_24">
<rect width="205" height="48" fill="white"/>
</clipPath>
</defs>
</svg>
