<svg xmlns="http://www.w3.org/2000/svg" fill="none" viewBox="0 0 200 40"><g clip-path="url(#clip0_8948_110)"><mask id="mask0_8948_110" width="232" height="63" x="-16" y="-12" maskUnits="userSpaceOnUse" style="mask-type:luminance"><path fill="#fff" d="M-15.317-11.504h230.648V50.5H-15.317v-62.005Z"/></mask><g mask="url(#mask0_8948_110)"><path fill="#1428A0" d="M189.887 17.616v4.22h2.93v4.186c.009.375-.011.778-.074 1.1-.117.782-.85 2.112-2.93 2.112-2.068 0-2.788-1.33-2.913-2.111a7.327 7.327 0 0 1-.075-1.1V12.797c0-.468.032-.98.13-1.367.142-.705.759-2.095 2.842-2.095 2.187 0 2.733 1.466 2.859 2.095.082.417.087 1.116.087 1.116v1.606h7.2v-.95s.033-.99-.055-1.914c-.541-5.428-4.96-7.146-10.027-7.146-5.076 0-9.406 1.734-10.037 7.146-.057.494-.144 1.385-.144 1.915v12.165c0 .53.017.94.114 1.908.47 5.278 4.991 7.15 10.047 7.15 5.087 0 9.576-1.872 10.054-7.15.085-.969.094-1.379.105-1.909v-7.752h-10.113Zm-49.65-12.694h-7.231v21.405c.012.373 0 .793-.063 1.1-.151.718-.753 2.101-2.748 2.101-1.969 0-2.587-1.383-2.726-2.101-.073-.307-.082-.726-.073-1.1V4.922h-7.228v20.741c-.01.535.032 1.627.063 1.913.499 5.405 4.708 7.16 9.964 7.16 5.266 0 9.473-1.755 9.981-7.16.04-.286.092-1.378.061-1.913V4.922Zm-66.44 0L70.19 27.54 66.585 4.922H54.921l-.619 28.935h7.146l.194-26.786 4.916 26.786h7.25L78.73 7.07l.195 26.786h7.164l-.64-28.935H73.797Zm-43.186 0-5.297 28.935h7.724l3.99-26.786 3.896 26.786h7.67L43.32 4.922H30.61Zm134.898 23.296-6.734-23.296h-10.61v28.633h7.019l-.407-24.041 7.231 24.041h10.175V4.922h-7.064l.39 23.296Zm-64.924-15.766a3.92 3.92 0 0 1-.024-1.496c.204-.926.819-1.936 2.591-1.936 1.651 0 2.619 1.042 2.619 2.605v1.77h7.049v-2.017c0-6.235-5.523-7.214-9.522-7.214-5.036 0-9.149 1.68-9.9 6.371-.199 1.277-.248 2.41.068 3.856 1.225 5.85 11.287 7.546 12.747 11.245.258.7.184 1.594.053 2.12-.219.963-.859 1.932-2.756 1.932-1.779 0-2.85-1.035-2.85-2.595l-.002-2.777h-7.587v2.207c0 6.396 4.95 8.326 10.282 8.326 5.107 0 9.324-1.766 10.001-6.553.323-2.473.079-4.084-.05-4.691-1.183-6-11.907-7.804-12.719-11.153ZM7.6 12.382c-.138-.584-.106-1.2-.029-1.52.195-.923.814-1.95 2.617-1.95 1.672 0 2.657 1.051 2.657 2.627v1.791h7.132v-2.033c0-6.294-5.608-7.297-9.65-7.297-5.08 0-9.229 1.706-9.988 6.431-.208 1.297-.243 2.438.057 3.9 1.238 5.916 11.4 7.626 12.878 11.37.277.696.193 1.59.056 2.136-.235.973-.88 1.955-2.793 1.955-1.786 0-2.854-1.053-2.854-2.635l-.01-2.784H0v2.212C0 33.055 5.021 35 10.394 35c5.166 0 9.409-1.782 10.1-6.624.345-2.496.087-4.12-.03-4.736C19.259 17.567 8.415 15.768 7.6 12.38Z"/></g></g><defs><clipPath id="clip0_8948_110"><path fill="#fff" d="M0 4h200v31H0z"/></clipPath></defs></svg>