<svg width="152" height="32" viewBox="0 0 152 32" fill="none" xmlns="http://www.w3.org/2000/svg">
<path d="M4.56137 17.4997C4.48 17.4185 4.37045 17.373 4.25635 17.373C4.14224 17.373 4.03271 17.4185 3.95134 17.4997L0.124832 21.3833C0.0448337 21.4659 0 21.5771 0 21.6929C0 21.8087 0.0448337 21.9199 0.124832 22.0025L9.33064 31.3738C9.412 31.455 9.52155 31.5005 9.63566 31.5005C9.74976 31.5005 9.8593 31.455 9.94066 31.3738L13.7672 27.4902C13.8472 27.4076 13.892 27.2964 13.892 27.1806C13.892 27.0648 13.8472 26.9536 13.7672 26.871L4.56137 17.4997Z" fill="#00B0FF"/>
<path d="M32.5115 16.2068C32.151 15.5032 31.2359 15.4188 30.2654 15.8691C29.354 16.3391 28.3687 16.6438 27.354 16.7696C25.8844 17.051 24.3038 17.4169 23.9434 17.3325C25.4407 16.1786 26.0507 15.3062 25.2189 13.8991C24.3039 12.3513 23.2502 12.7735 22.6401 13.1956C23.1393 12.6046 24.082 11.7041 22.7233 10.1C21.4201 8.58028 20.2278 9.28383 19.59 9.70597C20.0614 9.11498 21.0874 8.10187 19.8119 6.69477C18.5086 5.25952 17.4827 5.79422 16.2349 6.63848C14.8762 7.56717 14.4048 7.67974 13.6007 7.56717C12.852 7.48274 12.0202 7.08875 12.0202 5.23138C12.0202 3.0363 11.1606 2.13575 10.2456 1.34777C9.33053 0.559795 8.44322 0.334659 7.47273 0.616079C6.97362 0.75679 5.9754 1.60105 6.77952 2.5016C7.39835 3.21691 7.85294 4.06277 8.11048 4.9781C8.23579 5.77832 8.29145 6.58819 8.27684 7.39832C8.24911 7.84859 8.41549 10.1 7.97184 11.0849C7.02907 13.1956 6.83497 15.1092 7.13998 16.8259C7.33408 17.9516 8.11047 19.4431 9.24733 20.1467C10.3565 20.8502 10.3565 20.6532 11.1329 22.0885C11.5765 22.9327 13.6839 24.5368 15.3199 24.5368C16.9836 24.5368 19.3405 23.7207 20.8933 22.6513C21.4873 22.2178 22.1078 21.8231 22.7511 21.4694C23.4165 21.0472 24.5811 20.3718 25.4684 20.1748C26.8271 19.8653 30.0159 18.9647 31.6241 18.0923C32.5392 17.5576 32.8165 16.7978 32.5115 16.2068" fill="#00B0FF"/>
<path d="M51.9989 20.9105C51.9989 20.5805 51.9501 20.2843 51.8524 20.022C51.7629 19.7513 51.5919 19.5059 51.3396 19.2859C51.0873 19.0574 50.7333 18.8332 50.2775 18.6132C49.8217 18.3932 49.2316 18.1648 48.5072 17.9279C47.7014 17.6571 46.9364 17.3525 46.212 17.014C45.4957 16.6756 44.8609 16.2821 44.3074 15.8337C43.7621 15.3768 43.3307 14.8479 43.0133 14.2472C42.704 13.6464 42.5494 12.9483 42.5494 12.153C42.5494 11.383 42.7122 10.6849 43.0377 10.0588C43.3633 9.42418 43.8191 8.88265 44.4051 8.4342C44.9911 7.97729 45.6829 7.62614 46.4806 7.38076C47.2863 7.13538 48.1694 7.01269 49.1299 7.01269C50.4403 7.01269 51.5838 7.25807 52.5605 7.74883C53.5372 8.23959 54.2941 8.91227 54.8313 9.76687C55.3766 10.6215 55.6493 11.5988 55.6493 12.6987H52.0111C52.0111 12.1572 51.9012 11.6834 51.6815 11.2772C51.4698 10.8626 51.1443 10.5369 50.7048 10.2999C50.2734 10.063 49.7281 9.94456 49.0688 9.94456C48.434 9.94456 47.9049 10.0461 47.4817 10.2492C47.0585 10.4438 46.741 10.7103 46.5294 11.0488C46.3178 11.3788 46.212 11.7511 46.212 12.1657C46.212 12.4787 46.2852 12.7622 46.4317 13.016C46.5864 13.2699 46.8143 13.5068 47.1154 13.7268C47.4166 13.9468 47.7869 14.1541 48.2264 14.3487C48.6659 14.5433 49.1746 14.7337 49.7525 14.9198C50.7211 15.2244 51.5716 15.5671 52.3041 15.9479C53.0448 16.3287 53.6633 16.756 54.1598 17.2298C54.6563 17.7036 55.0307 18.2409 55.283 18.8417C55.5353 19.4424 55.6615 20.1236 55.6615 20.8851C55.6615 21.6889 55.5109 22.4081 55.2098 23.0428C54.9086 23.6774 54.4732 24.2147 53.9034 24.6546C53.3337 25.0946 52.6541 25.4289 51.8646 25.6573C51.0751 25.8858 50.192 26 49.2153 26C48.3363 26 47.4695 25.8815 46.6149 25.6446C45.7603 25.3992 44.983 25.0312 44.283 24.5404C43.5912 24.0497 43.0377 23.4235 42.6226 22.662C42.2075 21.9005 42 20.9993 42 19.9586H45.6748C45.6748 20.534 45.7603 21.0205 45.9312 21.4182C46.1021 21.8159 46.3422 22.1374 46.6515 22.3828C46.9689 22.6281 47.3433 22.8058 47.7747 22.9158C48.2142 23.0258 48.6944 23.0808 49.2153 23.0808C49.8502 23.0808 50.3711 22.9878 50.778 22.8016C51.1931 22.6155 51.4983 22.3574 51.6937 22.0274C51.8972 21.6974 51.9989 21.3251 51.9989 20.9105Z" fill="white"/>
<path d="M68.4562 19.6159H72.1065C72.0333 20.8597 71.7037 21.9639 71.1176 22.9285C70.5398 23.8931 69.7299 24.6462 68.6881 25.1877C67.6545 25.7292 66.4092 26 64.9523 26C63.8128 26 62.7913 25.7969 61.8879 25.3908C60.9845 24.9762 60.2112 24.3839 59.5683 23.6139C58.9334 22.8439 58.4491 21.9132 58.1154 20.8216C57.7817 19.7301 57.6149 18.5075 57.6149 17.1536V15.8717C57.6149 14.5179 57.7858 13.2953 58.1276 12.2037C58.4776 11.1038 58.9741 10.1688 59.6171 9.3988C60.2682 8.62881 61.0455 8.03652 61.9489 7.62191C62.8524 7.2073 63.8616 7 64.9767 7C66.458 7 67.7074 7.27923 68.7248 7.83768C69.7503 8.39613 70.5438 9.16611 71.1054 10.1476C71.6752 11.1291 72.017 12.246 72.131 13.4983H68.4684C68.4277 12.7537 68.2852 12.1234 68.0411 11.6072C67.7969 11.0826 67.4266 10.6892 66.9301 10.4269C66.4417 10.1561 65.7906 10.0207 64.9767 10.0207C64.3663 10.0207 63.8331 10.1392 63.3774 10.3761C62.9216 10.613 62.539 10.9726 62.2297 11.4549C61.9205 11.9372 61.6885 12.5464 61.5339 13.2826C61.3873 14.0102 61.3141 14.8648 61.3141 15.8464V17.1536C61.3141 18.1098 61.3833 18.9517 61.5216 19.6794C61.66 20.3986 61.8716 21.0078 62.1565 21.507C62.4495 21.9978 62.8239 22.3701 63.2797 22.6239C63.7436 22.8693 64.3011 22.992 64.9523 22.992C65.7174 22.992 66.3481 22.8651 66.8446 22.6112C67.3411 22.3574 67.7196 21.9809 67.98 21.4816C68.2486 20.9824 68.4073 20.3605 68.4562 19.6159Z" fill="white"/>
<path d="M74.5117 7.26653H81.141C82.5002 7.26653 83.6681 7.47807 84.6448 7.90114C85.6297 8.3242 86.3866 8.95035 86.9157 9.77956C87.4447 10.6088 87.7092 11.6284 87.7092 12.8383C87.7092 13.8283 87.5464 14.6787 87.2209 15.3894C86.9034 16.0917 86.4517 16.6798 85.8657 17.1536C85.2878 17.619 84.6082 17.9913 83.8269 18.2705L82.6182 18.9051H78.1743V15.9352H81.1654C81.8084 15.9352 82.3415 15.8167 82.7647 15.5798C83.1879 15.3429 83.5054 15.0129 83.717 14.5898C83.9367 14.1668 84.0466 13.676 84.0466 13.1176C84.0466 12.5253 83.9408 12.0134 83.7292 11.5818C83.5176 11.1503 83.1961 10.8203 82.7647 10.5919C82.3333 10.3634 81.7921 10.2492 81.141 10.2492H78.1743V25.7462H74.5117V7.26653ZM84.4495 25.7462L80.7328 18.9051H82.6182L83.8269 18.2705L88.3685 25.5685V25.7462H84.4495Z" fill="white"/>
<path d="M102.457 22.7762V25.7462H94.192V22.7762H102.457ZM94.192 7.26653V25.7462H90.5294V7.26653H94.192ZM101.224 14.7929V17.6867H94.192V14.7929H101.224ZM102.445 7.26653V10.2492H94.192V7.26653H102.445Z" fill="white"/>
<path d="M111.479 11.1249L106.987 25.7462H103.092L109.697 7.26653H111.479V11.1249ZM115.838 25.7462L111.479 11.1249V7.26653H113.103L119.745 25.7462H115.838ZM113.787 18.8671L114.704 21.9414H108.156L109.1 18.8671H113.787Z" fill="white"/>
<path d="M131.477 19.6159H135.128C135.054 20.8597 134.725 21.9639 134.139 22.9285C133.561 23.8931 132.751 24.6462 131.709 25.1877C130.676 25.7292 129.43 26 127.973 26C126.834 26 125.812 25.7969 124.909 25.3908C124.006 24.9762 123.232 24.3839 122.589 23.6139C121.954 22.8439 121.47 21.9132 121.137 20.8216C120.803 19.7301 120.636 18.5075 120.636 17.1536V15.8717C120.636 14.5179 120.807 13.2953 121.149 12.2037C121.499 11.1038 121.995 10.1688 122.638 9.3988C123.289 8.62881 124.067 8.03652 124.97 7.62191C125.873 7.2073 126.883 7 127.998 7C129.479 7 130.728 7.27923 131.746 7.83768C132.771 8.39613 133.565 9.16611 134.127 10.1476C134.696 11.1291 135.038 12.246 135.152 13.4983H131.489C131.449 12.7537 131.306 12.1234 131.062 11.6072C130.818 11.0826 130.448 10.6892 129.951 10.4269C129.463 10.1561 128.812 10.0207 127.998 10.0207C127.387 10.0207 126.854 10.1392 126.398 10.3761C125.943 10.613 125.56 10.9726 125.251 11.4549C124.942 11.9372 124.71 12.5464 124.555 13.2826C124.408 14.0102 124.335 14.8648 124.335 15.8464V17.1536C124.335 18.1098 124.404 18.9517 124.543 19.6794C124.681 20.3986 124.893 21.0078 125.178 21.507C125.471 21.9978 125.845 22.3701 126.301 22.6239C126.765 22.8693 127.322 22.992 127.973 22.992C128.738 22.992 129.369 22.8651 129.866 22.6112C130.362 22.3574 130.741 21.9809 131.001 21.4816C131.27 20.9824 131.428 20.3605 131.477 19.6159Z" fill="white"/>
<path d="M148.35 14.7929V17.7629H141.195V14.7929H148.35ZM141.195 7.26653V25.7462H137.533V7.26653H141.195ZM152 7.26653V25.7462H148.35V7.26653H152Z" fill="white"/>
</svg>
