<svg xmlns="http://www.w3.org/2000/svg" fill="none" viewBox="0 0 120 40"><g clip-path="url(#a)"><path fill="#000" fill-rule="evenodd" d="M21.468 30.034c-.03.256-.06.506-.093.746.014.14.024.268.034.39.02.254.038.477.078.696.073.393.221.755.62.94.365.171.518.071.538-.331l.01-.208c.014-.311.027-.623.084-.927l.04-.213c.229-1.227.457-2.454.735-3.67.184-.808.402-1.608.62-2.409.1-.367.199-.735.296-1.103.159-.608 0-.926-.584-1.147-.136-.051-.28-.08-.426-.086-.352-.015-.547.141-.622.487l-.296 1.362c-.267 1.218-.534 2.436-.772 3.66-.12.609-.192 1.227-.262 1.813Zm63.614-.542-.59.08c-.516.07-1.022.14-1.53.199-.186.021-.244.11-.274.272-.234 1.278-.43 2.56-.468 3.861-.011.392 0 .785.012 1.178v.002l.01.36c.01.41-.194.547-.579.389a.821.821 0 0 1-.485-.566 6.277 6.277 0 0 1-.236-1.22c-.067-1.055.03-2.106.179-3.151.021-.149.044-.297.067-.446l.026-.171c.02-.136-.028-.18-.162-.135-.125.042-.252.08-.378.119-.246.075-.492.15-.729.248-.553.23-1.13.104-1.503-.37-.143-.182-.129-.345.062-.467.126-.075.26-.136.398-.183a9.765 9.765 0 0 1 2.177-.52c.032-.003.063-.006.094-.014l.046-.01c.246-.06.247-.06.306-.32.303-1.337.691-2.649 1.314-3.877.19-.37.404-.727.637-1.07.357-.532.791-.799 1.622-.5.347.124.666.304.864.644a1.1 1.1 0 0 1 .162.774.943.943 0 0 1-.205.414c-.13.154-.275.123-.39-.045a2.839 2.839 0 0 0-.245-.362c-.236-.25-.54-.24-.765.02a1.975 1.975 0 0 0-.237.37c-.602 1.143-.955 2.377-1.28 3.62-.033.129.03.148.131.145l.386-.013c.36-.013.718-.026 1.077-.034.513-.012 1.026-.02 1.538-.02a.507.507 0 0 0 .367-.116c.699-.6 1.56-.568 2.28-.136.617.37 1.018.913 1.146 1.629.142.785-.14 1.417-.758 1.907-.807.64-1.7.672-2.63.35a2.73 2.73 0 0 1-1.322-.945c-.411-.548-.498-1.13-.18-1.753.018-.045.033-.09.045-.137Zm2.321 2.062c.584.009 1.147-.46 1.313-1.084.114-.428-.028-.776-.342-1.052a.739.739 0 0 0-.75-.162 1.591 1.591 0 0 0-1.104 1.17c-.153.576.291 1.12.883 1.128Zm-15.444-.44c.094.009.188.018.284.03l-.385.925-.001.003v.002c-.28.67-.555 1.334-.833 1.998-.796 1.902-1.713 3.737-2.96 5.39a1.145 1.145 0 0 0-.121.183c-.084.171-.016.308.172.3a.848.848 0 0 0 .443-.13c.269-.19.518-.405.746-.643.807-.864 1.46-1.844 2.022-2.877.5-.916.976-1.845 1.452-2.773l.001-.003c.204-.398.408-.795.614-1.192.616-1.188 1.296-2.333 2.235-3.301.129-.13.25-.269.364-.413.161-.21.138-.373-.074-.533a1.5 1.5 0 0 0-1.033-.292c-.26.016-.417.18-.577.348l-.052.054-.198.203c-.437.45-.874.899-1.328 1.331-.199.18-.422.331-.663.45-.27.139-.478.052-.6-.217a.851.851 0 0 1-.076-.317c-.008-.294-.001-.588.006-.881.01-.488-.093-.65-.563-.742a10.572 10.572 0 0 0-1.16-.14c-.32-.027-.641-.043-.962-.06-.179-.009-.358-.018-.537-.029-.203-.012-.209-.017-.164-.24.254-1.263.565-2.507 1.206-3.64.024-.043.045-.087.064-.133.11-.261.073-.38-.188-.497a2.043 2.043 0 0 0-.49-.14c-.46-.078-.752.08-.942.504-.08.178-.15.362-.218.545a17.946 17.946 0 0 0-.877 3.328c-.026.154-.072.211-.227.202a4.685 4.685 0 0 0-.55.002c-.273.016-.351.13-.257.383a1.191 1.191 0 0 0 .678.73c.149.06.208.144.186.306a5.477 5.477 0 0 0 .02 1.502c.07.503.204.985.6 1.345.214.196.46.321.758.308.263-.01.327-.113.235-.354a4.442 4.442 0 0 0-.064-.155c-.05-.118-.102-.236-.127-.36-.164-.8-.129-1.606-.039-2.413.019-.164.089-.233.25-.25.2-.02.4-.044.599-.068.2-.025.4-.05.6-.07.546-.054.609.008.618.563.016.955.588 1.661 1.517 1.848.195.04.393.06.596.08Zm-36.089.246a1.97 1.97 0 0 0 .18-.23l.072.042.02.299c.016.242.032.484.055.725.015.164-.08.241-.192.325l-.244.183h-.001l-.001.001c-.27.202-.541.403-.798.621-.858.728-1.57 1.575-2.018 2.623-.272.638-.43 1.3-.403 2 .011.355.094.706.242 1.03.47 1.01 1.745 1.33 2.716.689.485-.32.803-.783 1.06-1.29.469-.924.72-1.92.891-2.936.166-.953.264-1.916.294-2.884a.267.267 0 0 1 .15-.265c.824-.422 1.646-.848 2.466-1.278.113-.06.172-.027.245.06.108.133.226.258.352.374.681.617 1.476.948 2.4.903.563-.03 1.11-.2 1.592-.495.41-.246.801-.526 1.192-.804l.169-.121.007-.005c.108-.078.168-.12.217.05.19.647.693.962 1.282 1.14.39.12.773.05 1.068-.288l.069-.079c.315-.36.63-.722.962-1.066.254-.264.525-.51.811-.738.21-.167.373-.124.531.088.038.05.07.106.101.16l.052.09c.316.525.709 1 1.165 1.409.376.328.8.568 1.294.64.203.024.41.007.607-.05.164-.045.18-.186.07-.318a.634.634 0 0 0-.137-.121c-.529-.345-.881-.843-1.168-1.39-.13-.249-.245-.507-.358-.766l-.148-.332c-.248-.545-.737-.75-1.26-.915-.355-.112-.613.068-.87.248l-.095.065c-.082.053-.16.113-.23.18l-.861.84h-.001l-.688.672a2.005 2.005 0 0 1-.302.265c-.192.123-.341.047-.347-.177a3.42 3.42 0 0 1 .04-.585c.084-.56.278-1.088.506-1.604.236-.535.132-.785-.408-.992a1.627 1.627 0 0 0-.208-.069c-.493-.116-.749-.006-.92.472a18.832 18.832 0 0 0-.465 1.578c-.042.16-.082.3-.205.416-.515.49-1.062.939-1.69 1.28-.402.233-.853.37-1.316.403-.654.034-1.123-.29-1.3-.898-.07-.244-.064-.249.159-.363l.319-.163c.382-.195.764-.39 1.14-.598.345-.186.648-.442.89-.753.28-.366.302-.754.072-1.13-.287-.468-1.008-.906-1.717-.626-.24.086-.473.193-.696.318-1.094.66-1.91 1.524-2.009 2.882-.011.157-.105.2-.213.25l-.005.003-.452.208c-.37.17-.739.341-1.107.514-.147.07-.293.144-.44.219l-.203.103a.363.363 0 0 1-.024-.098c.123-.862.304-1.71.648-2.515.027-.064.048-.13.07-.196.011-.039.024-.077.037-.115a.351.351 0 0 0-.133-.424c-.34-.248-.712-.398-1.123-.184-.152.08-.223.045-.334-.067-.34-.341-.756-.452-1.21-.285-.287.1-.561.235-.816.401a6.277 6.277 0 0 0-1.845 1.963c-.095.156-.176.32-.241.492-.11.293-.092.587.116.83.132.16.289.297.464.408.827.499 1.678.455 2.41-.249Zm.285 2.71-.008.134c-.051 1.129-.187 2.246-.533 3.324a6.684 6.684 0 0 1-.526 1.164c-.113.19-.269.349-.455.467-.396.262-.82.112-.958-.344a1.926 1.926 0 0 1-.085-.76c.137-1.176.53-2.263 1.278-3.19.25-.31.53-.593.811-.877.115-.116.23-.233.344-.351a.49.49 0 0 1 .123-.07.878.878 0 0 1 .025.16c-.003.115-.01.23-.016.343Zm-.733-3.424a2.65 2.65 0 0 1-.447.196c-.333.01-.432-.092-.398-.333a1 1 0 0 1 .099-.311 6.38 6.38 0 0 1 1.025-1.46c.067-.072.14-.136.218-.195.158-.118.32-.237.528-.102a.612.612 0 0 1 .244.608c-.025.107-.062.21-.112.308-.26.528-.66.974-1.157 1.289Zm8.09-2.1c-.392.355-.853.605-1.4.89.16-.748.457-1.304 1.082-1.642a.42.42 0 0 1 .42-.004c.2.106.261.254.151.45a1.253 1.253 0 0 1-.253.306Zm66.274 6.613-.026-.475c.013-.207.024-.417.036-.629v-.002c.026-.494.054-.999.104-1.5.046-.45.114-.899.182-1.347v-.002c.035-.229.069-.458.101-.688.019-.135.07-.227.212-.262.483-.121.964-.245 1.446-.369l.359-.092c.124-.032.181.01.178.143-.011.448.154.838.401 1.198.27.397.622.73 1.031.979 1.275.776 2.66.995 4.117.75.461-.07.896-.261 1.259-.555.102-.084.217-.209.127-.342-.026-.038-.115-.033-.203-.028a1.239 1.239 0 0 1-.101.003.29.29 0 0 0-.07.022 6.434 6.434 0 0 1-1.884.21c-.743-.024-1.455-.173-2.073-.612-.165-.117-.307-.266-.45-.415l-.132-.137c-.066-.067-.04-.137.049-.166.06-.012.12-.022.181-.028.674-.138 1.317-.36 1.885-.763.477-.337.591-.86.271-1.35a1.858 1.858 0 0 0-1.746-.88 3.259 3.259 0 0 0-1.902.776l-.015.013c-.098.081-.207.172-.323.197-.486.102-.973.195-1.46.289h-.001c-.242.046-.484.092-.725.14-.125.024-.152-.033-.14-.138a.985.985 0 0 1 .019-.108c.298-1.238.64-2.462 1.146-3.633.054-.136.122-.266.203-.389.24-.342.606-.33.837.022.026.04.046.084.066.128.021.045.041.09.069.131.097.146.211.153.328.02.15-.167.177-.375.149-.586-.069-.521-.384-.855-.836-1.083-.723-.363-1.268-.214-1.682.47-.475.8-.846 1.657-1.103 2.552-.184.619-.344 1.245-.504 1.871v.001l-.001.005-.001.004-.001.004-.001.004-.001.003-.001.003-.001.003c-.049.194-.098.388-.149.582l-.006.023c-.06.233-.061.239-.33.227a10.337 10.337 0 0 1-.351-.024c-.126-.01-.253-.02-.379-.024-.286-.011-.404.11-.324.378.151.508.38.774.859.832.252.03.251.036.23.28-.004.048-.01.097-.018.145-.17 1.116-.289 2.237-.261 3.367.012.515.068 1.027.277 1.508a1.253 1.253 0 0 0 .745.715c.297.106.413.007.394-.308-.022-.35-.041-.7-.06-1.061v-.002Zm4.402-5.137c-.138.046-.212.002-.197-.136-.004-.566.618-1.202 1.158-1.188.188.005.366.07.447.26a.411.411 0 0 1-.107.471l-.03.033h-.002v.002h-.001c-.083.087-.17.178-.274.22-.242.095-.491.175-.74.255h-.001l-.253.083Zm-9.77 1.028c-.241.27-.471.526-.71.772-.331.345-.72.628-1.151.835a1.682 1.682 0 0 1-1.317.068c-.749-.265-1.34-.716-1.562-1.519a2.984 2.984 0 0 1-.091-.907c.066-1.383.344-2.747.825-4.045.137-.377.29-.749.442-1.12v-.001l.194-.479c.284-.709.992-.82 1.518-.688.25.063.326.189.252.429-.037.116-.086.229-.147.335-.71 1.272-1.145 2.643-1.436 4.062-.111.551-.19 1.109-.235 1.67-.02.291.01.585.09.867.104.381.335.514.723.443.215-.042.421-.12.61-.229a5.54 5.54 0 0 0 1.468-1.26c.426-.504.826-1.03 1.224-1.557l.067-.088c.239-.316.38-.381.743-.25.137.05.268.116.389.197.315.21.391.416.29.785-.034.126-.075.249-.116.372h-.001a9.22 9.22 0 0 0-.104.328c-.239.834-.337 1.678-.164 2.54.012.046.022.095.029.143.016.186-.08.299-.254.253a1.434 1.434 0 0 1-.492-.223c-.516-.39-.702-.95-.746-1.572-.008-.105-.006-.21-.004-.333v-.003l.002-.197-.336.372Zm-77.613-.348-.197.19-.08-.03.01-.09c.005-.065.01-.13.024-.193.172-.85.426-1.681.758-2.482.147-.347.072-.582-.257-.776a2.241 2.241 0 0 0-.57-.233c-.288-.075-.493.025-.646.29a2.676 2.676 0 0 0-.195.433c-.336.934-.542 1.901-.725 2.874-.044.203-.066.41-.066.619.014.46.32.716.683.928.606.353 1.056.29 1.523-.219l.404-.442c.368-.404.736-.807 1.112-1.203.188-.192.392-.368.61-.526.184-.138.304-.098.408.107.024.05.045.101.065.153.025.063.049.125.081.183l.127.233c.126.234.252.468.408.68.417.565.977.92 1.684.992.217.013.436-.006.648-.059a.26.26 0 0 0 .21-.304c-.021-.127-.13-.131-.231-.135l-.034-.002c-.416-.023-.706-.24-.893-.604a1.91 1.91 0 0 1-.155-.37 40.81 40.81 0 0 0-.082-.296c-.098-.349-.196-.698-.259-1.052-.11-.621-.49-.954-1.052-1.144a.818.818 0 0 0-.767.09 5.282 5.282 0 0 0-.663.517c-.329.316-.65.64-.97.965-.161.162-.322.325-.484.486-.141.142-.285.28-.429.42Zm32.153-.122c-.322.263-.63.515-.95.752-.332.247-.693.462-1.115.52a1.747 1.747 0 0 1-.506-.002c-.586-.095-1.458-.687-1.584-1.543a1.658 1.658 0 0 1 .026-.613c.133-.557.274-1.114.453-1.658.149-.45.409-.549.859-.393.081.026.16.059.236.098.429.24.628.46.37 1.008-.192.41-.335.839-.316 1.307.021.535.376.778.869.552.254-.117.49-.27.703-.452.69-.595 1.273-1.282 1.676-2.11.12-.245.268-.31.541-.224.27.084.512.24.701.45a.547.547 0 0 1 .146.439c-.017.178-.039.355-.06.532-.021.175-.042.35-.06.524-.076.75-.068 1.49.27 2.191.108.223.046.319-.19.34a.926.926 0 0 1-.59-.159c-.558-.357-.864-.88-.99-1.52a4.262 4.262 0 0 1-.038-.248l-.02-.141c-.147.118-.29.235-.431.35Zm32.126 1.086.147-.754.002-.008c.114-.586.228-1.173.183-1.775a4 4 0 0 0-.059-.397c-.044-.253.036-.373.288-.405.246-.027.493.032.7.167.201.115.384.259.544.427.123.14.19.162.348.058a6.204 6.204 0 0 1 2.05-.846c.538-.12 1.083-.187 1.628-.04.127.035.245.1.342.19a.298.298 0 0 1 .066.261c-.023.065-.14.118-.224.133-.148.027-.297.047-.445.067a5.808 5.808 0 0 0-.707.124c-1.64.43-2.688 1.513-3.288 3.072a3.363 3.363 0 0 0-.049.139 2.24 2.24 0 0 1-.076.205c-.103.23-.298.357-.528.275a3.403 3.403 0 0 1-.736-.388c-.162-.11-.181-.309-.186-.505Zm-28.172-3.482c-.134.534-.26 1.07-.24 1.627l-.001.13c-.002.092-.004.184.003.275.037.468.132.921.405 1.315.257.37.596.612 1.062.62.31.005.376-.087.274-.382a4.084 4.084 0 0 1 .084-2.973c.024-.056.045-.113.062-.172.097-.368 0-.624-.337-.8-.195-.099-.4-.176-.614-.228-.242-.061-.43.034-.555.252-.063.105-.111.218-.143.336Zm45.585-2.882c.004.254-.096.36-.344.366l-.021-.001-.015-.001c-.505-.013-1.346-.72-1.44-1.211-.038-.197.047-.337.236-.389a.551.551 0 0 1 .072-.011c.605-.083 1.416.53 1.504 1.138a.92.92 0 0 1 .006.074l.002.035Zm-44.246-1.204a1.745 1.745 0 0 0-.265-.072c-.281.002-.431.128-.426.352a.695.695 0 0 0 .106.341c.303.472.762.698 1.3.781a.526.526 0 0 0 .246-.048c.174-.065.217-.167.152-.344a.635.635 0 0 0-.084-.162c-.274-.366-.601-.67-1.029-.848Z" clip-rule="evenodd"/><path fill="#099" d="M.313 15.475v-3.048c1.738.546 3.276.819 4.614.819 1.845-.002 2.768-.49 2.768-1.467a1.199 1.199 0 0 0-.404-.917c-.273-.261-.977-.627-2.112-1.097-2.036-.832-3.362-1.542-3.98-2.133C.4 6.855 0 5.872 0 4.686c0-1.529.582-2.695 1.747-3.5C2.912.381 4.414-.013 6.251.002c1.02 0 2.495.188 4.426.563v2.934c-1.436-.573-2.768-.86-3.997-.86-1.734 0-2.601.478-2.601 1.432.003.364.204.696.523.873.288.181 1.087.567 2.399 1.156 1.887.837 3.143 1.565 3.769 2.183.742.734 1.113 1.683 1.113 2.849 0 1.676-.728 2.953-2.184 3.83-1.183.715-2.712 1.071-4.589 1.07a21.073 21.073 0 0 1-4.796-.563v.006ZM14.325.273h4.324v15.45h-4.324V.273Zm8.278 15.45V.273h11.078v2.795h-6.914v3.488h6.021v2.549h-6.02v3.668h7.093v2.959l-11.258-.009Zm14.076 0V.273h5.601l3.9 9.872L50.16.273h5.32v15.45h-4.096V4.78L46.85 15.873h-2.691L39.71 4.78v10.943h-3.032Zm22.764 0V.273H70.52v2.795h-6.914v3.488h6.02v2.549h-6.02v3.668h7.094v2.959l-11.258-.009Zm14.1 0V.273h5.007l5.31 10.344V.273h3.044v15.45H82.04L76.587 5.241v10.482h-3.044Zm16.429-.25v-3.047c1.724.546 3.262.819 4.613.819 1.847 0 2.77-.488 2.77-1.463a1.214 1.214 0 0 0-.39-.917c-.278-.262-.987-.626-2.127-1.092-2.03-.829-3.356-1.542-3.98-2.14-.8-.771-1.2-1.758-1.2-2.958 0-1.522.583-2.682 1.748-3.482C92.556.398 94.058 0 95.91 0c1.04 0 2.388.165 4.042.496l.382.066v2.935c-1.436-.573-2.773-.86-4.011-.86-1.728 0-2.592.477-2.59 1.431.003.364.202.697.522.873.277.175 1.082.561 2.414 1.157 1.875.837 3.127 1.565 3.757 2.184.738.733 1.107 1.683 1.107 2.849 0 1.676-.724 2.953-2.174 3.83-1.183.715-2.717 1.07-4.601 1.07a21.052 21.052 0 0 1-4.797-.563l.012.006Z"/></g><defs><clipPath id="a"><path fill="#fff" d="M0 0h120v40H0z"/></clipPath></defs></svg>