<svg width="170" height="50" viewBox="0 0 170 50" fill="none" xmlns="http://www.w3.org/2000/svg">
<g clip-path="url(#clip0_226_11334)">
<path d="M170 16.5H153.4V0H136.5V16.5H120V33.5H136.5V50H153.4V33.5H170V16.5Z" fill="#E00024"/>
<path d="M0.500012 21.2C1.10001 20 2.30001 19.4 3.70001 19.5C5.20001 19.5 6.00001 20.1 6.00001 20.1C6.00001 20.1 6.00001 21.9 6.00001 22.7C5.50001 22.4 5.00001 22.1 4.40001 22C3.80001 21.9 3.40001 22 3.00001 22.4C2.60001 22.8 2.60001 23.4 2.80001 23.9C3.00001 24.5 3.50001 24.8 4.00001 25.2C4.70001 25.7 5.30001 26.2 5.90001 26.8C7.70001 28.9 6.70001 32.6 4.10001 33.4C3.60001 33.5 3.10001 33.6 2.60001 33.5C1.70001 33.4 0.700012 33 0.700012 33V30.5C0.700012 30.5 1.50001 30.8 1.70001 30.9C2.10001 31 2.50001 31.1 2.90001 31C3.50001 30.9 3.90001 30.6 4.10001 30.1C4.30001 29.5 4.20001 29 3.80001 28.6C3.60001 28.3 3.30001 28.1 3.00001 27.9C1.90001 27.2 0.800012 26.3 0.300012 25.1C0.200012 24.8 -0.499988 23.3 0.500012 21.2Z" fill="black"/>
<path d="M9.7 33.4001L7 24.1001H9.4C9.4 24.1001 9.8 25.3001 9.9 25.8001C10.1 26.9001 10.4 28.2001 10.7 29.3001C10.9 28.3001 11.8 24.1001 11.8 24.1001H14.1C14.1 24.1001 14.9 28.0001 15.2 29.3001C15.6 27.6001 16.3 24.1001 16.3 24.1001H18.8L16.3 33.4001H14.3C14.3 33.4001 12.9 28.0001 12.8 28.0001C12.7 28.0001 11.5 33.4001 11.5 33.4001H9.7Z" fill="black"/>
<path d="M26.9 24.1001C27.6 24.1001 28.1 24.3001 28.7 24.6001C28.9 24.7001 29.1 24.8001 29.1 24.8001L28.1 26.6001C28.1 26.6001 27.5 26.3001 27.4 26.3001C27 26.1001 26.6 26.0001 26.3 26.5001C26 27.0001 26.4 27.3001 26.8 27.5001C27.2 27.7001 27.5 27.9001 27.9 28.1001C29 28.8001 29.2 29.9001 29 31.1001C28.8 32.2001 28.3 33.0001 27.1 33.4001C26.1 33.7001 25.2 33.6001 24.4 33.2001C23.9 32.9001 23.5 32.5001 23.5 32.5001L24.6 30.8001C24.6 30.8001 24.8 30.9001 24.9 31.0001C25 31.1001 25.2 31.2001 25.3 31.2001C25.7 31.4001 26.2 31.4001 26.4 30.9001C26.6 30.4001 26.4 30.1001 26 29.9001C25.8 29.8001 25.6 29.7001 25.3 29.5001C23.9 28.7001 23.3 27.6001 23.7 26.1001C24.2 24.9001 25.4 24.1001 26.9 24.1001Z" fill="black"/>
<path d="M33.6002 24.1001C34.3002 24.1001 34.8002 24.3001 35.4002 24.6001C35.6002 24.7001 35.8002 24.8001 35.8002 24.8001L34.8002 26.6001C34.8002 26.6001 34.2002 26.3001 34.1002 26.3001C33.7002 26.1001 33.3002 26.0001 33.0002 26.5001C32.7002 27.0001 33.1002 27.3001 33.5002 27.5001C33.9002 27.7001 34.2002 27.9001 34.6002 28.1001C35.7002 28.8001 35.9002 29.9001 35.7002 31.1001C35.5002 32.2001 35.0002 33.0001 33.8002 33.4001C32.8002 33.7001 31.9002 33.6001 31.1002 33.2001C30.6002 32.9001 30.2002 32.5001 30.2002 32.5001L31.3002 30.8001C31.3002 30.8001 31.5002 30.9001 31.6002 31.0001C31.7002 31.1001 31.9002 31.2001 32.0002 31.2001C32.4002 31.4001 32.9002 31.4001 33.1002 30.9001C33.3002 30.4001 33.1002 30.1001 32.7002 29.9001C32.5002 29.8001 32.3002 29.7001 32.0002 29.5001C30.6002 28.7001 30.0002 27.6001 30.4002 26.1001C30.9002 24.9001 32.1002 24.1001 33.6002 24.1001Z" fill="black"/>
<path d="M95.1002 24.1001C95.8002 24.1001 96.3002 24.3001 96.9002 24.6001C97.1002 24.7001 97.3002 24.8001 97.3002 24.8001L96.3002 26.6001C96.3002 26.6001 95.7002 26.3001 95.6002 26.3001C95.2002 26.1001 94.8002 26.0001 94.5002 26.5001C94.2002 27.0001 94.6002 27.3001 95.0002 27.5001C95.4002 27.7001 95.7002 27.9001 96.1002 28.1001C97.2002 28.8001 97.4002 29.9001 97.2002 31.1001C97.0002 32.2001 96.5002 33.0001 95.3002 33.4001C94.3002 33.7001 93.4002 33.6001 92.6002 33.2001C92.1002 32.9001 91.7002 32.5001 91.7002 32.5001L92.8002 30.8001C92.8002 30.8001 93.0002 30.9001 93.1002 31.0001C93.2002 31.1001 93.4002 31.2001 93.5002 31.2001C93.9002 31.4001 94.4002 31.4001 94.6002 30.9001C94.8002 30.4001 94.6002 30.1001 94.2002 29.9001C94.0002 29.8001 93.8002 29.7001 93.5002 29.5001C92.1002 28.7001 91.5002 27.6001 91.9002 26.1001C92.4002 24.9001 93.6002 24.1001 95.1002 24.1001Z" fill="black"/>
<path d="M101.8 24.1001C102.5 24.1001 103 24.3001 103.6 24.6001C103.8 24.7001 104 24.8001 104 24.8001L103 26.6001C103 26.6001 102.4 26.3001 102.3 26.3001C101.9 26.1001 101.5 26.0001 101.2 26.5001C100.9 27.0001 101.3 27.3001 101.7 27.5001C102.1 27.7001 102.4 27.9001 102.8 28.1001C103.9 28.8001 104.1 29.9001 103.9 31.1001C103.7 32.2001 103.2 33.0001 102 33.4001C101 33.7001 100.1 33.6001 99.2999 33.2001C98.7999 32.9001 98.3999 32.5001 98.3999 32.5001L99.4999 30.8001C99.4999 30.8001 99.6999 30.9001 99.7999 31.0001C99.8999 31.1001 100.1 31.2001 100.2 31.2001C100.6 31.4001 101.1 31.4001 101.3 30.9001C101.5 30.4001 101.3 30.1001 100.9 29.9001C100.7 29.8001 100.5 29.7001 100.2 29.5001C98.7999 28.7001 98.1999 27.6001 98.5999 26.1001C99.0999 24.9001 100.3 24.1001 101.8 24.1001Z" fill="black"/>
<path d="M81.3002 25.1001C82.0002 23.9001 83.3002 23.9001 83.3002 23.9001V26.2001C83.3002 26.2001 81.3002 26.0001 81.3002 28.0001C81.3002 29.1001 81.3002 33.5001 81.3002 33.5001H78.7002V24.2001H81.3002C81.3002 24.1001 81.3002 24.9001 81.3002 25.1001Z" fill="black"/>
<path d="M19.8999 33.4001V24.1001H22.4999V33.4001H19.8999Z" fill="black"/>
<path d="M22.7998 21.5C22.7998 22.4 22.0998 23.1 21.1998 23.1C20.2998 23.1 19.4998 22.3 19.5998 21.4C19.5998 20.5 20.3998 19.8 21.2998 19.8C22.0998 19.8 22.7998 20.6 22.7998 21.5Z" fill="black"/>
<path d="M3.0998 27.2C3.0998 27.3 3.0998 27.4 2.8998 27.4C2.7998 27.4 2.7998 27.3 2.7998 27.2C2.8998 27.1 2.9998 27 2.9998 27C3.0998 27 3.1998 27.1 3.0998 27.2Z" fill="black"/>
<path d="M50.1 33.4001C50.1 33.4001 47.7 27.3001 47.7 27.1001C47.7 27.0001 47.8 26.9001 47.9 26.9001C49.1 26.2001 49.5 25.0001 49.5 23.7001C49.6 21.6001 48.5 20.2001 46.4 19.9001C45.1 19.7001 42 19.8001 42 19.8001V33.5001H44.7C44.7 33.5001 44.7 29.2001 44.7 27.4001C44.8 27.5001 47.2 33.5001 47.2 33.5001L50.1 33.4001ZM45.3 25.4001C45 25.4001 44.8 25.3001 44.8 25.3001V21.9001C44.8 21.9001 45 21.8001 45.3 21.8001C46.3 21.8001 47 22.5001 47 23.6001C46.9 24.9001 46.5 25.4001 45.3 25.4001Z" fill="black"/>
<path d="M56.1998 25.6001C55.0998 23.7001 52.3998 23.6001 51.1998 25.4001C49.8998 27.5001 49.8998 29.7001 50.8998 31.9001C51.4998 33.1001 52.6998 33.6001 54.0998 33.4001C55.1998 33.3001 55.8998 32.7001 56.2998 31.8001C56.5998 31.2001 56.5998 30.5001 56.5998 30.5001C56.5998 30.5001 54.5998 30.5001 54.4998 30.5001C54.4998 30.5001 54.1998 31.4001 53.5998 31.4001C52.4998 31.4001 52.5998 29.5001 52.5998 29.5001H56.4998C56.6998 29.4001 56.8998 26.7001 56.1998 25.6001ZM52.7998 27.8001C52.7998 27.8001 52.7998 27.7001 52.7998 27.5001C52.7998 27.5001 52.7998 26.0001 53.6998 26.0001C54.6998 26.0001 54.5998 27.7001 54.5998 27.7001L52.7998 27.8001Z" fill="black"/>
<path d="M64.5999 19.1001H61.9999C61.9999 19.1001 61.9999 24.2001 61.9999 25.3001C61.5999 24.6001 61.0999 24.2001 60.3999 24.1001C59.3999 24.0001 58.6999 24.5001 58.2999 25.6001C57.6999 27.1001 57.6999 28.7001 57.8999 30.2001C57.9999 31.1001 58.2999 31.9001 58.7999 32.6001C59.4999 33.5001 60.6999 33.5001 61.4999 32.7001C61.5999 32.6001 61.6999 32.5001 61.7999 32.3001C61.7999 32.4001 61.7999 33.2001 61.7999 33.2001H64.4999L64.5999 19.1001ZM61.2999 31.2001C60.7999 31.2001 60.2999 30.1001 60.2999 28.7001C60.2999 27.3001 60.6999 26.2001 61.2999 26.2001C61.8999 26.2001 62.2999 27.3001 62.2999 28.7001C62.2999 30.1001 61.7999 31.2001 61.2999 31.2001Z" fill="black"/>
<path d="M72.9001 26.6002C72.9001 29.1002 74.8001 31.1002 77.1001 31.1002C77.2001 31.1002 77.3001 31.1002 77.4001 31.1002V33.3002C77.0001 33.4002 76.6001 33.4002 76.2001 33.4002C72.8001 33.4002 70.1001 30.3002 70.1001 26.5002C70.1001 22.7002 72.8001 19.7002 76.2001 19.7002C76.6001 19.7002 77.0001 19.7002 77.4001 19.8002V22.0002C77.3001 22.0002 77.2001 22.0002 77.1001 22.0002C74.7001 22.1002 72.9001 24.1002 72.9001 26.6002Z" fill="black"/>
<path d="M87.2998 24.1001C85.3998 24.1001 83.7998 26.2001 83.7998 28.8001C83.7998 31.4001 85.3998 33.5001 87.2998 33.5001C89.1998 33.5001 90.7998 31.4001 90.7998 28.8001C90.7998 26.2001 89.1998 24.1001 87.2998 24.1001ZM87.2998 31.2001C86.7998 31.2001 86.3998 30.1001 86.3998 28.8001C86.3998 27.5001 86.7998 26.4001 87.2998 26.4001C87.7998 26.4001 88.1998 27.5001 88.1998 28.8001C88.1998 30.1001 87.7998 31.2001 87.2998 31.2001Z" fill="black"/>
</g>
<defs>
<clipPath id="clip0_226_11334">
<rect width="170" height="50" fill="white"/>
</clipPath>
</defs>
</svg>
