<svg width="212" height="50" viewBox="0 0 212 50" fill="none" xmlns="http://www.w3.org/2000/svg">
<g clip-path="url(#clip0_229_69)">
<path d="M88.8273 40.0712C88.6591 39.5127 88.5544 38.9373 88.5152 38.3555C87.8585 39.0721 87.0442 39.6259 86.1367 39.9737C85.0428 40.3958 83.8773 40.6011 82.7052 40.5781C80.4953 40.5781 78.8771 40.0906 77.8503 39.116C76.8232 38.1409 76.3097 36.8734 76.3099 35.3138C76.3099 33.9364 76.5309 32.8381 76.9729 32.0188C77.3958 31.2199 78.0295 30.5522 78.8055 30.0886C79.6699 29.5889 80.6127 29.2395 81.5939 29.0552C82.6724 28.8348 83.8486 28.6334 85.1229 28.4508C86.3961 28.2693 87.2541 28.029 87.6964 27.7295C88.1381 27.4309 88.3591 26.9434 88.3594 26.2672C88.3624 25.9662 88.282 25.6702 88.1273 25.4121C87.9724 25.154 87.7489 24.9438 87.482 24.8049C86.7572 24.4207 85.9422 24.2388 85.1229 24.2785C83.953 24.2785 83.1146 24.5384 82.6077 25.0584C82.0771 25.6279 81.7425 26.3519 81.6522 27.1249H76.934C76.9492 26.1949 77.1138 25.2734 77.4213 24.3956C77.7152 23.5712 78.2113 22.8337 78.8641 22.2508C79.6166 21.6046 80.5019 21.132 81.4574 20.8666C82.7265 20.515 84.04 20.3507 85.3566 20.3791C86.6555 20.3505 87.9508 20.5215 89.1978 20.886C90.1472 21.1639 91.0163 21.6653 91.7323 22.3483C92.3851 23.0131 92.861 23.8309 93.1166 24.727C93.4157 25.7727 93.5602 26.8565 93.5456 27.9439V40.0712H88.8273ZM88.4762 30.6734C88.1544 30.9685 87.7666 31.1823 87.3456 31.2975C86.64 31.5044 85.9243 31.6737 85.2008 31.8044C83.7445 32.0906 82.7436 32.4544 82.1983 32.8961C81.9224 33.1287 81.7047 33.4226 81.5624 33.7544C81.4202 34.0862 81.3574 34.4467 81.3793 34.8069C81.3793 36.237 82.1983 36.9519 83.8359 36.9516C84.4561 36.9572 85.0713 36.8447 85.6492 36.6201C86.7108 36.2174 87.5762 35.4212 88.0668 34.3975C88.313 33.8936 88.4398 33.34 88.4373 32.7793L88.4762 30.6734Z" fill="white"/>
<path d="M107.31 26.6956C107.18 25.7598 106.842 25.1034 106.297 24.7265C105.751 24.3499 104.893 24.1614 103.723 24.161C102.964 24.1244 102.206 24.2508 101.5 24.5315C101.26 24.6312 101.056 24.8027 100.916 25.0224C100.777 25.2423 100.708 25.4997 100.72 25.7598C100.714 26.0289 100.783 26.2945 100.921 26.5257C101.059 26.7569 101.26 26.9442 101.5 27.0659C102.242 27.4506 103.028 27.7453 103.84 27.9434C104.932 28.2552 105.971 28.5348 106.959 28.7815C107.845 28.9975 108.717 29.2644 109.572 29.5812C110.49 29.9268 111.298 30.5124 111.912 31.2776C112.457 31.9925 112.73 32.974 112.731 34.2215C112.731 36.2235 112.022 37.7831 110.605 38.9008C109.188 40.0188 107.102 40.5776 104.347 40.5776C101.383 40.5776 99.1149 39.9536 97.5423 38.7058C96.795 38.1472 96.1865 37.4237 95.7638 36.592C95.3412 35.7602 95.1158 34.8423 95.105 33.9094H100.33C100.312 34.321 100.399 34.7304 100.583 35.0989C100.768 35.4674 101.043 35.7829 101.383 36.0152C102.085 36.5094 103.06 36.7563 104.308 36.7561C105.123 36.7743 105.933 36.6215 106.686 36.3077C106.997 36.1911 107.262 35.9793 107.444 35.7025C107.626 35.426 107.716 35.0983 107.7 34.7674C107.715 34.4619 107.635 34.1588 107.471 33.9005C107.307 33.642 107.067 33.4409 106.784 33.3246C106.088 33.0094 105.363 32.7613 104.62 32.5837C103.007 32.1936 101.708 31.8425 100.72 31.5309C99.8409 31.269 99.0011 30.8884 98.2246 30.4C97.4227 29.942 96.7669 29.266 96.3334 28.4503C95.9793 27.7077 95.7992 26.8944 95.8069 26.0718C95.8008 25.2971 95.9467 24.5287 96.2359 23.81C96.5343 23.0916 97.0188 22.4657 97.6398 21.9968C98.3925 21.4403 99.247 21.0363 100.155 20.8075C101.372 20.4987 102.624 20.3544 103.879 20.3786C106.66 20.3786 108.707 20.9115 110.02 21.9774C111.333 23.0436 112.054 24.6164 112.185 26.6956H107.31Z" fill="white"/>
<path d="M125.949 40.0714L121.738 31.4534L119.281 33.9882V40.0714H114.173V13.8672H119.281V28.178L125.598 20.8862H131.798L125.364 27.944L131.642 40.0714H125.949Z" fill="white"/>
<path d="M132.89 40.0706V14.1784H142.911C144.564 14.1621 146.204 14.4598 147.746 15.0557C149.181 15.6091 150.478 16.4673 151.548 17.5708C152.634 18.7156 153.477 20.0687 154.024 21.5483C154.646 23.246 154.95 25.0437 154.921 26.8515C154.943 28.6827 154.673 30.5057 154.122 32.2521C153.643 33.7791 152.868 35.1968 151.841 36.4244C150.868 37.5695 149.657 38.488 148.292 39.1153C146.86 39.7639 145.302 40.0899 143.73 40.0706H132.89ZM142.638 35.6639C145.003 35.6639 146.719 34.9297 147.785 33.4609C148.851 31.9924 149.384 29.7894 149.384 26.8515C149.405 25.5926 149.274 24.3357 148.994 23.1081C148.784 22.1671 148.349 21.2908 147.727 20.5539C147.124 19.8791 146.349 19.3805 145.485 19.1111C144.41 18.7891 143.291 18.6378 142.17 18.6627H138.154V35.6639H142.638Z" fill="white"/>
<path d="M161.316 31.804C161.394 33.26 161.817 34.4169 162.583 35.2744C162.962 35.6982 163.428 36.033 163.951 36.2556C164.473 36.478 165.038 36.5824 165.606 36.5614C166.378 36.5769 167.14 36.3813 167.809 35.9959C168.109 35.8285 168.373 35.6026 168.584 35.3313C168.795 35.06 168.949 34.749 169.037 34.4167H174.262C173.664 36.3924 172.624 37.9131 171.143 38.9788C169.592 40.0664 167.733 40.6266 165.839 40.5777C159.444 40.5777 156.247 37.094 156.247 30.1272C156.228 28.7628 156.439 27.4051 156.871 26.1109C157.255 24.9691 157.872 23.9199 158.684 23.0303C159.491 22.1627 160.484 21.4894 161.589 21.0611C162.847 20.586 164.183 20.3544 165.528 20.3787C168.491 20.3787 170.733 21.3275 172.254 23.2253C173.775 25.1232 174.535 27.9827 174.535 31.804H161.316ZM169.31 28.6064C169.298 27.9719 169.172 27.3447 168.939 26.7543C168.742 26.2565 168.443 25.8051 168.062 25.4285C167.706 25.0829 167.281 24.8171 166.815 24.6486C166.352 24.4807 165.863 24.3949 165.371 24.3951C164.88 24.3908 164.393 24.4872 163.94 24.6783C163.488 24.8695 163.079 25.1513 162.739 25.5064C161.999 26.2474 161.576 27.2807 161.472 28.6064H169.31Z" fill="white"/>
<path d="M188.573 40.0713V28.4509C188.573 26.9691 188.326 25.9683 187.832 25.4484C187.338 24.9287 186.493 24.6688 185.298 24.6686C182.671 24.6686 181.359 26.1373 181.359 29.0749V40.0713H176.29V20.8861H181.125V23.6937C181.667 22.6595 182.492 21.8007 183.504 21.2175C184.491 20.6588 185.765 20.3794 187.325 20.3792C188.187 20.3714 189.044 20.5099 189.86 20.7886C190.612 21.0446 191.298 21.4641 191.868 22.017C192.443 22.5881 192.895 23.2717 193.194 24.0252C193.534 24.9011 193.699 25.8349 193.681 26.7742V40.0713H188.573Z" fill="white"/>
<path d="M206.783 27.4366H211.501V32.8956C211.505 33.8815 211.354 34.8619 211.053 35.8008C210.762 36.7089 210.284 37.5459 209.649 38.2575C208.979 38.9959 208.153 39.5752 207.231 39.9536C206.122 40.3945 204.935 40.6066 203.741 40.5776C202.516 40.6097 201.296 40.3975 200.154 39.9536C199.228 39.581 198.396 39.0086 197.717 38.2768C197.078 37.5716 196.605 36.7321 196.332 35.8202C196.042 34.8591 195.898 33.8605 195.903 32.8566V15.6992H200.895V20.8855H211.501V24.473H200.895V32.3497C200.895 33.5718 201.122 34.5141 201.577 35.1768C202.032 35.8398 202.779 36.1713 203.819 36.171C204.833 36.171 205.581 35.8461 206.061 35.1964C206.542 34.547 206.783 33.624 206.783 32.4279V27.4366Z" fill="white"/>
<path d="M64.3105 40.0709V18.7021H56.5116V14.1787H77.5688V18.7021H69.7309V40.0709H64.3105Z" fill="white"/>
<path fill-rule="evenodd" clip-rule="evenodd" d="M44.2389 9.10254C44.2135 9.07246 44.1864 9.04345 44.1605 9.01351L51.7632 0.55384L24.2731 20.4539L15.0846 15.5063C15.6143 14.4989 16.2317 13.5401 16.9297 12.6411C17.7428 11.6534 18.6366 10.7351 19.602 9.89566C20.6995 9.11091 21.8637 8.42398 23.0812 7.84273C24.1375 7.39392 25.2327 7.04285 26.353 6.79387C27.5717 6.60199 28.8071 6.53843 30.0392 6.60423C33.392 6.83702 35.1312 7.84246 36.5215 8.96282C36.8331 9.21395 37.1187 9.45809 37.3867 9.70224L41.687 6.61972C41.5052 6.46986 41.311 6.31447 41.1107 6.16207C40.2975 5.5432 39.356 4.9813 39.356 4.9813C38.4895 4.46749 37.5837 4.02304 36.6472 3.65213C35.8044 3.30486 34.9251 3.05356 34.0259 2.90298C32.7199 2.69298 31.398 2.59829 30.0754 2.62C27.1005 2.69014 24.6076 3.1366 22.1214 4.47276C18.495 6.42185 16.318 8.92909 15.6598 9.85818C13.5815 12.7916 13.1818 14.3709 12.7956 16.6234C12.5932 17.8424 12.4695 19.0731 12.4254 20.3079C12.3852 20.6638 12.3827 21.023 12.4181 21.3794C12.4386 21.5737 12.5274 21.7544 12.6687 21.8893C12.7201 21.8804 12.7683 21.8582 12.8084 21.8249C12.8485 21.7915 12.8792 21.7483 12.8973 21.6994C12.974 21.5102 13.0279 21.3126 13.058 21.1107C13.2898 20.038 13.5829 18.9794 13.936 17.9402C14.1553 17.3393 14.417 16.7547 14.7192 16.1909L24.565 30.8177L40.0734 13.5611C40.2279 13.9325 40.3781 14.332 40.5265 14.7688C40.9591 16.0791 41.2599 17.4295 41.4243 18.7996C41.5687 20.2411 41.6171 21.6907 41.5685 23.1386C41.4721 24.9129 41.2776 26.6805 40.9861 28.4334C40.65 29.9685 40.2199 31.4818 39.6983 32.9644C38.7071 35.708 37.2466 38.1729 36.392 39.1285C35.6748 39.9157 34.8649 40.6133 33.9798 41.2052C33.5533 41.4434 33.0834 41.5936 32.5978 41.6472C32.0138 41.6608 31.432 41.5732 30.8781 41.3878C30.3129 40.9638 29.7831 40.4942 29.2942 39.984C28.7856 39.4221 28.3268 38.8174 27.9223 38.1765C27.604 37.6564 27.2525 37.1572 26.8699 36.682C26.519 36.2657 26.1391 35.8751 25.7328 35.5127C25.3583 35.2594 24.9366 35.0837 24.4929 34.9964C23.5663 34.8467 22.9016 35.0923 22.1139 36.0771C21.6952 36.6243 21.3421 37.2188 21.0618 37.8483C20.7905 38.471 20.4705 39.0713 20.1046 39.6434C19.7704 40.1345 19.3947 40.5959 18.9817 41.0229C18.6395 41.2442 18.2632 41.4077 17.868 41.5069C17.415 41.5832 16.9522 41.5798 16.5004 41.4972C15.8174 41.2246 15.1656 40.8796 14.5559 40.4685C13.9272 40.0088 13.3514 39.4807 12.8389 38.8942C12.004 37.8387 11.248 36.7232 10.5769 35.5566C9.99692 34.4873 9.50065 33.3746 9.09253 32.2285C8.59764 30.8699 8.18363 29.4831 7.85267 28.0757C7.19687 25.2646 6.52877 22.2673 7.36278 17.0923C8.06079 12.7603 9.50297 10.2051 11.5186 7.57754C12.3781 6.49105 13.3419 5.49122 14.396 4.59229C15.6584 3.55464 17.0195 2.64333 18.4599 1.87141C19.948 1.12575 21.4933 0.499964 23.081 0C17.6288 0.421644 12.4652 2.61955 8.38176 6.25685C4.2983 9.89414 1.52024 14.7701 0.473351 20.1375C-0.573533 25.5049 0.168525 31.0674 2.5858 35.9726C5.00305 40.8779 8.96217 44.8552 13.8563 47.2948C18.7505 49.7345 24.3096 50.5019 29.6817 49.4796C35.0538 48.4572 39.9425 45.7017 43.5983 41.6348C47.2544 37.568 49.4757 32.4144 49.9223 26.9643C50.3687 21.514 49.016 16.0677 46.0707 11.4601C45.6453 10.8799 44.9141 9.90362 44.2389 9.10254Z" fill="white"/>
</g>
<defs>
<clipPath id="clip0_229_69">
<rect width="211.602" height="50" fill="white"/>
</clipPath>
</defs>
</svg>
