<svg fill="none" xmlns="http://www.w3.org/2000/svg" viewBox="0 0 876 366">
    <path d="M797.926 332.102c-2.005 1.636-4.701 3.159-7.651 4.579-4.884 2.455-10.181 4.95-15.014 4.95-3.306 0-5.711-.893-7.55-2.421-.857-.713-1.497-1.486-1.991-2.137-.407-.54-.77-1.091-1.17-1.598-1.257-1.631-2.521-4.002-3.749-6.959-7.689 7.607-21.401 14.037-41.339 14.037-16.862 0-30.208-4.302-39.755-13.39-9.305-8.841-14.607-21.568-14.607-39.144V189.672c0-4.25.853-7.13 3.882-9.41 3.126-2.409 9.111-3.221 16.73-3.221 7.437 0 13.436.826 16.548 3.257 2.988 2.278 3.83 5.148 3.83 9.377v95.732c0 14.243 5.812 21.278 22.563 21.278 16.778 0 26.69-10.048 26.69-23.817v-93.196c0-4.25.858-7.13 3.888-9.41 3.11-2.403 8.851-3.221 16.496-3.221 7.433 0 13.436.826 16.546 3.257 2.994 2.278 3.837 5.148 3.837 9.377v111.417c0 3.682.574 6.963 1.264 9.602.669 2.564 1.446 4.506 1.882 5.611 1.366 2.749 2.595 5.429 2.595 9.008-.008 3.003-2.071 5.268-3.925 6.789zM615.17 216.004v111.263c0 4.248-.853 7.126-3.883 9.413-3.12 2.398-9.099 3.218-16.495 3.218-7.654 0-13.664-.824-16.778-3.258-2.994-2.277-3.835-5.149-3.835-9.373V218.981l-18.896 1.372c-16.908 1.232-17.574-13.189-17.574-21.207 0-15.859 5.824-21.538 16.282-21.541h81.462c7.985 0 14.008 2.554 16.375 14.021 2.632 12.748 1.552 21.623-12.645 22.636l-24.013 1.742zM871.374 337.03c-3.125 2.4-9.098 3.218-16.496 3.218-7.652 0-13.669-.822-16.779-3.257-2.987-2.277-3.829-5.147-3.829-9.372V189.675c0-4.251.85-7.131 3.88-9.412 3.125-2.408 9.112-3.222 16.728-3.222 7.434 0 13.436.829 16.546 3.257 2.994 2.278 3.83 5.15 3.83 9.379v137.944c0 4.246-.85 7.129-3.88 9.409zM21.64 101.953h108.259c10.61 0 18.617 3.369 21.763 18.513 3.501 16.833 2.059 28.557-16.806 29.897l-33.988 2.435c25.012 158.79 171.277 210.547 250.914 39.529 13.179-28.307 17.491-33.463 31.93-29.862 19.572 4.878 22.247 14.988 12.926 43.529-68.855 210.831-300.266 231.963-345.672-49.585l-27.614 1.999C.89 160.031 0 140.988 0 130.396c0-20.94 7.74-28.443 21.64-28.443zM415.232 0c22.192 0 40.182 18.069 40.182 40.365 0 22.291-17.988 40.365-40.182 40.365-22.191 0-40.181-18.071-40.181-40.365C375.051 18.069 393.039 0 415.232 0z" fill="#EE0304"/>
</svg>
