<?xml version="1.0" encoding="utf-8"?>
<!-- Generator: Adobe Illustrator 22.0.0, SVG Export Plug-In . SVG Version: 6.00 Build 0)  -->
<svg version="1.1" id="Слой_1" xmlns="http://www.w3.org/2000/svg" xmlns:xlink="http://www.w3.org/1999/xlink" x="0px" y="0px"
	 viewBox="0 0 89 50" style="enable-background:new 0 0 89 50;" xml:space="preserve">
<style type="text/css">
	.st0{fill:#FFFFFF;}
</style>
<path class="st0" d="M51.7,0c-2.8,0-5.1,0.5-7,1.3c-1.9-0.8-4.2-1.3-7-1.3c-9,0-14.6,7.8-14.6,15.4V32h3.4v-3.2H38
	c2.3,0,4.6-0.5,6.7-1.6c2.1,1,4.4,1.6,6.7,1.6h11.5V32h3.4V15.4C66.3,7.8,60.7,0,51.7,0z M37.7,25.3H26.8v-9.8
	c0-6.1,4.8-12.3,11.4-12.3c0.8,0,1.8,0.1,2.9,0.5c-3.6,3.3-4.5,7.9-4.5,9.6c0,4.9,1.8,8.8,4.5,11.4C39.9,25.1,38.7,25.3,37.7,25.3z
	 M44.7,22.8c-2.5-1.9-4.5-4.6-4.5-8.1c0-4.5,2-7.5,4.5-9.2c2.4,1.8,4.5,4.7,4.5,9.2C49.2,18.1,47.2,20.9,44.7,22.8z M62.6,25.3H51.7
	c-1,0-2.2-0.2-3.4-0.6c2.7-2.6,4.5-6.4,4.5-11.4c0-1.7-0.8-6.3-4.5-9.6c1.1-0.3,2.1-0.5,2.9-0.5c6.6,0,11.4,6.2,11.4,12.3V25.3z"/>
<path class="st0" d="M4.2,50c-1.4,0-2.4-0.4-3.1-1.1c-0.7-0.7-1-1.8-1-3.2v-6.6h0.9v6.7c0,2.2,1.1,3.3,3.2,3.3
	c1.1,0,1.9-0.3,2.4-0.8c0.5-0.6,0.8-1.4,0.8-2.5v-6.7h0.9v6.6c0,1.4-0.4,2.5-1.1,3.2C6.5,49.6,5.5,50,4.2,50z"/>
<path class="st0" d="M19.4,39.1v10.7h-0.7l-6.8-9.1v9.1H11V39.1h0.7l6.8,9.1v-9.1H19.4z"/>
<path class="st0" d="M22.2,39.1h0.9v10.7h-0.9V39.1z"/>
<path class="st0" d="M34.7,39.1l-4.6,10.7h-0.9l-4.6-10.7h1l4.1,9.5l4.1-9.5H34.7z"/>
<path class="st0" d="M36.2,39.1h6.6v0.8h-5.7V44h5.4v0.8h-5.4v4.2h5.7v0.8h-6.6V39.1z"/>
<path class="st0" d="M53.2,49.9h-1l-1.8-3.4c-0.2-0.5-0.5-0.8-0.9-1c-0.3-0.2-0.8-0.3-1.3-0.3h-2.2v4.7H45V39.1h4.3
	c1.1,0,2,0.3,2.6,0.8c0.6,0.5,0.9,1.3,0.9,2.2c0,0.8-0.2,1.5-0.7,2c-0.5,0.5-1.2,0.8-2.1,0.9c0.3,0.1,0.5,0.2,0.7,0.4
	c0.2,0.2,0.4,0.5,0.6,0.8L53.2,49.9z M49.2,44.4c1.8,0,2.6-0.8,2.6-2.3c0-0.7-0.2-1.3-0.7-1.6c-0.4-0.4-1.1-0.5-2-0.5h-3.3v4.5H49.2
	z"/>
<path class="st0" d="M58.8,50c-0.8,0-1.6-0.1-2.3-0.3c-0.7-0.2-1.4-0.5-1.9-0.9l0.8-1.7c1,0.7,2.2,1.1,3.5,1.1
	c0.7,0,1.2-0.1,1.5-0.3c0.4-0.2,0.5-0.5,0.5-0.9c0-0.3-0.2-0.6-0.5-0.8c-0.3-0.2-0.9-0.4-1.7-0.6c-0.9-0.2-1.7-0.4-2.3-0.7
	c-0.6-0.3-1-0.6-1.2-1c-0.3-0.4-0.4-0.9-0.4-1.5c0-0.6,0.2-1.2,0.5-1.7c0.4-0.5,0.9-0.9,1.5-1.2c0.6-0.3,1.4-0.4,2.2-0.4
	c0.8,0,1.5,0.1,2.2,0.3c0.7,0.2,1.3,0.5,1.7,0.9l-0.8,1.7c-1-0.7-2-1.1-3.1-1.1c-0.6,0-1.1,0.1-1.5,0.4c-0.4,0.2-0.5,0.6-0.5,1
	c0,0.2,0.1,0.4,0.2,0.6c0.1,0.2,0.4,0.3,0.7,0.4c0.3,0.1,0.8,0.2,1.4,0.4c1.4,0.3,2.4,0.7,3,1.2c0.6,0.5,0.9,1.1,0.9,2
	c0,1-0.4,1.8-1.2,2.4C61.3,49.7,60.2,50,58.8,50z"/>
<path class="st0" d="M71.9,49.9l-4.6-4.9v4.9h-2.4V39.1h2.4v4.7l4.5-4.7h2.8l-5,5.1l5.2,5.6H71.9z"/>
<path class="st0" d="M75.2,39.1h2.4v10.7h-2.4V39.1z"/>
<path class="st0" d="M89,39.1v10.7h-1.8L81.9,43v6.8h-2.2V39.1h1.7l5.3,6.8v-6.8H89z"/>
</svg>
