<svg width="110" height="40" viewBox="0 0 110 40" fill="none" xmlns="http://www.w3.org/2000/svg">
<g clip-path="url(#clip0_9494_1168)">
<path d="M103.047 39.88C101.837 39.8913 100.646 39.5732 99.6024 38.9597C98.565 38.3549 97.7033 37.49 97.1022 36.4503C96.4953 35.3997 96.1758 34.2078 96.1758 32.9945C96.1758 31.7812 96.4953 30.5893 97.1022 29.5388C97.7054 28.4975 98.5664 27.6291 99.6024 27.0171C100.645 26.4013 101.837 26.083 103.047 26.0968C104.369 26.0725 105.666 26.4606 106.756 27.2073C107.835 27.9553 108.685 28.9888 109.211 30.1922L106.738 30.907C106.397 30.2199 105.886 29.6316 105.253 29.1982C104.603 28.7606 103.834 28.5345 103.051 28.551C102.288 28.5405 101.537 28.7402 100.88 29.1282C100.223 29.5162 99.6855 30.0774 99.3263 30.7505C98.9519 31.4372 98.7587 32.2079 98.7649 32.9899C98.7566 33.7693 98.95 34.5376 99.3263 35.2202C99.6852 35.8816 100.215 36.4346 100.86 36.8215C101.522 37.2173 102.28 37.4212 103.051 37.4105C103.823 37.4243 104.582 37.211 105.235 36.797C105.864 36.3833 106.366 35.8022 106.683 35.1189L109.192 35.7938C108.676 36.9973 107.824 38.0263 106.738 38.7573C105.651 39.4997 104.363 39.8915 103.047 39.88Z" fill="black"/>
<path d="M48.5771 5.07964L49.9791 6.77303V18.5868H48.5771V5.08885V5.07964ZM61.5659 0.119141V15.3933L49.1385 0.119141H48.5771V1.88615L62.4095 18.5868H62.9648V0.119141H61.5659Z" fill="black"/>
<path d="M37.0796 0.116211V11.5833C37.0796 19.5318 25.6892 19.5594 25.6892 11.5833V0.116211H24.2842V11.5833C24.2842 21.305 38.4847 21.2804 38.4847 11.5833V0.116211H37.0796Z" fill="black"/>
<path d="M73.061 1.49041V0.119141H86.1142V1.49041H73.061ZM73.061 10.0371H86.1142V8.66581H73.061V10.0371ZM73.061 18.5868H86.1142V17.2155H73.061V18.5868Z" fill="black"/>
<path d="M2.03079 0.116211L8.98532 10.9207V18.59H7.55576V11.1876L0.358887 0.14382V0.116211H2.03079ZM14.5379 0.116211L9.55898 7.83459L10.3658 9.08622L16.2098 0.14382V0.116211H14.5379Z" fill="black"/>
<path d="M107.536 0.119141H109.211V0.143682L96.21 18.5868H94.5381V18.5592L101.026 9.35605L94.5381 0.143682V0.119141H96.21L101.873 8.15043L107.536 0.119141ZM104.033 11.2182L103.189 12.4176L107.536 18.5868H109.211V18.5592L104.033 11.2182Z" fill="black"/>
<path d="M6.38098 28.6466H2.13525V26.2354H13.0625V28.6466H8.96707V39.7487H6.38098V28.6466Z" fill="black"/>
<path d="M19.1825 26.235H25.2658C26.0982 26.221 26.9188 26.433 27.6402 26.8486C28.3362 27.2546 28.9153 27.8337 29.3214 28.5297C29.7274 29.2159 29.9395 29.9994 29.9349 30.7967C29.9406 31.3889 29.8203 31.9755 29.5821 32.5177C29.3457 33.0481 29.0069 33.5266 28.5851 33.9258C28.1675 34.3285 27.6671 34.6353 27.1187 34.8246L30.1312 39.733H27.177L24.3762 35.1314H21.7809V39.733H19.1733V26.235H19.1825ZM25.226 32.8951C25.5146 32.9032 25.8019 32.8531 26.0707 32.7477C26.3396 32.6423 26.5844 32.4837 26.7905 32.2815C26.9977 32.0843 27.1615 31.846 27.2714 31.5819C27.3813 31.3178 27.4348 31.0336 27.4286 30.7476C27.4383 30.4623 27.3895 30.178 27.2853 29.9122C27.181 29.6464 27.0234 29.4048 26.8223 29.2022C26.6211 28.9996 26.3806 28.8403 26.1156 28.7342C25.8505 28.628 25.5666 28.5772 25.2812 28.5849H21.7809V32.9104L25.226 32.8951Z" fill="black"/>
<path d="M40.4941 26.2354H44.5128L49.1144 39.7487H46.4301L45.4853 36.9294H39.4726L38.4878 39.7487H35.7852L40.4972 26.2507L40.4941 26.2354ZM44.7214 34.5734L42.5035 27.895L40.2241 34.5734H44.7214Z" fill="black"/>
<path d="M55.0684 26.2354H64.9341V28.6466H57.6729V32.3033H64.9341V34.6378H57.6729V39.7487H55.0684V26.2354Z" fill="black"/>
<path d="M71.0791 26.2354H80.9449V28.6466H73.6836V32.3033H80.9449V34.6378H73.6836V39.7487H71.0791V26.2354Z" fill="black"/>
<path d="M87.2583 26.2354H89.8628V39.7487H87.2583V26.2354Z" fill="black"/>
</g>
<defs>
<clipPath id="clip0_9494_1168">
<rect width="110" height="40" fill="white"/>
</clipPath>
</defs>
</svg>
