<svg viewBox="0 0 140 32" fill="none" xmlns="http://www.w3.org/2000/svg"><g clip-path="url(#clip0)" fill="#fff"><path d="M70.538 6.578h4.667v20.178H70.54V6.578z"/><path d="M28.27 6.578l-6.642 17.689-.09.177c-.538 1.423-1.884 2.49-3.41 2.667h-1.256c-1.526-.178-2.782-1.244-3.32-2.578l-.09-.266L6.82 6.577h5.474L17.5 20.445l5.205-13.866.539-1.334C24.05 3.111 21.09 0 12.026 0S-.36 3.822 0 8.089c.359 4.355 5.385 14.222 7.987 18.133 2.513 3.822 5.923 5.69 9.423 5.69s7.18-1.779 9.334-7.2c1.615-4.09 7-18.134 7-18.134h-5.475z"/><path d="M53.397 17.067c0 .444 0 .8-.09 1.244H38.322c.538 3.289 2.871 5.067 5.833 5.067 2.243 0 3.859-.8 5.474-2.4l2.693 2.4c-1.885 2.31-4.577 3.733-8.347 3.733-5.923 0-10.41-4.267-10.41-10.489 0-5.778 4.128-10.489 9.962-10.489 6.55 0 9.871 5.067 9.871 10.934zm-4.666-1.778c-.27-2.934-2.064-5.333-5.205-5.333-2.872 0-4.847 2.133-5.295 5.333h10.5zm83.731 1.155l7.179-9.777h-4.936l-4.667 6.666-4.666-6.666h-5.116l7.18 9.955-7.449 10.222h4.936l4.936-7.022 5.026 7.022H140l-7.538-10.4z"/><path d="M120.167 16.711c0 5.778-4.757 10.489-10.59 10.489s-10.59-4.711-10.59-10.489c0-5.778 4.757-10.489 10.59-10.489 5.833-.089 10.59 4.622 10.59 10.49zm-4.129 0c0-3.555-2.871-6.4-6.461-6.4-3.59 0-6.462 2.845-6.462 6.4 0 3.556 2.872 6.4 6.462 6.4s6.461-2.933 6.461-6.4zM94.141 6.578l-5.474 14.666-5.475-14.666h-5.025l8.346 20.177h4.218l8.346-20.177H94.14zm-37.603 9.244v10.934h4.667V15.289c.18-1.245.898-3.733 4.577-4h.718V6.578h-.449c-6.372.178-9.423 4.622-9.513 8.889v.355z"/></g><defs><clipPath id="clip0"><path fill="#fff" d="M0 0h140v32H0z"/></clipPath></defs></svg>