<svg width="180" height="40" viewBox="0 0 180 40" fill="none" xmlns="http://www.w3.org/2000/svg">
<path d="M22.7888 2.72119H34.1798L22.8237 38.161H11.4292L22.7888 2.72119Z" fill="#EEEEF0"/>
<path d="M22.7888 2.72119H34.1798L22.8237 38.161H11.4292L22.7888 2.72119Z" fill="url(#paint0_linear_8805_891)"/>
<path d="M22.8239 38.1629H11.4294L0 2.72314H11.4853L22.8239 38.1629Z" fill="#34837D"/>
<path d="M60.175 30.366V38.1614H37.854V2.72168H59.9236V10.517H45.9729V16.3888H58.656V24.0831H45.9729V30.3592H60.175V30.366Z" fill="#34837D"/>
<path d="M77.373 26.4978H73.5178V38.1403H65.4023V2.7041H79.6079C86.3546 2.7041 91.7846 8.12286 91.7846 14.8554C91.7846 19.2078 89.1481 23.156 85.2406 25.1319L92.8007 38.1439H84.0743L77.373 26.4978ZM73.5178 19.41H79.6044C81.8358 19.41 83.6621 17.4341 83.6621 14.8554C83.6621 12.2767 81.8358 10.2973 79.6044 10.2973H73.5178V19.41Z" fill="#34837D"/>
<path d="M94.9756 30.094L101.977 26.0446C103.245 28.9823 105.427 30.9547 109.436 30.9547C113.291 30.9547 114.255 29.4353 114.255 28.0693C114.255 25.8913 112.226 25.0307 106.897 23.5635C101.621 22.0964 96.4458 19.563 96.4458 12.7818C96.4458 5.9482 102.229 2 108.368 2C114.203 2 118.767 4.7843 121.354 9.99746L114.507 13.9979C113.288 11.468 111.615 9.89641 108.368 9.89641C105.832 9.89641 104.561 11.1614 104.561 12.5797C104.561 14.2001 105.424 15.3117 110.955 16.9843C116.333 18.6048 122.371 20.476 122.371 27.9718C122.371 34.8053 116.892 38.8546 109.181 38.8546C101.722 38.8511 96.9522 35.3071 94.9756 30.094Z" fill="#34837D"/>
<path d="M149.156 30.345V38.1403H126.834V2.7041H148.904V10.4995H134.953V16.3712H147.637V24.0656H134.953V30.3415H149.156V30.345Z" fill="#34837D"/>
<path d="M152.604 30.094L159.606 26.0446C160.873 28.9823 163.056 30.9547 167.065 30.9547C170.92 30.9547 171.884 29.4353 171.884 28.0693C171.884 25.8913 169.855 25.0307 164.527 23.5635C159.249 22.0964 154.075 19.563 154.075 12.7818C154.075 5.9482 159.857 2 165.997 2C171.832 2 176.395 4.7843 178.983 9.99746L172.136 13.9979C170.917 11.468 169.244 9.89641 165.997 9.89641C163.461 9.89641 162.19 11.1614 162.19 12.5797C162.19 14.2001 163.053 15.3117 168.584 16.9843C173.962 18.6048 180 20.476 180 27.9718C180 34.8053 174.521 38.8546 166.81 38.8546C159.351 38.8511 154.585 35.3071 152.604 30.094Z" fill="#34837D"/>
<defs>
<linearGradient id="paint0_linear_8805_891" x1="7.05411" y1="26.1626" x2="38.5406" y2="14.6785" gradientUnits="userSpaceOnUse">
<stop offset="0.1669"/>
<stop offset="0.8531" stop-color="#34837D"/>
</linearGradient>
</defs>
</svg>
