<svg width="200" height="40" viewBox="0 0 200 40" fill="none" xmlns="http://www.w3.org/2000/svg">
<path d="M54.1123 12.5397L45.5993 30.9923H45.5026L36.9414 12.5397H39.6743L45.527 25.4297L51.3797 12.5397H54.1123ZM60.5455 12.5397V30.7021H58.0304V12.5397H60.5455ZM79.9895 12.5397V14.7884H73.6048V30.7021H71.0897V14.7889H64.7534V12.5402L79.9895 12.5397ZM88.2606 12.2255L96.6041 30.7021H93.9197L92.2993 27.0016H84.1492L82.5289 30.7018H79.8445L88.188 12.2251L88.2606 12.2255ZM88.2121 17.7879L85.0682 24.8013H91.3561L88.2121 17.7879ZM116.363 12.2255C117.57 12.1909 118.772 12.4073 119.892 12.8611C121.012 13.3148 122.025 13.996 122.868 14.8615L121.272 16.6995C120.659 16.0113 119.906 15.4629 119.064 15.0914C118.221 14.7199 117.308 14.5341 116.387 14.5467C115.506 14.5207 114.63 14.6869 113.82 15.0336C113.01 15.3804 112.285 15.8993 111.695 16.5544C110.454 17.9489 109.796 19.7671 109.857 21.6331C109.822 22.5642 109.973 23.4928 110.301 24.3649C110.629 25.2369 111.128 26.0347 111.768 26.7118C112.404 27.3713 113.172 27.8888 114.023 28.2306C114.873 28.5723 115.786 28.7306 116.701 28.695C118.174 28.7197 119.615 28.2703 120.813 27.4132V23.3501H116.193V21.1494H123.328V28.6708C121.509 30.2864 119.134 31.1357 116.703 31.0408C115.514 31.0838 114.327 30.8922 113.212 30.4769C112.097 30.0616 111.075 29.4307 110.203 28.6202C109.332 27.8097 108.629 26.8356 108.134 25.7533C107.639 24.6711 107.362 23.502 107.319 22.3128C107.311 22.0943 107.311 21.8757 107.319 21.6572C107.278 20.4189 107.483 19.1846 107.923 18.0263C108.363 16.868 109.028 15.8086 109.881 14.9099C110.711 14.0298 111.717 13.3355 112.834 12.8728C113.951 12.41 115.154 12.1894 116.363 12.2255ZM141.877 30.7021H138.902L134.646 23.8097H131.091V30.7021H128.6V12.5397H134.622C136.283 12.4781 137.912 13.0097 139.217 14.0392C139.82 14.5407 140.297 15.1755 140.612 15.8934C140.926 16.6112 141.07 17.3924 141.03 18.1752C141.062 19.3421 140.714 20.4877 140.039 21.4401C139.363 22.3439 138.426 23.0191 137.355 23.3749L141.877 30.7021ZM131.115 14.7648V21.5848H134.405C135.474 21.6445 136.532 21.3375 137.404 20.7147C137.771 20.4065 138.062 20.0161 138.251 19.575C138.44 19.1338 138.522 18.6544 138.492 18.1754C138.52 17.7002 138.436 17.2251 138.247 16.7883C138.058 16.3515 137.769 15.9651 137.404 15.6603C136.55 15.0185 135.495 14.7013 134.429 14.7655L131.115 14.7648ZM147.585 14.9099C149.332 13.1896 151.686 12.2255 154.138 12.2255C156.591 12.2255 158.945 13.1896 160.692 14.9099C161.555 15.7991 162.231 16.8521 162.679 18.0069C163.128 19.1617 163.34 20.3947 163.304 21.633C163.345 22.872 163.135 24.1064 162.686 25.2619C162.237 26.4175 161.559 27.4702 160.692 28.3569C158.937 30.0629 156.586 31.0172 154.138 31.0172C151.691 31.0172 149.34 30.0629 147.585 28.3569C146.726 27.4656 146.055 26.4116 145.611 25.2569C145.166 24.1021 144.958 22.8701 144.997 21.6335C144.962 20.3973 145.173 19.1665 145.617 18.0124C146.061 16.8582 146.73 15.8037 147.585 14.9099ZM158.878 16.5543C157.66 15.2971 155.992 14.5754 154.242 14.5479C152.492 14.5203 150.802 15.1892 149.545 16.4074C149.495 16.4556 149.446 16.5045 149.398 16.5543C148.139 17.9399 147.471 19.7621 147.536 21.633C147.471 23.5038 148.139 25.3261 149.398 26.7117C150.012 27.3342 150.742 27.8297 151.547 28.1699C152.352 28.5102 153.217 28.6885 154.091 28.6947C154.965 28.701 155.832 28.5349 156.642 28.2062C157.452 27.8774 158.189 27.3923 158.811 26.7786L158.878 26.7117C160.137 25.326 160.805 23.5038 160.74 21.633C160.805 19.7623 160.137 17.9399 158.878 16.5543ZM181.708 12.5397V24.2933C181.758 25.1921 181.623 26.0917 181.311 26.9362C180.999 27.7806 180.517 28.552 179.895 29.2023C179.211 29.8339 178.406 30.3203 177.529 30.6322C176.652 30.944 175.72 31.0747 174.791 31.0165C173.855 31.0767 172.916 30.947 172.031 30.6353C171.146 30.3237 170.332 29.8364 169.64 29.2028C169.02 28.5512 168.539 27.7796 168.227 26.9355C167.915 26.0914 167.779 25.1924 167.826 24.2938V12.5397H170.342V24.1482C170.307 24.7497 170.392 25.352 170.591 25.9205C170.791 26.489 171.1 27.0126 171.502 27.4611C171.929 27.8852 172.44 28.2143 173.003 28.4269C173.566 28.6395 174.167 28.7307 174.767 28.6945C175.364 28.7331 175.963 28.643 176.522 28.4302C177.081 28.2173 177.588 27.8869 178.008 27.4611C178.813 26.5508 179.229 25.3618 179.169 24.1482V12.5397H181.708ZM193.679 12.5397C195.332 12.4662 196.952 13.0093 198.226 14.0634C198.821 14.5897 199.289 15.2439 199.595 15.9769C199.9 16.7099 200.036 17.5027 199.991 18.2957C200.034 19.0848 199.897 19.8733 199.591 20.602C199.285 21.3307 198.819 21.9808 198.226 22.5037C196.948 23.5506 195.33 24.0926 193.679 24.0273H189.907V30.7021H187.367V12.5397H193.679ZM193.462 14.765H189.907V21.8023H193.462C194.513 21.8629 195.551 21.5455 196.388 20.9073C196.749 20.5791 197.032 20.1741 197.217 19.7221C197.401 19.2702 197.481 18.7827 197.452 18.2955C197.481 17.8083 197.401 17.3208 197.217 16.8688C197.032 16.4168 196.749 16.0118 196.388 15.6836C195.55 15.0447 194.515 14.7197 193.462 14.765Z" fill="#010101"/>
<path d="M29.7616 9.1434C29.7616 6.84716 23.1085 5 14.8926 5C6.67673 5 0 6.84716 0 9.1434V9.21451C0.0157615 9.42408 0.0806461 9.62698 0.189401 9.80681L14.869 35.1168L29.5722 9.80631C29.688 9.62978 29.7535 9.425 29.7616 9.21401V9.1434Z" fill="#010101"/>
</svg>
