<svg width="150" height="40" viewBox="0 0 150 40" fill="none" xmlns="http://www.w3.org/2000/svg">
<g clip-path="url(#clip0_8805_502)">
<path d="M102.258 4.30434V10.5972C102.258 10.6971 102.167 10.7334 101.876 10.7334H101.767C101.458 10.7334 101.377 10.7334 101.377 10.5972V4.30434H100.469C100.378 4.30434 100.351 4.24078 100.351 3.97744V3.87755C100.351 3.60513 100.351 3.54157 100.469 3.54157H101.377V2.98765C101.377 1.17152 102.067 0.0909199 103.783 0.0909199C104.205 0.0876556 104.624 0.164695 105.018 0.317936C105.118 0.317936 105.118 0.454145 105.018 0.672081V0.771969C104.954 0.998985 104.909 1.08071 104.791 1.04439C104.475 0.936809 104.144 0.881597 103.81 0.880938C102.557 0.880938 102.248 1.64371 102.248 3.01489V3.54157H103.901C103.992 3.54157 104.019 3.61421 104.019 3.87755V3.97744C104.019 4.24078 104.019 4.30434 103.901 4.30434H102.258Z" fill="#00A4C4"/>
<path d="M105.717 10.1978C105.345 9.81733 105.057 9.36273 104.872 8.86361C104.688 8.36449 104.61 7.83205 104.645 7.30103C104.645 4.73121 105.962 3.40543 107.987 3.40543C108.713 3.36445 109.427 3.60147 109.985 4.06832C110.356 4.44908 110.644 4.90373 110.829 5.40277C111.013 5.90181 111.091 6.43408 111.056 6.96505C111.056 9.53487 109.74 10.8606 107.715 10.8606C106.989 10.9016 106.274 10.6646 105.717 10.1978ZM107.751 10.0615C109.004 10.0615 110.103 9.23521 110.103 7.06493C110.103 5.69376 109.631 4.20453 107.933 4.20453C106.698 4.20453 105.599 5.04903 105.599 7.20114C105.599 8.5814 106.071 10.0615 107.76 10.0615H107.751Z" fill="#00A4C4"/>
<path d="M113.472 5.2122C113.584 4.74836 113.837 4.33072 114.196 4.01684C114.556 3.70295 115.004 3.50827 115.478 3.45963C115.614 3.44184 115.751 3.44184 115.887 3.45963C115.951 3.45963 115.978 3.5232 115.978 3.74113V3.8501C115.978 4.12252 115.978 4.26781 115.842 4.26781C115.519 4.26498 115.2 4.33736 114.91 4.47921C114.62 4.62107 114.367 4.82849 114.171 5.08507C113.781 5.61243 113.559 6.24555 113.535 6.9012C113.535 7.30075 113.535 8.18157 113.535 9.00791V10.5335C113.535 10.6243 113.453 10.6515 113.127 10.6515H112.981C112.654 10.6515 112.591 10.6515 112.591 10.5335V5.86601C112.591 5.13047 112.591 4.38586 112.591 3.63216C112.591 3.57768 112.591 3.53228 112.972 3.53228H113.045C113.408 3.53228 113.435 3.53228 113.435 3.63216L113.472 5.2122Z" fill="#00A4C4"/>
<path d="M105 19.0875C104.854 19.3055 104.782 19.3236 104.691 19.251C104.183 18.8884 103.572 18.6976 102.947 18.7062C102.039 18.7062 101.449 19.1239 101.449 19.8776C101.449 20.7856 102.157 20.94 103.075 21.1852C104.364 21.5212 105.327 21.8753 105.327 23.2283C105.327 24.5813 104.282 25.4077 102.757 25.4077C101.968 25.4139 101.195 25.1899 100.532 24.763C100.45 24.7085 100.45 24.654 100.532 24.427V24.3452C100.677 24.0637 100.732 24.0456 100.841 24.1182C101.386 24.4606 102.013 24.6518 102.657 24.6721C103.747 24.6721 104.473 24.2817 104.473 23.3373C104.473 22.3929 103.837 22.2658 102.657 21.9752C102.083 21.8689 101.54 21.6362 101.068 21.2941C100.887 21.1283 100.745 20.9259 100.649 20.7003C100.554 20.4748 100.508 20.2314 100.514 19.9865C100.514 18.6698 101.504 17.9434 102.902 17.9434C103.674 17.9408 104.426 18.1894 105.045 18.6517C105.127 18.7152 105.118 18.797 104.982 19.0058L105 19.0875Z" fill="#00A4C4"/>
<path d="M107.606 18.2069V19.0423C107.864 18.6796 108.211 18.389 108.613 18.1983C109.015 18.0075 109.459 17.9229 109.903 17.9526C110.238 17.9408 110.572 17.9975 110.885 18.1193C111.197 18.2411 111.481 18.4254 111.719 18.6609C111.887 18.837 112.02 19.0435 112.11 19.2693C112.364 18.8469 112.728 18.5014 113.163 18.2695C113.598 18.0376 114.088 17.9281 114.58 17.9526C114.948 17.9188 115.318 17.9618 115.669 18.0791C116.019 18.1963 116.341 18.3852 116.614 18.6337C117.129 19.2785 117.368 20.1015 117.277 20.922V25.1263C117.277 25.2171 117.113 25.2444 116.895 25.2444H116.786C116.541 25.2444 116.396 25.2444 116.396 25.1263V21.4941C116.396 20.3136 116.342 19.7233 115.96 19.2784C115.772 19.092 115.545 18.9491 115.296 18.8597C115.046 18.7703 114.78 18.7365 114.516 18.7608C114.194 18.7361 113.87 18.791 113.574 18.9209C113.278 19.0508 113.018 19.2515 112.818 19.5054C112.636 19.775 112.529 20.0886 112.509 20.4135C112.492 20.7401 112.492 21.0675 112.509 21.3942V25.0991C112.509 25.1899 112.346 25.2171 112.128 25.2171H112.019C111.774 25.2171 111.629 25.2171 111.629 25.0991V21.4668C111.629 20.2863 111.574 19.6961 111.193 19.2511C111.004 19.0648 110.778 18.9219 110.528 18.8325C110.279 18.743 110.013 18.7093 109.749 18.7336C109.427 18.712 109.104 18.7684 108.809 18.898C108.513 19.0276 108.253 19.2266 108.051 19.4782C107.868 19.7477 107.762 20.0613 107.742 20.3862C107.742 20.7767 107.742 21.5304 107.742 22.3567V25.0809C107.742 25.1717 107.579 25.199 107.361 25.199H107.252C107.007 25.199 106.861 25.199 106.861 25.0809V20.0048C106.861 19.3692 106.861 18.7426 106.861 18.1887C106.861 18.0797 106.943 18.0707 107.215 18.0707H107.324C107.533 18.0797 107.606 18.0979 107.606 18.2069Z" fill="#00A4C4"/>
<path d="M124.732 22.266C124.732 23.4464 124.732 24.2274 124.823 25.1899C124.823 25.2717 124.759 25.2989 124.487 25.2989C124.178 25.2989 124.133 25.2989 124.124 25.1809L124.015 24.3364C123.779 24.6969 123.453 24.9891 123.069 25.1836C122.685 25.3781 122.256 25.468 121.826 25.4442C119.765 25.4442 118.839 23.8097 118.839 21.8119C118.839 19.4873 120.146 17.9617 121.954 17.9617C122.33 17.9556 122.702 18.0418 123.038 18.2127C123.374 18.3837 123.662 18.6342 123.879 18.9424L123.942 18.2251C123.942 18.1161 124.042 18.0889 124.324 18.0889H124.414C124.696 18.0889 124.714 18.0889 124.714 18.2523C124.714 18.4158 124.714 18.552 124.714 18.6882C124.714 19.115 124.714 19.6961 124.714 20.2501L124.732 22.266ZM123.824 19.9141C123.639 19.575 123.366 19.2921 123.034 19.0955C122.701 18.8989 122.322 18.7958 121.935 18.7972C120.564 18.7972 119.72 19.9595 119.72 21.7665C119.72 23.1922 120.219 24.636 121.835 24.636C122.11 24.6581 122.387 24.62 122.646 24.5244C122.905 24.4287 123.139 24.2778 123.334 24.0821C123.715 23.6462 123.824 23.2376 123.824 21.9572V19.9141Z" fill="#00A4C4"/>
<path d="M127.511 23.7462C127.511 24.3455 127.574 24.5816 128.001 24.5816C128.092 24.5899 128.183 24.5899 128.274 24.5816C128.337 24.5816 128.364 24.5816 128.392 24.8268V24.9176C128.392 25.1174 128.392 25.181 128.274 25.2173C128.094 25.2698 127.907 25.2973 127.72 25.299C127.548 25.3193 127.375 25.2949 127.215 25.228C127.056 25.1612 126.917 25.0542 126.812 24.9176C126.625 24.4701 126.554 23.9833 126.603 23.501V18.6974C126.603 17.0992 126.603 16.1276 126.548 15.0651C126.548 14.9652 126.639 14.938 126.93 14.938H127.039C127.347 14.938 127.429 14.938 127.429 15.0651C127.429 15.8551 127.484 17.5805 127.484 19.0243L127.511 23.7462Z" fill="#00A4C4"/>
<path d="M130.552 23.7462C130.552 24.3455 130.616 24.5816 131.043 24.5816C131.133 24.5899 131.225 24.5899 131.315 24.5816C131.388 24.5816 131.406 24.5816 131.433 24.8268V24.9176C131.433 25.1174 131.433 25.181 131.315 25.2173C131.135 25.2697 130.949 25.2972 130.761 25.299C130.59 25.3184 130.416 25.2936 130.257 25.2268C130.098 25.16 129.959 25.0536 129.853 24.9176C129.667 24.4701 129.595 23.9833 129.644 23.501V18.6974C129.644 17.0992 129.644 16.1276 129.59 15.0651C129.59 14.9652 129.681 14.938 129.971 14.938H130.08C130.389 14.938 130.471 14.938 130.471 15.0651C130.471 15.8551 130.525 17.5805 130.525 19.0243L130.552 23.7462Z" fill="#00A4C4"/>
<path d="M100.904 29.4491C100.904 29.3492 101.068 29.3311 101.286 29.3311H101.395C101.64 29.3311 101.785 29.3311 101.785 29.4491V33.4537C102.035 33.142 102.353 32.8928 102.716 32.7257C103.078 32.5587 103.475 32.4783 103.874 32.4911C106.017 32.4911 106.798 34.2619 106.798 36.0326C106.798 38.439 105.545 39.9554 103.347 39.9554C102.573 39.9675 101.804 39.8383 101.077 39.574C100.932 39.5196 100.904 39.4651 100.904 39.347V29.4491ZM101.812 38.9111C102.304 39.0766 102.819 39.1594 103.338 39.1563C105.072 39.1563 105.88 38.0031 105.88 36.1234C105.88 34.2437 105.199 33.3084 103.856 33.3084C103.568 33.2943 103.28 33.3421 103.012 33.4487C102.744 33.5552 102.502 33.7179 102.303 33.9259C102.019 34.2398 101.861 34.647 101.858 35.07C101.858 35.4696 101.858 36.187 101.858 37.0133L101.812 38.9111Z" fill="#00A4C4"/>
<path d="M113.236 38.7382C112.999 39.1361 112.656 39.4604 112.246 39.6752C111.835 39.8899 111.373 39.9868 110.911 39.955C110.548 39.9801 110.183 39.932 109.838 39.8134C109.493 39.6949 109.176 39.5084 108.904 39.2649C108.398 38.6128 108.17 37.7871 108.269 36.9675V32.7632C108.269 32.6724 108.323 32.627 108.65 32.627H108.759C109.086 32.627 109.15 32.627 109.15 32.7632V36.3954C109.15 37.5668 109.15 38.2116 109.531 38.602C109.726 38.7994 109.962 38.9507 110.223 39.045C110.484 39.1393 110.762 39.1741 111.038 39.1469C111.323 39.1629 111.607 39.1203 111.874 39.0219C112.141 38.9235 112.385 38.7713 112.591 38.5748C112.973 38.1934 113.172 37.6667 113.172 36.1957V32.7632C113.172 32.6724 113.227 32.627 113.554 32.627H113.663C113.99 32.627 114.053 32.627 114.053 32.7632V37.4851C114.053 38.1934 114.053 38.9017 114.053 39.6554C114.053 39.8007 113.999 39.8188 113.726 39.8188H113.617C113.318 39.8188 113.281 39.8188 113.263 39.6826L113.236 38.7382Z" fill="#00A4C4"/>
<path d="M119.983 33.6349C119.837 33.8528 119.765 33.8619 119.674 33.7984C119.168 33.4376 118.561 33.2469 117.94 33.2535C117.032 33.2535 116.441 33.6712 116.441 34.4249C116.441 35.333 117.15 35.4874 118.067 35.7325C119.356 36.0685 120.319 36.4227 120.319 37.7757C120.319 39.1287 119.274 39.955 117.749 39.955C116.961 39.964 116.188 39.7431 115.524 39.3194C115.442 39.2649 115.442 39.2104 115.524 38.9834V38.9017C115.669 38.6202 115.724 38.602 115.833 38.6656C116.378 39.008 117.005 39.1992 117.649 39.2195C118.739 39.2195 119.465 38.829 119.465 37.8847C119.465 36.9403 118.83 36.8131 117.649 36.5226C117.075 36.4163 116.533 36.1836 116.06 35.8415C115.88 35.6757 115.737 35.4732 115.641 35.2477C115.546 35.0221 115.5 34.7788 115.506 34.5339C115.506 33.2081 116.496 32.4907 117.894 32.4907C118.667 32.4881 119.419 32.7367 120.037 33.199C120.119 33.2717 120.101 33.3534 119.965 33.5532L119.983 33.6349Z" fill="#00A4C4"/>
<path d="M122.171 29.4121C122.362 29.4169 122.544 29.4968 122.676 29.6344C122.809 29.7721 122.882 29.9565 122.88 30.1476C122.88 30.3355 122.805 30.5157 122.672 30.6485C122.539 30.7813 122.359 30.8559 122.171 30.8559C121.983 30.8559 121.803 30.7813 121.67 30.6485C121.538 30.5157 121.463 30.3355 121.463 30.1476C121.461 29.9565 121.533 29.7721 121.666 29.6344C121.799 29.4968 121.98 29.4169 122.171 29.4121ZM121.726 32.7447C121.726 32.6539 121.817 32.6267 122.108 32.6267H122.217C122.525 32.6267 122.607 32.6267 122.607 32.7447V39.6732C122.607 39.7641 122.525 39.8095 122.226 39.8095H122.117C121.79 39.8095 121.726 39.8095 121.726 39.6732V32.7447Z" fill="#00A4C4"/>
<path d="M125.377 33.6166C125.65 33.2455 126.012 32.9484 126.429 32.7518C126.845 32.5552 127.305 32.4655 127.765 32.4906C128.12 32.4703 128.475 32.5227 128.81 32.6445C129.144 32.7662 129.449 32.9549 129.708 33.1989C130.224 33.8437 130.462 34.6667 130.371 35.4872V39.6643C130.371 39.7551 130.308 39.8187 129.99 39.8187H129.881C129.554 39.8187 129.49 39.7642 129.49 39.6643V36.0956C129.49 34.9151 129.436 34.3249 129.054 33.8799C128.854 33.6915 128.616 33.5479 128.356 33.4586C128.097 33.3694 127.821 33.3366 127.547 33.3623C127.236 33.3445 126.924 33.3946 126.634 33.509C126.344 33.6235 126.082 33.7996 125.867 34.0252C125.636 34.3041 125.494 34.6456 125.458 35.0059C125.458 35.3964 125.458 36.1501 125.458 36.9855V39.7097C125.458 39.8005 125.368 39.8641 125.077 39.8641H124.968C124.641 39.8641 124.578 39.8096 124.578 39.7097V34.5428C124.578 33.9889 124.578 33.3623 124.578 32.7267C124.578 32.6359 124.687 32.6086 124.941 32.6086H125.032C125.304 32.6086 125.395 32.6086 125.395 32.7267L125.377 33.6166Z" fill="#00A4C4"/>
<path d="M132.795 36.5043C132.772 36.8841 132.829 37.2646 132.962 37.6212C133.095 37.9778 133.301 38.3026 133.567 38.5747C134.05 38.9605 134.658 39.1545 135.274 39.1195C135.903 39.1207 136.523 38.9811 137.091 38.7109C137.227 38.6382 137.281 38.6564 137.39 38.9288L137.445 39.065C137.526 39.2739 137.526 39.3647 137.445 39.4192C136.716 39.7862 135.909 39.9701 135.093 39.9549C132.986 39.9549 131.806 38.5928 131.806 36.3862C131.806 34.1796 132.986 32.4906 135.029 32.4906C135.541 32.4592 136.051 32.5828 136.491 32.8452C136.932 33.1076 137.283 33.4967 137.499 33.9617C137.819 34.6525 137.978 35.4071 137.962 36.1683C137.962 36.4861 137.908 36.5043 137.772 36.5043H132.795ZM137.036 35.796C137.036 34.5429 136.428 33.317 135.057 33.317C133.885 33.317 133.004 33.998 132.814 35.796H137.036Z" fill="#00A4C4"/>
<path d="M143.529 33.6349C143.375 33.8528 143.311 33.8619 143.22 33.7984C142.714 33.4376 142.107 33.2469 141.486 33.2535C140.578 33.2535 139.987 33.6712 139.987 34.4249C139.987 35.333 140.696 35.4874 141.622 35.7325C142.911 36.0685 143.874 36.4227 143.874 37.7757C143.874 39.1287 142.83 39.955 141.304 39.955C140.516 39.964 139.743 39.7431 139.079 39.3194C138.998 39.2649 138.998 39.2104 139.079 38.9834V38.9017C139.234 38.6202 139.279 38.602 139.388 38.6656C139.934 39.008 140.56 39.1992 141.204 39.2195C142.294 39.2195 143.02 38.829 143.02 37.8847C143.02 36.9403 142.385 36.8131 141.204 36.5226C140.631 36.416 140.088 36.1833 139.615 35.8415C139.435 35.6757 139.292 35.4732 139.197 35.2477C139.101 35.0221 139.055 34.7788 139.061 34.5339C139.061 33.2081 140.051 32.4907 141.449 32.4907C142.222 32.4881 142.974 32.7367 143.592 33.199C143.674 33.2717 143.665 33.3534 143.52 33.5532L143.529 33.6349Z" fill="#00A4C4"/>
<path d="M149.422 33.6349C149.277 33.8528 149.204 33.8619 149.113 33.7984C148.608 33.4376 148 33.2469 147.379 33.2535C146.471 33.2535 145.881 33.6712 145.881 34.4249C145.881 35.333 146.589 35.4874 147.506 35.7325C148.796 36.0685 149.758 36.4227 149.758 37.7757C149.758 39.1287 148.714 39.955 147.188 39.955C146.401 39.9645 145.627 39.7436 144.964 39.3194C144.882 39.2649 144.882 39.2104 144.964 38.9834V38.9017C145.109 38.6202 145.163 38.602 145.272 38.6656C145.818 39.008 146.445 39.1992 147.089 39.2195C148.178 39.2195 148.905 38.829 148.905 37.8847C148.905 36.9403 148.269 36.8131 147.089 36.5226C146.515 36.4163 145.972 36.1836 145.499 35.8415C145.319 35.6757 145.176 35.4732 145.081 35.2477C144.985 35.0221 144.939 34.7788 144.945 34.5339C144.945 33.2081 145.935 32.4907 147.334 32.4907C148.106 32.4881 148.858 32.7367 149.477 33.199C149.558 33.2717 149.54 33.3534 149.413 33.5532L149.422 33.6349Z" fill="#00A4C4"/>
<path d="M86.3934 0H85.4854V39.9549H86.3934V0Z" fill="#00A4C4"/>
<path d="M20.8946 26.2885L29.7755 39.9095H20.6312L14.9104 31.3464L9.16238 39.9549H0L9.02617 26.3339L0 12.7129H7.04659C7.67261 12.7485 8.28345 12.9195 8.83689 13.2143C9.39032 13.509 9.87317 13.9204 10.2521 14.4201L14.9104 21.3032L19.5416 14.4201C19.9205 13.9204 20.4033 13.509 20.9567 13.2143C21.5102 12.9195 22.121 12.7485 22.747 12.7129H29.7936L20.8946 26.2885Z" fill="#00A4C4"/>
<path d="M58.3975 11.2687C54.3358 11.1493 50.2929 11.8664 46.52 13.3754V39.9544H54.6926V18.5059C55.8068 18.1017 56.9855 17.9048 58.1705 17.9248C61.4759 17.9248 62.3748 19.8771 62.3748 21.8749V39.9454H70.5474V20.2857C70.5928 15.1189 67.3874 11.2687 58.3975 11.2687Z" fill="#00A4C4"/>
<path d="M37.6121 0.208635H37.4124C35.9908 0.184295 34.5782 0.437215 33.2534 0.95325V40.0001H41.6803V3.3687C41.7257 1.38004 40.4181 0.290361 37.6121 0.208635Z" fill="#00A4C4"/>
</g>
<defs>
<clipPath id="clip0_8805_502">
<rect width="150" height="40" fill="white"/>
</clipPath>
</defs>
</svg>
